<svg height="659" viewBox="-3.04 -.05 718.6 190.09" width="2500" xmlns="http://www.w3.org/2000/svg"><path d="m244.28 0-62.27.13c-109.52.24-147.12 1.13-162.45 2.49-1.99.18-8.39.63-13.41 3.81-2.39 1.51-9.19 6.89-4.59 16.82 2.72 5.87 8.48 10.97 13.52 14.88 30.93 24.03 98.3 61.38 140.98 80.39 42.67 19.01 62.93 26.16 76.05 26.16 5.8 0 10.59-1.59 15.56-3.75 5.84 7.91 13.18 15.22 21.94 21.8 23.31 17.52 53.1 27.31 86.54 27.31 33.45 0 63.24-9.8 86.55-27.31 8.76-6.58 16.1-13.89 21.94-21.8 4.98 2.16 9.76 3.75 15.56 3.75 13.12 0 33.37-7.15 76.05-26.16 42.67-19.01 110.05-56.36 140.98-80.39 5.04-3.92 11.01-9.01 13.73-14.88 4.6-9.93-2.2-15.31-4.59-16.83-5.02-3.18-11.63-3.63-13.62-3.81-15.33-1.36-52.92-2.25-162.44-2.48l-62.3-.13c-24.14-.05-50.31.9-57.02 3.57-7.86 3.13-5.68 9.28-3.71 12.29-14.99-6.88-32.46-10.81-51.14-10.81s-36.16 3.94-51.14 10.81c1.97-3.01 4.16-9.16-3.71-12.29-6.7-2.67-32.87-3.62-57.01-3.57zm-147.99 14.07c9.3-.05 10.96 0 27.9.37l63.52 15.12-164.96-4.74c-2.13-4.55 1.08-6.86 2.11-7.46 3.03-1.75 6.93-2.05 11.94-2.17 4.05-.1 28.88-.96 43.33-1.04l16.16-.09zm519.71 0c5.39-.02 10.77 0 16.16.09 14.45.21 43.33 1.04 43.33 1.04 5.01.12 8.91.42 11.94 2.17 1.03.6 4.24 2.91 2.11 7.46l-164.96 4.73 63.52-15.12s18.6-.33 27.9-.37zm-478.86.72c22.95.63 45.81 1.5 69.09 1.89l59.52 15.1-64.03-1.83zm438.01 0-64.58 15.16-64.03 1.83 59.52-15.1c23.28-.4 46.14-1.26 69.09-1.89zm-361.83.8c14.77.27 29.44.86 43.47 1.1 20.34.34 23.25 5.81 19.32 14.84l-62.8-15.94zm285.65 0-62.8 15.94c-2.83-7.85-2.96-14.44 19.22-15.01 14.03-.36 28.81-.66 43.58-.93zm-142.84-.19c49.99 0 90.52 30.51 90.52 68.15s-40.53 68.15-90.52 68.15-90.52-30.51-90.52-68.15 40.53-68.15 90.52-68.15zm.02 2.11c-48.45 0-87.72 29.57-87.72 66.04 0 36.48 39.28 66.05 87.72 66.05s87.73-29.57 87.72-66.05c0-36.47-39.28-66.04-87.72-66.04zm-331.29 10.63 156.39 21.97-117.86 5.61c-18.02-10.86-32.58-20.3-38.53-27.58zm662.57 0c-5.95 7.28-20.51 16.72-38.53 27.58l-117.86-5.61zm-641.14.17 155.07 4.44 58.03 13.62-63.04 3zm619.72 0-150.06 21.07-63.04-3 58.03-13.62 155.07-4.44zm-450.66 4.85 59.12 1.69c-1.87 3.43-4.24 7.05-6.54 10.65l-52.57-12.34zm281.59 0-52.57 12.34c-2.3-3.6-4.68-7.23-6.54-10.65l59.12-1.69zm-231.17 15.73-.15.24a72.991 72.991 0 0 0 -4.77 9.31l-49.52-6.95 54.44-2.59zm180.75 0 54.44 2.59-49.52 6.95a73.66 73.66 0 0 0 -4.77-9.31l-.15-.24zm-250.27 3.32 55.53 7.8-50.34 7.39-118.41-9.8 113.21-5.39zm319.8 0 113.21 5.39-118.41 9.8-50.34-7.39 55.53-7.8zm-446.71 7.07 119.85 9.91-81.95 12.03c-7.85-4.29-15.65-8.71-23.25-13.23-5.08-3.02-9.87-5.87-14.65-8.71zm573.62 0c-4.77 2.85-9.57 5.7-14.65 8.71a769.74 769.74 0 0 1 -23.25 13.23l-81.95-12.03zm-383.43 2.44a65.61 65.61 0 0 0 -2.83 10.25l-42.85-3.54 45.68-6.7zm193.23 0 45.68 6.7-42.85 3.54c-.66-3.5-1.6-6.92-2.83-10.25zm-251.16 8.5 49.3 4.08-40.35 10.49-88.95-2.83zm309.1 0 80 11.74-88.95 2.83-40.35-10.49zm-254.56 5.63c-.32 2.53-.54 5.09-.54 7.7 0 .9.07 1.78.11 2.68l-35.28-1.12 35.71-9.25zm200.02 0 35.71 9.25-34.94 1.13c-.9.03-.24-1.79-.24-2.69 0-2.61-.22-5.17-.54-7.7zm-342.82 8.65 87.58 2.79-54.13 14.08a784.09 784.09 0 0 1 -33.45-16.87zm485.62 0a778.312 778.312 0 0 1 -33.45 16.87l-54.13-14.08zm-388.2 3.11 41.57 1.33-27.13 11.12-66.3.99zm290.78 0 51.86 13.44-66.3-.99-27.13-11.12zm-245.52 2.85c.34 3.1.96 6.12 1.74 9.1l-24.87.37 23.13-9.48zm200.25 0 23.13 9.48-24.87-.37c.78-2.98 1.4-6.01 1.74-9.1zm-199.94 11.94-18.24 11.12-46.09 3.18 33.77-13.84zm199.63 0 30.56.46 33.77 13.84-44.73-2.41-19.61-11.89zm-237.87.57-34.93 14.31c-3.8-1.57-8.13-3.31-11.42-4.68-6.18-2.59-12.73-5.54-19.41-8.64zm276.12 0 65.76.99c-6.68 3.1-13.24 6.05-19.41 8.64-3.29 1.38-7.61 3.11-11.42 4.68zm-235.13.97c.91 2.69 1.94 5.34 3.2 7.91l-18.19 1.25 14.99-9.17zm194.14 0 16.54 10.25-20.44-1.05c1.43-2.57 2.85-5.9 3.9-9.2zm-193.85 10.93-16.4 10.56-22.79 2.28 18.7-11.43zm4.64.29c1.25 2.25 2.62 4.45 4.12 6.58-4.87 2.3-11.56 5.77-17.92 8.05-6.42 2.31-12.61 3.69-17.45 3.82-3.72.1-8.9-1.03-14.83-2.85l26-2.61zm186.19.65 24.58 1.25 17.33 10.66-24.09-1.43-17.82-10.47zm-217.33.89-20.19 12.31c-3.03-1.04-6.15-2.17-9.48-3.5-4.82-1.94-9.24-3.8-14.11-5.79l43.79-3.01zm214.43.17 19.75 12.14 27.31 1.76c-5.93 1.82-11.11 2.94-14.83 2.85-4.83-.12-11.03-1.51-17.45-3.82-6.37-2.29-12.98-5.79-17.85-8.09 1.14-1.55 2.04-3.1 3.07-4.84zm33.49.6 42.43 2.25c-4.87 1.99-9.29 3.85-14.11 5.79-3.33 1.34-9.48 3.5-9.48 3.5l-18.83-11.54zm-207.56 10.81c17.93 20.54 47.93 33.78 82.91 33.78s64.92-13.35 82.88-33.74c.04.02 6.28 3.33 13.37 6.84-19.23 24.63-55.17 41.75-96.25 41.74-41.08 0-77.02-17.11-96.26-41.74 7.11-3.52 13.34-6.88 13.34-6.88z"/><path d="m356.15 29.38c-20.52 0-44.99 6.13-56.44 20.64-1.07 1.36-1.23 2.02 0 3.26l4.43 4.43c1.75 1.75 1.65 1.7 1.65 3.09v47.7c0 1.39.1 1.34-1.65 3.09l-4.43 4.43c-.97.97-.99 1.76 0 2.81 11.45 12.16 35.92 19.17 56.44 19.17 22.27 0 35.57-5.09 43.86-11.81 8.91-7.23 10.09-14.95 10.09-20.08 0-7.55-2.98-13.09-9.37-19.23-2.86-2.75-5.77-4.7-6.84-5.34-1.37-.81-1.62-1.75-.16-2.5 1.1-.56 3.86-1.97 6.59-4.59 4.93-4.74 6.89-8.49 6.89-16.05 0-4.18-1.22-10.86-9.06-17.59-7.27-6.24-20.03-11.44-41.99-11.44zm0 7.4c8.94 0 21.86 2.97 21.86 20.13 0 7.29-2.08 12.58-4.87 15.75-3.58 4.07-8.45 6-16.99 6s-14.08-1.31-18.44-5.67c-3.41-3.41-5.28-8.79-5.28-16.08 0-20.08 17.91-20.13 23.72-20.13zm.69 48.08c9.63 0 24.03 2.02 24.03 23.1 0 6.73-2.84 13.75-5.99 16.91-4.57 4.57-10.52 5.67-18.73 5.67-8.91 0-15.02-2.67-18.48-6.13-3.85-3.85-5.95-11.65-5.95-16.45 0-19.83 14.1-23.1 25.12-23.1z" fill="#fff"/></svg>