<svg version="1.1" id="Layer_1" xmlns="http://www.w3.org/2000/svg" xmlns:xlink="http://www.w3.org/1999/xlink" x="0px" y="0px"
	 width="100%" viewBox="0 0 896 768" enable-background="new 0 0 896 768" xml:space="preserve">
<path fill="#000000" opacity="1.000000" stroke="none" 
	d="
M736.694885,255.652023 
	C758.785034,253.058304 780.427551,250.490036 802.069336,247.915405 
	C804.879700,247.581085 807.677979,247.099365 810.496948,246.898254 
	C812.772095,246.735931 815.454224,246.159180 816.847778,248.611526 
	C818.085083,250.788834 816.564819,252.783066 815.436890,254.613113 
	C810.369812,262.834320 805.288879,271.047363 800.159668,279.229889 
	C784.595947,304.058044 768.529663,328.589050 753.655701,353.823181 
	C747.405579,364.426880 738.792603,368.097656 727.577454,369.023315 
	C704.362488,370.939423 681.172546,373.157959 657.959717,375.101715 
	C654.957825,375.353088 652.969055,376.416656 651.589294,379.025940 
	C649.723022,382.555176 647.743774,386.025330 645.782593,389.503662 
	C641.787415,396.589539 636.176941,401.170959 627.716370,401.999451 
	C603.548828,404.365936 579.393921,406.865387 555.244934,409.415924 
	C540.849365,410.936401 526.466736,412.588318 512.093994,414.311859 
	C506.776398,414.949524 503.170319,417.624115 500.909058,422.898254 
	C487.789673,453.497467 474.430145,483.994171 461.028625,514.471375 
	C459.363922,518.257141 457.202911,521.883057 454.850800,525.292603 
	C452.266388,529.038818 449.164368,529.082153 446.253387,525.557800 
	C444.466980,523.394897 442.949890,520.947449 441.659821,518.448242 
	C437.842377,511.052551 434.401215,503.457214 430.432495,496.146484 
	C425.817108,487.644409 426.241455,479.258698 429.988251,470.708221 
	C446.489716,433.050629 463.002502,395.398010 479.474304,357.727417 
	C484.675293,345.832886 489.756866,333.886200 494.901398,321.966919 
	C501.745239,306.110474 514.083008,297.825806 530.969177,295.808533 
	C549.963074,293.539429 568.944275,291.157440 587.952637,289.016724 
	C607.786377,286.783051 627.655151,284.860291 647.490601,282.640900 
	C658.388855,281.421478 669.244507,279.825470 680.131409,278.498199 
	C683.275024,278.114960 685.326660,276.571594 686.517883,273.706970 
	C691.052795,262.802094 699.370117,258.808258 710.984863,258.416351 
	C719.369995,258.133423 727.821838,256.615936 736.694885,255.652023 
M758.007141,260.625610 
	C743.121887,262.198578 728.260498,264.078033 713.343140,265.238068 
	C703.187195,266.027771 695.283264,269.308960 691.861572,279.688568 
	C690.272888,284.507599 686.805542,286.116028 681.921936,286.278748 
	C670.772217,286.650238 659.794922,288.827820 648.683777,289.830078 
	C629.144226,291.592712 609.697693,294.369507 590.200012,296.616058 
	C570.368103,298.901184 550.494751,300.846649 530.690674,303.346100 
	C517.161499,305.053589 507.225922,312.083923 501.721558,324.914154 
	C494.637665,341.426147 487.476532,357.905334 480.275787,374.366791 
	C465.472748,408.207642 450.646820,442.038574 435.756348,475.840973 
	C433.976868,479.880524 433.448120,484.092346 435.028137,487.976501 
	C437.780579,494.742889 441.024353,501.339874 444.501312,507.770447 
	C446.818390,512.055847 451.758118,512.148254 454.766693,508.156403 
	C456.654724,505.651367 458.307251,502.875366 459.562195,500.001221 
	C470.882202,474.074799 482.407867,448.230103 493.167633,422.071228 
	C497.171051,412.338257 503.558868,407.594727 513.679626,406.674377 
	C527.440369,405.423035 541.176636,403.900726 554.920776,402.469238 
	C576.927917,400.177032 598.909912,397.598999 620.949707,395.685364 
	C630.246704,394.878082 637.230774,391.718903 641.113098,382.842285 
	C642.575256,379.499023 644.758728,376.476715 646.316711,373.168396 
	C647.985352,369.625092 650.518005,368.040924 654.447876,367.726410 
	C678.171509,365.827576 701.862488,363.478149 725.604614,361.874603 
	C735.483948,361.207367 742.524231,358.051117 747.931519,349.033630 
	C763.170776,323.620148 779.310181,298.746674 795.075806,273.648407 
	C797.285339,270.130920 799.618347,266.662445 801.483398,262.964172 
	C803.888916,258.193848 802.501831,256.266174 797.060852,256.221252 
	C796.062744,256.213013 795.056946,256.242493 794.066406,256.356506 
	C782.339783,257.706055 770.615356,259.075012 758.007141,260.625610 
z"/>
<path fill="#000000" opacity="1.000000" stroke="none" 
	d="
M163.639618,367.623413 
	C156.235397,367.018280 151.812790,362.959564 148.255981,357.263397 
	C132.472305,331.986176 116.543686,306.799500 100.698769,281.560425 
	C95.122765,272.678528 89.600464,263.762329 84.137062,254.810837 
	C82.965736,252.891724 80.967361,250.840347 82.358437,248.448318 
	C83.760818,246.036880 86.518753,246.691940 88.763657,246.932983 
	C103.316803,248.495636 117.861816,250.136261 132.402618,251.811005 
	C146.603989,253.446655 160.794724,255.174225 174.994949,256.819885 
	C181.764267,257.604370 188.570404,258.112762 195.313019,259.074524 
	C202.105667,260.043427 207.909637,263.119019 210.443726,269.814453 
	C213.251572,277.233215 218.854492,278.990509 225.924042,279.752350 
	C257.340149,283.137939 288.720367,286.855743 320.119080,290.404419 
	C336.981659,292.310242 353.922302,293.658905 370.703827,296.107880 
	C385.156128,298.216919 396.974274,305.562408 403.107300,319.182739 
	C417.174133,350.422577 430.574219,381.962494 444.286713,413.362396 
	C445.209656,415.475830 445.466309,417.431671 444.520691,419.596222 
	C437.061798,436.670074 429.646790,453.763092 422.187836,470.836914 
	C421.948456,471.384766 421.381226,471.789429 421.008026,472.213959 
	C418.749023,471.649719 418.699219,469.716644 418.078491,468.297119 
	C411.278198,452.745575 404.455444,437.202789 397.823792,421.579102 
	C395.867096,416.969299 392.275085,415.004700 387.779602,414.485840 
	C371.918152,412.655212 356.037109,410.993256 340.160828,409.292389 
	C327.922546,407.981232 315.660736,406.866699 303.445465,405.370209 
	C292.380859,404.014648 281.231476,403.521637 270.212219,401.622131 
	C263.658447,400.492371 258.712860,397.462860 255.249069,391.961426 
	C253.034348,388.443878 250.797485,384.886810 249.104431,381.108246 
	C247.170288,376.791656 244.320541,375.243164 239.543274,374.840729 
	C214.357864,372.719055 189.210098,370.150696 163.639618,367.623413 
M253.351440,290.282440 
	C242.621216,288.987976 231.910904,286.932800 221.154160,286.651276 
	C213.234711,286.444061 208.698364,283.294678 206.075378,276.397034 
	C203.431396,269.444244 198.207703,266.930511 191.051712,266.173004 
	C162.439240,263.144318 133.869247,259.715088 105.278763,256.476227 
	C102.681564,256.182007 99.697433,255.408447 97.977417,258.189636 
	C96.391273,260.754395 98.245789,263.002594 99.543762,265.068848 
	C118.138062,294.669128 136.824219,324.211853 155.341751,353.859955 
	C157.778183,357.760864 161.148712,359.788910 165.335846,360.567688 
	C169.082306,361.264526 172.929398,361.444458 176.738831,361.774689 
	C199.943161,363.786224 223.146667,365.808624 246.358063,367.735657 
	C249.745316,368.016876 251.761139,369.629547 253.268890,372.578491 
	C255.692200,377.318024 258.379211,381.924988 261.022461,386.549286 
	C263.760681,391.339691 267.849915,394.186005 273.394073,394.780701 
	C292.580841,396.838684 311.764557,398.925842 330.957611,400.923279 
	C350.480652,402.955078 370.020752,404.824341 389.537811,406.910706 
	C396.425110,407.646973 401.818451,410.933258 404.708984,417.510437 
	C408.522644,426.188202 412.143341,434.952209 416.060059,443.582458 
	C417.441986,446.627594 417.957916,450.300354 421.133820,452.464020 
	C422.708557,451.466431 423.166504,450.006561 423.765411,448.671631 
	C427.307434,440.776428 430.555298,432.734467 434.440979,425.013031 
	C437.445526,419.042480 438.112061,413.561981 434.380371,407.700714 
	C432.791687,405.205414 431.899231,402.265717 430.700012,399.523773 
	C419.499146,373.914124 408.430206,348.245667 397.037384,322.721741 
	C392.458069,312.462402 384.117188,306.327484 373.118866,304.240936 
	C352.843964,300.394470 332.216858,299.175323 311.767792,296.658997 
	C292.635803,294.304779 273.433990,292.271759 253.351440,290.282440 
z"/>
<path fill="#000000" opacity="1.000000" stroke="none" 
	d="
M654.638428,346.583252 
	C647.790344,358.816254 641.040405,370.684845 634.544067,382.690735 
	C632.528564,386.415680 629.859070,388.502472 625.650635,388.934113 
	C608.934692,390.648651 592.227600,392.449066 575.517944,394.224701 
	C557.983521,396.087982 540.445740,397.920197 522.918274,399.846893 
	C516.166626,400.589081 509.299713,400.529449 502.805817,403.103577 
	C496.753510,405.502716 492.403015,409.466370 489.809692,415.468811 
	C478.127991,442.506714 466.414062,469.530762 454.654572,496.534882 
	C453.552216,499.066406 452.828918,501.895386 450.490601,503.730530 
	C443.032745,498.152435 438.886597,483.023590 442.431519,474.908295 
	C454.288605,447.764374 466.086670,420.594635 477.958954,393.457367 
	C487.826782,370.901703 497.679443,348.338562 507.715637,325.857697 
	C512.240112,315.722931 520.534973,310.315826 531.372559,309.013458 
	C559.438843,305.640625 587.521912,302.404694 615.608887,299.207489 
	C629.821106,297.589691 644.118164,296.587891 658.252747,294.477081 
	C664.503174,293.543701 670.830444,293.527435 677.023926,292.253357 
	C679.104309,291.825409 681.295959,291.503784 684.544250,292.915558 
	C674.589600,310.793182 664.712036,328.532471 654.638428,346.583252 
M570.639282,330.102875 
	C567.526978,330.098480 564.114990,330.300415 563.360474,333.919830 
	C561.893860,340.955811 557.315857,342.558502 550.999939,342.393158 
	C547.537170,342.302521 544.060791,343.129883 540.579285,343.278931 
	C531.343018,343.674255 521.780090,351.340668 519.181519,360.674042 
	C521.573120,362.456421 524.213684,361.691559 526.818115,361.392334 
	C533.917053,360.576660 541.014648,359.746002 548.122192,359.012573 
	C550.212524,358.796844 552.478333,358.950012 552.033569,361.965332 
	C551.422363,366.109100 553.755859,366.933746 557.031067,366.711975 
	C565.320984,366.150604 573.603760,365.485535 581.891663,364.892792 
	C583.944702,364.745972 585.441589,363.869965 585.918762,361.817871 
	C587.464783,355.168457 592.269836,353.761292 598.231812,353.770935 
	C601.877075,353.776855 605.519165,353.169220 609.169739,353.047211 
	C614.115051,352.881958 618.171448,351.240417 621.154236,347.083862 
	C622.795593,344.796631 624.844360,342.805664 626.633728,340.619171 
	C627.543091,339.507996 628.938232,338.461304 628.102051,336.711853 
	C627.274658,334.980927 625.632568,335.254395 624.164795,335.376038 
	C618.040833,335.883667 611.926392,336.511017 605.798889,336.966095 
	C602.759949,337.191833 599.619751,338.252106 596.668274,336.614716 
	C597.980835,328.522705 597.515686,327.903473 589.385010,328.394135 
	C583.415100,328.754395 577.467468,329.484070 570.639282,330.102875 
z"/>
<path fill="#000000" opacity="1.000000" stroke="none" 
	d="
M734.504517,295.294556 
	C730.840027,302.230652 726.375549,308.314209 723.479309,316.298187 
	C727.376831,313.544495 729.179993,309.992584 731.695618,307.146942 
	C734.128662,304.394684 736.521362,301.616455 739.542114,299.512939 
	C744.445862,296.098175 747.029297,297.041687 748.540405,302.712128 
	C748.915894,304.121399 749.746521,305.501129 748.938293,307.532898 
	C741.103027,305.378052 736.381714,310.567230 731.966919,315.727814 
	C727.669067,320.751740 721.804749,324.783447 720.778076,332.144287 
	C720.539429,333.854919 718.725830,334.124084 717.155762,334.148132 
	C714.326599,334.191437 711.495239,334.298309 708.668518,334.226990 
	C706.755737,334.178772 704.086304,334.560211 704.205750,331.652130 
	C704.315125,328.989258 706.914795,329.270782 708.858093,329.006653 
	C711.607727,328.632965 714.486572,329.475433 717.164368,327.741516 
	C714.458252,329.339142 712.204651,326.022797 709.291382,327.549469 
	C707.997009,328.227783 706.956421,326.604431 706.905334,325.116425 
	C706.865723,323.965118 707.060669,322.799530 707.215088,321.648804 
	C708.412109,312.727478 707.851013,311.955414 698.949219,311.412109 
	C702.055359,306.806549 705.559265,303.215393 709.994568,300.648895 
	C712.751709,299.053467 713.730835,301.423889 713.881226,303.407074 
	C714.168457,307.194885 713.964600,311.019928 713.964600,316.110962 
	C717.367249,311.010071 718.131409,306.206512 719.264160,301.765656 
	C721.605652,292.586365 728.189209,286.340485 733.448181,279.152374 
	C734.037292,278.347046 734.902161,277.694519 736.028931,278.125854 
	C737.344055,278.629333 737.543945,279.843964 737.532043,281.017426 
	C737.482727,285.843628 737.602600,290.717590 734.504517,295.294556 
z"/>
<path fill="#000000" opacity="1.000000" stroke="none" 
	d="
M707.666870,342.476196 
	C704.783752,340.469879 706.291138,338.073608 707.429993,336.407715 
	C708.786438,334.423462 711.101379,334.684235 713.364502,336.080566 
	C712.458191,339.115631 710.181702,340.729828 707.666870,342.476196 
z"/>
<path fill="#000000" opacity="1.000000" stroke="none" 
	d="
M219.034393,320.813416 
	C215.843521,314.755249 212.861435,308.998840 209.847519,303.259155 
	C208.814941,301.292725 207.572983,299.575867 205.037033,299.416046 
	C193.250137,298.673248 181.465607,297.893066 169.678391,297.155487 
	C168.712402,297.095032 167.649841,296.984283 166.479462,298.657318 
	C171.502991,307.253265 176.712128,316.166779 181.786163,324.849152 
	C180.247513,326.945343 178.642960,326.389587 177.223312,326.338318 
	C167.743637,325.996063 158.267975,325.526459 148.786484,325.258972 
	C145.263641,325.159576 142.963882,323.735565 141.136993,320.685394 
	C136.776321,313.404816 132.092178,306.318695 127.621559,299.102661 
	C126.709702,297.630798 125.063431,296.339600 125.900833,293.680481 
	C137.883698,294.471191 149.977264,295.269226 163.316956,296.149475 
	C158.800171,285.458679 152.254303,277.616180 147.964966,268.793213 
	C149.260300,266.550018 150.981476,267.188904 152.591766,267.374908 
	C165.975479,268.920715 179.353043,270.523621 192.747620,271.968811 
	C196.027557,272.322693 198.232239,273.659454 199.848694,276.600708 
	C214.267136,302.835815 228.786789,329.015259 243.235336,355.233856 
	C244.242096,357.060791 245.865784,358.745270 245.267670,361.578888 
	C241.422775,362.652954 237.528473,361.294403 233.700592,361.044464 
	C223.912125,360.405151 214.155289,359.286011 204.383301,358.385773 
	C202.679825,358.228790 201.129303,357.996063 200.128372,356.309052 
	C194.862778,347.433929 189.535278,338.595551 184.276245,329.716583 
	C183.885864,329.057465 183.864548,328.179749 183.558060,326.946564 
	C188.031631,325.587616 192.318146,326.732269 196.441925,327.104126 
	C202.768799,327.674622 209.081360,327.658386 215.401291,327.704041 
	C221.728867,327.749786 222.108261,326.994324 219.034393,320.813416 
z"/>
<path fill="#000000" opacity="1.000000" stroke="none" 
	d="
M319.876343,393.616913 
	C315.025513,388.585266 313.155396,382.208313 309.827576,376.673462 
	C307.041443,372.039612 304.907166,367.013824 301.842743,360.876953 
	C320.384399,361.766235 337.579376,365.060822 355.858276,365.515717 
	C352.539551,354.781250 346.523315,346.294189 342.591461,335.905670 
	C351.147705,336.741180 358.693298,337.464600 366.235931,338.217896 
	C375.512878,339.144501 384.779114,340.192413 394.067139,340.987122 
	C397.567322,341.286621 399.807892,342.476715 401.216095,345.975220 
	C404.617615,354.425781 408.430573,362.710754 412.391418,371.780945 
	C406.791595,373.056732 401.786560,371.496613 396.844696,371.041168 
	C386.247009,370.064545 375.691742,368.636047 365.108856,367.487183 
	C360.022552,366.935028 358.925720,368.359283 361.100220,373.089478 
	C364.226990,379.891174 367.680878,386.542297 370.982849,393.263733 
	C371.774567,394.875366 372.517761,396.510834 374.038269,399.737640 
	C355.268616,397.666260 337.751312,395.733093 319.876343,393.616913 
z"/>
<path fill="#000000" opacity="1.000000" stroke="none" 
	d="
M236.931519,332.005737 
	C235.986282,329.871979 234.307724,328.469910 234.352661,324.947052 
	C250.831085,326.499634 267.242859,328.045929 284.622498,329.683411 
	C280.313171,318.301178 273.809204,309.049469 269.322784,298.572235 
	C273.968567,296.826324 278.020142,298.621948 282.000122,299.002594 
	C296.071014,300.348206 310.094971,302.182098 324.141388,303.790253 
	C325.714386,303.970337 327.151794,304.303741 327.902344,305.812439 
	C332.688019,315.432556 337.439362,325.069702 343.007324,336.329865 
	C323.860229,334.434814 306.061127,332.673187 287.259552,330.812347 
	C291.125824,341.737701 297.585510,350.132324 301.564301,360.790558 
	C294.662598,360.201752 288.656128,359.763000 282.666077,359.160980 
	C273.733032,358.263184 264.813660,357.230225 255.884186,356.295624 
	C252.018311,355.891022 249.242188,354.430573 247.366211,350.598053 
	C244.300705,344.335388 240.558884,338.403717 236.931519,332.005737 
z"/>
</svg>