<svg version="1.1" id="Layer_1" xmlns="http://www.w3.org/2000/svg" xmlns:xlink="http://www.w3.org/1999/xlink" x="0px" y="0px"
	 width="100%" viewBox="0 0 1000 500" enable-background="new 0 0 1000 500" xml:space="preserve">
<path fill="#000000" opacity="1.000000" stroke="none" 
	d="
M656.000000,501.000000 
	C437.369659,501.000000 219.239334,501.000000 1.054499,501.000000 
	C1.054499,334.397430 1.054499,167.794846 1.054499,1.096133 
	C334.213715,1.096133 667.427429,1.096133 1000.820557,1.096133 
	C1000.820557,167.666504 1000.820557,334.333252 1000.820557,501.000000 
	C886.128113,501.000000 771.314026,501.000000 656.000000,501.000000 
M430.808380,57.826496 
	C430.677490,57.719723 430.546570,57.612949 430.435425,56.665417 
	C432.522980,48.631439 429.978241,43.535431 420.086761,42.255512 
	C403.738770,40.140156 387.212677,38.875683 370.730499,38.444756 
	C345.102142,37.774708 319.447632,38.019466 293.804321,38.038906 
	C275.838226,38.052525 257.872620,38.381023 239.906311,38.490803 
	C206.130539,38.697186 172.353241,38.726128 138.578827,39.057716 
	C110.185341,39.336468 81.790840,39.776764 53.406067,40.506275 
	C45.561943,40.707870 37.601166,41.526611 29.954424,43.230991 
	C11.229132,47.404663 6.367790,63.880394 19.567497,77.924034 
	C24.618347,83.297813 29.804588,88.832687 35.853821,92.928421 
	C58.658260,108.368561 81.408951,123.967216 104.982384,138.174789 
	C145.110794,162.359924 187.129425,183.027985 229.833298,202.287567 
	C255.807281,214.001907 282.074921,224.906708 309.580383,232.614502 
	C321.652863,235.997513 333.689362,237.879425 345.686096,232.876602 
	C349.078552,231.461914 351.151245,231.981064 353.294281,234.728180 
	C362.943848,247.097702 374.587708,257.457184 387.677490,265.877014 
	C432.984375,295.020050 482.581421,303.393433 535.291199,294.689545 
	C559.790344,290.644073 582.746033,282.033447 603.901001,268.899231 
	C620.246948,258.750671 634.331238,246.022888 646.180664,231.221649 
	C655.905090,234.906830 665.509583,237.351105 675.753174,235.190155 
	C703.797791,229.273941 730.131226,218.369324 756.261658,207.050873 
	C773.729065,199.484833 791.018372,191.417084 807.945984,182.715179 
	C837.635132,167.452927 867.301147,152.090347 896.358887,135.675766 
	C913.640869,125.913239 929.943420,114.351761 946.298889,103.038986 
	C956.047546,96.296059 965.236267,88.693817 974.304077,81.036575 
	C979.083984,77.000191 982.636475,71.655212 983.822021,65.328735 
	C985.945862,53.995922 978.936035,44.903336 965.437073,43.235195 
	C949.423584,41.256317 933.270874,40.045521 917.143127,39.436344 
	C894.910767,38.596581 872.646362,38.474304 850.393799,38.327923 
	C815.415344,38.097828 780.435242,38.015453 745.455933,38.036648 
	C714.826233,38.055206 684.196411,38.265831 653.567139,38.463745 
	C637.610291,38.566849 621.647156,38.598560 605.700867,39.103588 
	C596.851013,39.383877 587.957458,40.126316 579.227478,41.545612 
	C575.083191,42.219368 570.385559,44.117249 567.598999,47.042320 
	C565.388489,49.362705 565.705811,54.091190 564.813049,58.149124 
	C564.082703,57.891762 562.708740,57.472679 561.384705,56.931282 
	C542.893494,49.370167 523.570740,45.775551 503.689178,45.110313 
	C478.602448,44.270916 454.445221,48.825928 430.808380,57.826496 
M148.499741,472.985199 
	C156.424866,472.473816 164.539322,472.870636 172.236588,471.266174 
	C189.422760,467.683777 198.211319,446.712067 188.915375,431.714752 
	C186.118561,427.202606 181.367996,423.901489 177.804947,420.338135 
	C179.351944,418.390961 181.548843,416.289764 182.950439,413.749725 
	C190.025818,400.927460 185.277527,379.860382 164.240952,377.466187 
	C144.215744,375.187012 123.836922,376.014862 103.426361,375.471710 
	C103.426361,408.455597 103.426361,440.508942 103.426361,472.985199 
	C118.265060,472.985199 132.882462,472.985199 148.499741,472.985199 
M408.102722,426.496918 
	C408.102722,431.909851 408.102722,437.322784 408.102722,442.735748 
	C407.730560,442.943756 407.358398,443.151764 406.986237,443.359802 
	C406.484283,442.567596 406.065277,441.705902 405.468353,440.993195 
	C388.249451,420.433685 371.033752,399.871338 353.732910,379.380920 
	C352.541473,377.969879 350.767090,376.302094 349.135864,376.152924 
	C344.400421,375.719879 339.599792,375.999451 335.127411,375.999451 
	C335.127411,408.689117 335.127411,440.750977 335.127411,472.671997 
	C340.873810,472.671997 346.284576,472.671997 352.087646,472.671997 
	C352.087646,450.332947 352.087646,428.300415 352.087646,405.437988 
	C359.456177,413.945251 366.320312,421.709930 373.006470,429.624939 
	C384.733643,443.507446 396.342834,457.489624 408.042206,471.395752 
	C408.623993,472.087250 409.580994,472.878174 410.383636,472.900818 
	C415.308167,473.039673 420.238556,472.970337 425.098999,472.970337 
	C425.098999,440.364471 425.098999,408.410217 425.098999,376.290161 
	C419.411835,376.290161 413.861694,376.290161 408.102722,376.290161 
	C408.102722,392.887970 408.102722,409.192963 408.102722,426.496918 
M707.506042,431.947937 
	C717.263428,431.947937 727.020874,431.947937 736.690613,431.947937 
	C736.690613,426.033875 736.690613,420.774139 736.690613,415.100220 
	C722.355225,415.100220 708.280579,415.100220 694.209839,415.100220 
	C694.209839,407.461853 694.209839,400.252441 694.209839,392.853516 
	C715.354919,392.853516 736.155273,392.853516 757.240112,392.853516 
	C757.240112,387.241119 757.240112,381.822479 757.240112,376.365479 
	C729.798767,376.365479 702.441406,376.365479 675.235840,376.365479 
	C675.235840,408.682953 675.235840,440.628479 675.235840,472.778351 
	C703.005615,472.778351 730.574951,472.778351 758.362915,472.778351 
	C758.362915,467.159302 758.362915,461.745148 758.362915,455.828339 
	C736.746704,455.828339 715.351562,455.828339 694.207153,455.828339 
	C694.207153,447.579620 694.207153,439.836060 694.207153,431.947937 
	C698.535522,431.947937 702.521790,431.947937 707.506042,431.947937 
M247.549927,431.945435 
	C259.686279,431.945435 271.822601,431.945435 284.173889,431.945435 
	C284.173889,426.230682 284.173889,420.809204 284.173889,415.004150 
	C269.637207,415.004150 255.384430,415.004150 241.020248,415.004150 
	C241.020248,407.531586 241.020248,400.445343 241.020248,392.822693 
	C262.387695,392.822693 283.587372,392.822693 304.646362,392.822693 
	C304.646362,386.881348 304.646362,381.482117 304.646362,376.198456 
	C277.200073,376.198456 250.090271,376.198456 222.861908,376.198456 
	C222.861908,408.457764 222.861908,440.514404 222.861908,472.729645 
	C250.585800,472.729645 278.136169,472.729645 305.731934,472.729645 
	C305.731934,467.072723 305.731934,461.671448 305.731934,455.929749 
	C284.063995,455.929749 262.648163,455.929749 241.040619,455.929749 
	C241.040619,447.850311 241.040619,440.116730 241.040619,431.945435 
	C242.989807,431.945435 244.777390,431.945435 247.549927,431.945435 
M872.810120,402.262390 
	C879.606384,393.768738 886.402649,385.275085 893.830505,375.992065 
	C887.480835,375.992065 882.044861,376.257874 876.651001,375.895966 
	C873.215088,375.665436 871.008789,376.992126 869.086121,379.483704 
	C867.168823,381.968079 865.219299,384.428436 863.246216,386.868835 
	C855.381470,396.596283 847.501892,406.311737 839.360474,416.361694 
	C829.541565,404.506775 819.832642,393.032806 810.444702,381.301941 
	C807.551819,377.687103 804.705261,375.442230 799.758057,375.890228 
	C794.684204,376.349670 789.536316,375.992065 783.661987,375.992065 
	C797.377930,392.812195 810.634277,409.279541 824.168396,425.515350 
	C827.485535,429.494720 829.571106,433.267792 829.349670,438.744690 
	C828.894104,450.009277 829.212708,461.305176 829.212708,472.679779 
	C835.896118,472.679779 842.109985,472.679779 848.652100,472.679779 
	C848.652100,460.068146 848.567505,447.759460 848.739868,435.454346 
	C848.766907,433.521423 849.505432,431.249115 850.687927,429.739014 
	C857.788757,420.671265 865.115356,411.780334 872.810120,402.262390 
M505.322876,472.986481 
	C509.279480,473.446625 507.956787,470.448334 507.961853,468.663910 
	C508.028442,445.184265 508.006195,421.704407 508.006226,398.224579 
	C508.006256,396.476166 508.006256,394.727753 508.006256,392.627167 
	C520.301453,392.627167 531.886353,392.627167 543.489136,392.627167 
	C543.489136,386.876465 543.489136,381.491180 543.489136,376.168457 
	C513.392456,376.168457 483.619965,376.168457 453.695374,376.168457 
	C453.695374,381.756805 453.695374,387.163696 453.695374,393.022369 
	C465.703918,393.022369 477.448303,393.022369 489.551086,393.022369 
	C489.551086,419.887482 489.551086,446.300385 489.551086,472.987061 
	C494.729431,472.987061 499.540436,472.987061 505.322876,472.986481 
M587.917847,429.500031 
	C587.917847,411.754883 587.917847,394.009766 587.917847,376.311218 
	C581.336487,376.311218 575.280334,376.311218 569.356812,376.311218 
	C569.356812,408.662537 569.356812,440.697510 569.356812,472.662964 
	C595.829773,472.662964 622.013367,472.662964 648.136047,472.662964 
	C648.136047,466.947937 648.136047,461.557281 648.136047,455.795105 
	C627.910706,455.795105 608.010254,455.795105 587.917847,455.795105 
	C587.917847,447.106812 587.917847,438.803436 587.917847,429.500031 
z"/>
<path fill="#F9F9F9" opacity="1.000000" stroke="none" 
	d="
M431.173615,58.177864 
	C454.445221,48.825928 478.602448,44.270916 503.689178,45.110313 
	C523.570740,45.775551 542.893494,49.370167 561.384705,56.931282 
	C562.708740,57.472679 564.082703,57.891762 564.813049,58.149124 
	C565.705811,54.091190 565.388489,49.362705 567.598999,47.042320 
	C570.385559,44.117249 575.083191,42.219368 579.227478,41.545612 
	C587.957458,40.126316 596.851013,39.383877 605.700867,39.103588 
	C621.647156,38.598560 637.610291,38.566849 653.567139,38.463745 
	C684.196411,38.265831 714.826233,38.055206 745.455933,38.036648 
	C780.435242,38.015453 815.415344,38.097828 850.393799,38.327923 
	C872.646362,38.474304 894.910767,38.596581 917.143127,39.436344 
	C933.270874,40.045521 949.423584,41.256317 965.437073,43.235195 
	C978.936035,44.903336 985.945862,53.995922 983.822021,65.328735 
	C982.636475,71.655212 979.083984,77.000191 974.304077,81.036575 
	C965.236267,88.693817 956.047546,96.296059 946.298889,103.038986 
	C929.943420,114.351761 913.640869,125.913239 896.358887,135.675766 
	C867.301147,152.090347 837.635132,167.452927 807.945984,182.715179 
	C791.018372,191.417084 773.729065,199.484833 756.261658,207.050873 
	C730.131226,218.369324 703.797791,229.273941 675.753174,235.190155 
	C665.509583,237.351105 655.905090,234.906830 646.180664,231.221649 
	C634.331238,246.022888 620.246948,258.750671 603.901001,268.899231 
	C582.746033,282.033447 559.790344,290.644073 535.291199,294.689545 
	C482.581421,303.393433 432.984375,295.020050 387.677490,265.877014 
	C374.587708,257.457184 362.943848,247.097702 353.294281,234.728180 
	C351.151245,231.981064 349.078552,231.461914 345.686096,232.876602 
	C333.689362,237.879425 321.652863,235.997513 309.580383,232.614502 
	C282.074921,224.906708 255.807281,214.001907 229.833298,202.287567 
	C187.129425,183.027985 145.110794,162.359924 104.982384,138.174789 
	C81.408951,123.967216 58.658260,108.368561 35.853821,92.928421 
	C29.804588,88.832687 24.618347,83.297813 19.567497,77.924034 
	C6.367790,63.880394 11.229132,47.404663 29.954424,43.230991 
	C37.601166,41.526611 45.561943,40.707870 53.406067,40.506275 
	C81.790840,39.776764 110.185341,39.336468 138.578827,39.057716 
	C172.353241,38.726128 206.130539,38.697186 239.906311,38.490803 
	C257.872620,38.381023 275.838226,38.052525 293.804321,38.038906 
	C319.447632,38.019466 345.102142,37.774708 370.730499,38.444756 
	C387.212677,38.875683 403.738770,40.140156 420.086761,42.255512 
	C429.978241,43.535431 432.522980,48.631439 430.314148,57.298965 
	C430.519775,58.014297 430.846710,58.096081 431.173615,58.177864 
M573.053284,221.645844 
	C584.672852,214.474899 594.910278,205.705521 602.887329,194.593781 
	C617.360901,174.432632 621.674683,152.446686 612.959534,128.814636 
	C603.861755,104.145050 585.270752,88.107010 562.321777,77.217720 
	C537.831848,65.597229 511.780365,61.195759 484.586639,63.888630 
	C450.829346,67.231468 420.815826,78.542747 397.954468,104.617661 
	C384.684814,119.752617 377.860535,137.292526 379.686798,158.031479 
	C381.668152,180.531677 392.887451,197.782608 409.551941,211.482391 
	C437.989075,234.860367 471.419220,243.021194 507.723145,241.035446 
	C530.794189,239.773514 552.403625,233.640381 573.053284,221.645844 
M607.955811,217.385544 
	C602.518311,222.179459 597.515869,227.613205 591.568787,231.657913 
	C563.947205,250.443649 533.043457,259.185730 499.849152,259.779510 
	C485.138428,260.042633 470.473907,258.317505 456.210480,254.603210 
	C437.289856,249.676178 419.318237,242.407394 403.762177,230.213638 
	C397.163666,225.041367 390.956421,219.369873 384.524872,213.885605 
	C378.970551,216.828690 373.366516,219.798126 367.655548,222.824203 
	C438.922729,306.085571 577.781555,289.897766 628.297791,222.477615 
	C622.811829,219.552612 617.343994,216.637268 611.205139,213.364136 
	C610.308350,214.524963 609.395935,215.706009 607.955811,217.385544 
M104.492767,78.159058 
	C100.130493,78.159058 95.768219,78.159058 91.405937,78.159058 
	C100.930893,80.180016 110.542755,81.341736 120.126755,82.700081 
	C140.103851,85.531448 160.057709,88.527206 180.036957,91.343018 
	C201.474503,94.364365 222.942062,97.173897 244.374527,100.230095 
	C263.419098,102.945793 282.252258,106.389801 301.799774,104.377388 
	C320.010376,102.502609 338.435211,102.713547 356.764008,101.964447 
	C357.543945,101.932556 358.306641,101.478607 359.640442,101.033272 
	C358.598938,100.420860 358.232422,100.075684 357.807709,99.974365 
	C342.497894,96.321785 327.191467,92.654053 311.864746,89.073280 
	C302.778412,86.950447 293.741333,83.829788 284.536957,83.163841 
	C265.699036,81.800896 246.763962,81.764153 227.867523,81.229851 
	C202.841476,80.522240 177.814987,79.827721 152.787033,79.192123 
	C137.020996,78.791748 121.251961,78.509491 104.492767,78.159058 
M864.997803,84.362251 
	C878.581848,82.506165 892.165833,80.650078 905.749878,78.793991 
	C904.396973,77.975716 903.097595,77.804054 901.805054,77.845467 
	C880.749878,78.520203 859.697754,79.303558 838.640259,79.891319 
	C822.194946,80.350357 805.741516,80.516418 789.294617,80.926323 
	C780.859314,81.136551 772.432495,81.676331 763.997620,81.917763 
	C756.674866,82.127373 749.337708,81.937210 742.021851,82.261322 
	C729.803955,82.802589 717.364502,82.360741 705.438110,84.584412 
	C683.974365,88.586304 662.819336,94.245926 641.542236,99.242432 
	C639.969666,99.611702 638.452637,100.217300 636.909790,100.713043 
	C636.981018,101.172813 637.052307,101.632591 637.123596,102.092361 
	C642.334778,102.092361 647.555908,101.882889 652.755371,102.129494 
	C672.719238,103.076355 692.728882,105.567032 712.621094,104.817894 
	C732.817139,104.057320 752.917725,100.321724 773.018982,97.587051 
	C803.436340,93.448959 833.817993,89.049294 864.997803,84.362251 
M213.188217,100.289642 
	C158.262344,92.594704 103.336464,84.899773 47.381699,77.060692 
	C50.276703,79.795685 52.292625,82.258499 54.812061,83.987679 
	C68.760658,93.561134 82.770477,103.049858 96.930481,112.305771 
	C98.937904,113.617958 101.884193,113.971603 104.388985,113.950310 
	C110.472359,113.898605 116.549561,113.320404 122.633026,113.034782 
	C134.681900,112.469055 146.735931,112.010078 158.783112,111.412018 
	C178.907944,110.412964 199.027435,109.305595 219.152420,108.309784 
	C231.233597,107.711998 243.320953,107.239326 255.405548,106.710426 
	C255.402206,106.602226 255.398880,106.494019 255.395554,106.385818 
	C241.626358,104.361801 227.857147,102.337784 213.188217,100.289642 
M862.348389,112.516960 
	C872.231140,113.016556 882.110229,113.656967 891.999329,113.916885 
	C894.475952,113.981987 897.323364,113.388725 899.421021,112.131432 
	C909.289856,106.216156 919.132141,100.221504 928.638794,93.748383 
	C935.774109,88.889931 942.385437,83.262047 949.230042,77.976723 
	C949.020081,77.686859 948.810181,77.396996 948.600220,77.107132 
	C879.591248,86.830986 810.582336,96.554832 741.573364,106.278679 
	C741.589905,106.918114 741.606384,107.557549 741.622925,108.196983 
	C754.849121,108.196983 768.087708,107.836830 781.298401,108.289055 
	C797.447510,108.841888 813.571045,110.116074 829.709900,111.001305 
	C840.259827,111.579979 850.817261,112.021889 862.348389,112.516960 
M199.908325,76.547119 
	C220.430893,77.052422 240.953461,77.557716 261.476044,78.063019 
	C241.269943,72.542412 220.847046,68.334618 200.811646,62.739361 
	C185.081329,58.346371 169.273071,57.855957 153.230377,58.099640 
	C142.408417,58.264023 131.580139,58.004215 120.757881,58.158478 
	C100.837723,58.442429 80.911537,58.670460 61.006927,59.424858 
	C55.925533,59.617447 50.726192,61.232906 45.982460,63.175076 
	C44.459747,63.798496 43.934853,67.531265 43.598709,69.931847 
	C43.509029,70.572296 45.780025,72.225098 47.005810,72.266342 
	C67.538261,72.957214 88.077484,73.443680 108.613800,74.024757 
	C118.533180,74.305428 128.448151,74.744011 138.367798,75.012329 
	C158.579712,75.559029 178.793457,76.038765 199.908325,76.547119 
M778.619263,66.997971 
	C763.973694,70.465767 749.328186,73.933563 736.266113,77.026413 
	C745.940796,77.026413 757.119263,77.224648 768.288208,76.982315 
	C787.484314,76.565811 806.673645,75.849655 825.867188,75.304779 
	C850.723022,74.599159 875.579041,73.890770 900.437195,73.274986 
	C916.374023,72.880196 932.315552,72.677460 948.252991,72.302811 
	C949.781799,72.266876 952.527039,71.782669 952.599976,71.229065 
	C952.884644,69.066628 953.021240,66.299255 951.887390,64.691757 
	C950.626282,62.903973 948.005554,61.279778 945.830017,61.064060 
	C933.481689,59.839622 921.097534,58.410160 908.710449,58.253841 
	C878.216736,57.869049 847.714844,58.137909 817.216248,58.148281 
	C816.052856,58.148678 814.835083,57.977139 813.734375,58.252453 
	C802.298096,61.113010 790.880676,64.048851 778.619263,66.997971 
M338.749420,122.129837 
	C342.903595,121.654121 347.057770,121.178398 351.211945,120.702682 
	C350.097778,119.843948 348.913605,119.543991 347.711151,119.370163 
	C333.199463,117.272324 318.701569,115.068398 304.165649,113.153107 
	C294.544586,111.885406 284.880035,110.356354 275.213104,110.185951 
	C264.501221,109.997139 253.766846,111.270599 243.037796,111.819839 
	C228.830231,112.547142 214.621323,113.261200 200.407593,113.851349 
	C180.246292,114.688446 160.079666,115.396393 139.917130,116.205154 
	C138.745560,116.252151 137.590332,116.707291 136.427505,116.972488 
	C144.446899,118.095787 152.334610,118.442116 160.194702,119.112198 
	C182.369781,121.002594 204.533203,123.029350 226.701843,124.995468 
	C238.026169,125.999809 249.349030,127.022446 260.677765,127.974846 
	C269.362610,128.704987 278.174316,130.574112 286.720001,129.753662 
	C303.863190,128.107773 320.863007,124.968987 338.749420,122.129837 
M836.999084,115.533020 
	C818.001343,114.617119 799.003418,113.704712 780.005920,112.784134 
	C766.609863,112.134979 753.219360,111.331253 739.816956,110.868431 
	C730.450623,110.544991 720.995667,109.909264 711.709717,110.785240 
	C696.134949,112.254456 680.658997,114.785599 665.150391,116.934448 
	C658.218018,117.894981 651.307312,119.011955 643.351807,120.214363 
	C658.917664,122.573212 673.305847,124.806236 687.712097,126.915672 
	C695.522461,128.059296 703.402588,130.071152 711.182617,129.790543 
	C726.289978,129.245621 741.347778,127.346657 756.428284,126.032692 
	C775.318237,124.386818 794.205872,122.711884 813.102844,121.149536 
	C828.527771,119.874245 843.964783,118.745934 859.396484,117.552452 
	C859.399414,116.993599 859.402344,116.434746 859.405212,115.875893 
	C852.231323,115.875893 845.057373,115.875893 836.999084,115.533020 
M751.382690,130.782562 
	C745.321289,131.361359 739.259888,131.940140 733.198425,132.518921 
	C740.958801,134.674881 748.581299,135.840317 756.210327,136.961655 
	C778.827576,140.285995 801.462280,143.495667 824.058044,146.959641 
	C831.946167,148.168884 839.338745,148.833160 846.625854,143.994934 
	C854.973633,138.452393 863.975708,133.901749 872.627380,128.807846 
	C877.457642,125.963921 882.153687,122.892067 888.095886,119.182838 
	C880.995911,119.878586 875.484131,120.481583 869.960938,120.949028 
	C846.219788,122.958321 822.475403,124.928207 798.732056,126.911613 
	C783.262085,128.203888 767.791931,129.494797 751.382690,130.782562 
M223.723236,139.124817 
	C236.088135,137.350906 248.453033,135.576981 260.817932,133.803070 
	C260.841217,133.283432 260.864532,132.763794 260.887817,132.244156 
	C210.447998,127.958267 160.008163,123.672379 109.374252,119.369995 
	C109.693588,119.964226 109.773949,120.386513 110.017372,120.527740 
	C124.735451,129.066635 139.370300,137.758224 154.278137,145.953110 
	C157.283401,147.605103 161.405396,148.173203 164.878738,147.841187 
	C173.851852,146.983444 182.754501,145.371567 191.677231,144.008148 
	C202.066483,142.420593 212.447144,140.776978 223.723236,139.124817 
M808.194580,150.036575 
	C809.328674,149.967773 810.462708,149.898987 811.838257,149.815536 
	C811.334045,149.427338 811.099609,149.095673 810.822571,149.055008 
	C786.409729,145.474182 762.020020,141.718872 737.567078,138.434967 
	C724.420715,136.669495 711.407532,133.515625 697.880920,135.132751 
	C685.381165,136.627106 672.774597,137.213669 660.224121,138.304291 
	C655.709595,138.696594 651.221497,139.392548 646.721313,139.949921 
	C654.660950,142.673096 662.586487,145.035324 670.628296,146.894836 
	C681.365051,149.377487 692.109802,152.656342 703.002380,153.411621 
	C715.014160,154.244492 727.192871,152.481689 739.306396,152.073044 
	C761.963745,151.308746 784.626587,150.705811 808.194580,150.036575 
M327.907501,137.935822 
	C322.781158,137.418350 317.665588,136.679077 312.526245,136.429230 
	C301.566345,135.896423 290.448761,134.307114 279.656738,135.503784 
	C256.282471,138.095642 233.071365,142.161057 209.795349,145.636063 
	C201.377396,146.892822 192.964630,148.184418 184.549484,149.460129 
	C184.564026,149.986923 184.578568,150.513702 184.593109,151.040497 
	C197.139236,151.040497 209.685745,150.982910 222.231354,151.063919 
	C228.852402,151.106659 235.474686,151.320358 242.091568,151.580032 
	C259.438721,152.260849 276.980927,154.951004 294.075684,153.210098 
	C312.922607,151.290741 331.357788,145.328354 349.972290,141.127121 
	C349.915558,140.635117 349.858826,140.143112 349.802063,139.651108 
	C342.805908,139.077972 335.809753,138.504837 327.907501,137.935822 
M315.522949,66.954094 
	C304.339722,64.315437 293.483582,60.436470 281.584412,61.158192 
	C271.326904,61.780334 260.984802,60.919811 250.679245,60.859512 
	C236.985626,60.779385 223.291168,60.839745 210.639542,60.839745 
	C227.345535,64.751160 245.165405,68.970032 263.009949,73.081902 
	C272.092194,75.174690 281.134796,77.910942 290.348022,78.836464 
	C300.340240,79.840256 310.515869,78.868195 320.600555,79.149673 
	C328.684662,79.375305 336.745117,80.396210 344.829529,80.678833 
	C352.692047,80.953705 360.571655,80.738525 368.443726,80.738525 
	C366.494354,79.849869 364.453217,79.376228 362.424225,78.855286 
	C347.064758,74.911736 331.707672,70.958908 315.522949,66.954094 
M741.617920,71.249504 
	C756.354126,67.749405 771.090271,64.249306 785.826477,60.749207 
	C784.130127,59.842197 782.544861,59.815777 780.960632,59.846203 
	C761.494934,60.220066 742.027039,60.514149 722.564880,61.025078 
	C714.633850,61.233288 706.547424,61.062038 698.829163,62.578011 
	C686.277649,65.043289 673.972595,68.761444 661.559875,71.936424 
	C650.757446,74.699524 639.949829,77.442749 629.144531,80.194771 
	C632.730835,80.775261 636.188782,80.863701 639.640991,80.760475 
	C657.857544,80.215790 676.090149,78.858765 694.283142,79.274651 
	C710.486023,79.645042 725.383667,74.472336 741.617920,71.249504 
M812.421021,161.979385 
	C816.963745,159.489487 821.506531,156.999573 826.049255,154.509659 
	C826.000671,154.228317 825.952026,153.946976 825.903442,153.665634 
	C788.372864,154.929932 750.842285,156.194214 713.344116,157.457413 
	C714.863831,158.000580 716.343628,158.663940 717.891602,159.062485 
	C739.063232,164.513382 760.241272,169.939178 781.430725,175.320282 
	C782.608643,175.619431 784.126587,175.939484 785.102234,175.463150 
	C794.011292,171.113312 802.835144,166.588989 812.421021,161.979385 
M179.568298,153.893814 
	C176.510223,153.893814 173.452133,153.893814 170.394058,153.893814 
	C182.681610,161.124954 195.058868,167.650833 207.615326,173.811447 
	C210.002060,174.982468 213.305969,175.569687 215.833298,174.960403 
	C232.534561,170.934006 249.138672,166.504776 265.775879,162.212357 
	C270.123016,161.090775 274.475311,159.988983 278.825226,158.878113 
	C278.782501,158.406036 278.739777,157.933960 278.697021,157.461868 
	C245.981323,156.271744 213.265610,155.081619 179.568298,153.893814 
M691.555969,174.810944 
	C713.874939,174.810944 736.193848,174.810944 758.512817,174.810944 
	C749.835632,171.797729 741.139954,169.033005 732.242065,167.316849 
	C716.933716,164.364288 702.555725,157.120468 686.291626,158.370819 
	C673.270142,159.371841 660.149902,159.073288 647.075378,159.424042 
	C645.835388,159.457306 644.609314,160.008835 642.867310,160.448273 
	C646.523193,161.930084 649.536194,163.166733 652.560730,164.374466 
	C664.841370,169.278275 676.587158,176.133057 691.555969,174.810944 
M299.491608,174.781982 
	C319.395599,177.477783 335.822601,167.320282 354.326935,160.005676 
	C350.845825,159.756058 348.575928,159.535599 346.300812,159.440231 
	C337.069824,159.053253 327.839630,158.516083 318.604553,158.401672 
	C311.215881,158.310104 303.616089,157.733246 296.472046,159.170914 
	C282.734497,161.935379 269.254486,165.978317 255.665573,169.483002 
	C249.232986,171.141998 242.795639,172.782425 234.991776,174.781952 
	C257.172394,174.781952 277.832855,174.781952 299.491608,174.781982 
M292.118073,185.680084 
	C297.009460,183.652893 301.900818,181.625702 306.216431,179.837128 
	C278.526978,179.837128 250.486618,179.837128 222.446259,179.837128 
	C234.618195,186.020172 246.797882,191.292313 259.101929,196.256195 
	C261.061920,197.046906 263.828674,197.118866 265.797791,196.384460 
	C274.427979,193.165756 282.902008,189.528290 292.118073,185.680084 
M707.489319,178.974899 
	C701.622559,178.974899 695.755737,178.974899 689.888977,178.974899 
	C699.460388,183.684494 709.372253,187.146194 718.710327,191.767563 
	C728.612244,196.667969 737.622986,198.494873 747.937439,192.283020 
	C755.947510,187.459045 765.114624,184.556305 773.767456,180.799637 
	C773.689819,180.191345 773.612244,179.583054 773.534607,178.974762 
	C751.850769,178.974762 730.166992,178.974762 707.489319,178.974899 
M363.769196,74.863579 
	C372.004242,76.878082 380.239258,78.892593 388.467987,80.905548 
	C393.209381,72.409943 390.838257,65.802414 381.498657,63.861538 
	C373.641022,62.228626 365.522400,61.351486 357.493713,61.147488 
	C341.499939,60.741100 325.488556,61.027134 310.228271,61.027134 
	C327.234283,65.416298 345.104431,70.028496 363.769196,74.863579 
M612.974792,64.122520 
	C604.938599,68.400299 603.440857,73.994194 608.449463,80.884949 
	C634.848999,74.185318 661.231873,67.489906 686.831238,60.993340 
	C672.012878,60.993340 656.580505,60.653526 641.172729,61.121498 
	C632.011414,61.399746 622.888611,62.949158 612.974792,64.122520 
M690.184631,195.113419 
	C699.652405,195.755524 709.120178,196.397644 718.587952,197.039764 
	C713.041992,194.072510 707.352112,191.711884 701.654785,189.369690 
	C687.391296,183.505981 673.609314,176.160645 657.191040,178.411987 
	C650.379700,179.345993 643.333496,178.566986 635.976562,178.566986 
	C643.734619,183.243576 651.118652,187.746780 658.567139,192.140732 
	C660.062134,193.022659 661.774414,193.969650 663.434204,194.066208 
	C672.024475,194.565964 680.630310,194.799271 690.184631,195.113419 
M289.936981,191.348251 
	C286.699829,192.707535 283.462677,194.066818 279.131622,195.885437 
	C281.130676,196.052795 281.905365,196.210648 282.668732,196.167725 
	C296.367584,195.397583 310.066986,194.634384 323.761749,193.796478 
	C328.366547,193.514740 333.550446,194.255386 337.433350,192.381454 
	C345.410156,188.531799 352.687531,183.232742 360.386993,178.446854 
	C347.635193,178.446854 335.248444,178.427811 322.862091,178.486084 
	C321.954895,178.490341 321.034698,179.013947 320.146973,179.363281 
	C310.308533,183.235123 300.475311,187.120209 289.936981,191.348251 
M373.477722,85.398781 
	C352.838654,84.898582 332.199554,84.398384 311.560486,83.898186 
	C332.832489,89.627441 354.148132,94.700500 375.493103,99.647049 
	C376.464722,99.872215 378.213501,99.294624 378.727173,98.515388 
	C381.313080,94.592438 383.608887,90.478256 386.216370,86.077011 
	C381.934387,85.830650 378.170074,85.614067 373.477722,85.398781 
M656.763367,91.303497 
	C666.095764,89.067108 675.428162,86.830719 684.760559,84.594330 
	C684.722595,84.337967 684.684631,84.081596 684.646667,83.825233 
	C660.054443,84.513840 635.462280,85.202454 610.123474,85.911964 
	C612.417603,89.610031 614.578430,92.322433 615.893433,95.396645 
	C617.787598,99.825127 620.964294,99.863762 624.757935,98.945168 
	C635.148071,96.429306 645.539673,93.919411 656.763367,91.303497 
M655.900757,106.981567 
	C644.951477,106.440338 634.002197,105.899109 622.265198,105.318939 
	C624.485840,109.642220 625.965698,112.928818 627.860840,115.955444 
	C628.399902,116.816460 630.214966,117.440956 631.329285,117.294502 
	C646.560059,115.292725 661.772827,113.152878 676.984009,111.004333 
	C680.010803,110.576813 683.012390,109.970467 686.025574,109.446579 
	C685.970581,109.052628 685.915649,108.658684 685.860657,108.264732 
	C676.174194,107.837143 666.487671,107.409554 655.900757,106.981567 
M372.337830,108.741653 
	C372.831726,107.861420 373.325653,106.981186 374.269226,105.299500 
	C352.344055,106.338737 331.267212,107.337769 310.190338,108.336800 
	C310.166870,108.745529 310.143402,109.154259 310.119904,109.562988 
	C329.312134,112.291718 348.504364,115.020447 367.798920,117.763725 
	C369.207245,114.997520 370.618774,112.225044 372.337830,108.741653 
M325.687408,197.924438 
	C308.465912,199.025314 291.244415,200.126175 274.022919,201.227051 
	C274.034821,201.689911 274.046692,202.152771 274.058594,202.615646 
	C280.106506,205.043945 286.359039,207.068512 292.149933,210.003891 
	C299.212219,213.583710 305.330780,213.767426 311.671021,208.379715 
	C316.233795,204.502426 321.520325,201.476883 325.687408,197.924438 
M664.635437,127.654861 
	C653.425598,126.076653 642.215759,124.498436 630.641174,122.868866 
	C631.982788,127.688553 633.122742,131.784012 634.388733,136.332169 
	C652.543701,134.823975 670.574829,133.326080 688.605957,131.828186 
	C688.614868,131.652740 688.623718,131.477295 688.632629,131.301865 
	C680.919373,130.174408 673.206177,129.046967 664.635437,127.654861 
M668.724182,203.742004 
	C665.327332,201.823105 662.040161,198.531235 658.512451,198.249283 
	C648.903748,197.481247 639.193359,197.985306 631.115112,197.985306 
	C644.292480,210.366074 661.919800,213.125473 681.462585,211.574051 
	C677.084717,208.821915 673.249512,206.410919 668.724182,203.742004 
M365.650909,124.154213 
	C364.858978,123.817413 364.015411,123.101768 363.282959,123.201530 
	C354.534088,124.393143 345.799561,125.691147 337.065674,126.990952 
	C327.357452,128.435760 317.653748,129.911118 307.948090,131.373184 
	C323.044525,133.085938 338.097290,134.450623 353.160492,135.687927 
	C361.885223,136.404541 361.893311,136.312408 364.413788,127.693588 
	C364.690918,126.745834 364.958160,125.795174 365.650909,124.154213 
M714.161011,200.999649 
	C699.611877,200.281662 685.062805,199.563675 669.382812,198.789886 
	C677.047974,203.537933 683.474915,207.689087 690.094727,211.505722 
	C691.857605,212.522125 694.530945,213.421631 696.239929,212.820801 
	C704.424561,209.943390 712.426514,206.544388 720.478271,203.293289 
	C721.337158,202.946518 722.097656,202.356094 723.523804,201.511566 
	C720.072266,201.303802 717.566284,201.152939 714.161011,200.999649 
M350.515625,209.990250 
	C348.215118,211.194641 346.024475,213.067017 343.591675,213.467300 
	C338.171936,214.359024 332.623871,214.442719 327.141968,214.993729 
	C322.824371,215.427704 318.527527,216.068115 314.221436,216.616852 
	C314.262512,217.075073 314.303589,217.533295 314.344666,217.991516 
	C319.524414,218.664352 324.717957,219.992554 329.881287,219.884033 
	C343.946686,219.588470 356.642609,214.201874 369.046936,208.111176 
	C371.540588,206.886795 375.246307,205.951355 375.988403,203.978271 
	C376.672882,202.158310 374.136444,199.118576 372.985352,196.631516 
	C372.886108,196.417114 372.537048,196.318329 372.252991,196.132462 
	C365.220367,200.637253 358.188263,205.141739 350.515625,209.990250 
M346.610626,196.663239 
	C343.985687,196.787659 340.892151,196.054764 338.818604,197.188065 
	C330.754547,201.595551 323.014282,206.595474 314.261871,211.917099 
	C340.152954,210.491638 352.694550,206.258759 363.353943,195.182404 
	C357.543396,195.690231 352.492432,196.131668 346.610626,196.663239 
M662.496094,155.003937 
	C667.885132,154.755890 673.274231,154.507843 678.663269,154.259796 
	C678.668884,153.974777 678.674438,153.689758 678.679993,153.404739 
	C664.213440,149.676254 649.746887,145.947784 634.978088,142.141388 
	C635.364990,146.656357 635.739929,151.031021 636.080750,155.008575 
	C644.704712,155.008575 653.102417,155.008575 662.496094,155.003937 
M350.096130,155.077515 
	C353.632935,155.406754 357.169739,155.735992 361.003845,156.092911 
	C361.003845,151.221252 361.003845,147.021744 361.003845,142.286697 
	C346.239746,146.100784 331.947571,149.792969 317.655396,153.485138 
	C317.638458,153.820786 317.621490,154.156433 317.604523,154.492096 
	C328.121765,154.687042 338.638977,154.881973 350.096130,155.077515 
M639.800293,213.859116 
	C653.435913,218.698639 667.127869,222.826355 682.726990,216.885208 
	C675.773132,216.389572 669.923340,215.929642 664.067566,215.565659 
	C655.932434,215.059998 647.918335,214.998962 640.823608,209.518021 
	C635.258118,205.218445 628.705688,202.196518 622.472107,198.536789 
	C621.153015,200.589859 620.126038,202.188370 618.797668,204.255905 
	C625.758850,207.412170 632.438782,210.440933 639.800293,213.859116 
M658.219238,174.100525 
	C659.697754,174.030701 661.176208,173.960876 663.858154,173.834213 
	C653.486938,169.605927 644.371033,165.889404 635.141541,162.126572 
	C634.444702,166.110535 633.800842,169.791626 633.047180,174.100693 
	C641.350464,174.100693 649.316223,174.100693 658.219238,174.100525 
M361.937378,173.638306 
	C361.937378,169.894638 361.937378,166.150986 361.937378,161.853165 
	C351.835510,165.990799 342.991699,169.613144 334.147888,173.235489 
	C334.215515,173.425507 334.283112,173.615524 334.350739,173.805542 
	C343.243286,173.805542 352.135834,173.805542 361.937378,173.638306 
M635.210510,183.255600 
	C633.857971,182.491714 632.505432,181.727829 630.963989,180.857254 
	C629.285339,184.720901 627.748901,188.257187 625.910339,192.488892 
	C634.092712,192.488892 641.847290,192.488892 650.304688,192.488892 
	C645.159973,189.365112 640.488098,186.528381 635.210510,183.255600 
M362.134705,191.098999 
	C364.482971,190.854065 366.831238,190.609131 369.511353,190.329575 
	C368.156799,187.176514 366.840424,184.112289 365.437256,180.846024 
	C359.537659,184.432938 353.833496,187.901016 346.964905,192.077087 
	C352.760193,191.677261 357.011963,191.383926 362.134705,191.098999 
z"/>
<path fill="#FBFBFB" opacity="1.000000" stroke="none" 
	d="
M147.999786,472.985199 
	C132.882462,472.985199 118.265060,472.985199 103.426361,472.985199 
	C103.426361,440.508942 103.426361,408.455597 103.426361,375.471710 
	C123.836922,376.014862 144.215744,375.187012 164.240952,377.466187 
	C185.277527,379.860382 190.025818,400.927460 182.950439,413.749725 
	C181.548843,416.289764 179.351944,418.390961 177.804947,420.338135 
	C181.367996,423.901489 186.118561,427.202606 188.915375,431.714752 
	C198.211319,446.712067 189.422760,467.683777 172.236588,471.266174 
	C164.539322,472.870636 156.424866,472.473816 147.999786,472.985199 
M158.149307,430.990173 
	C146.044647,430.990173 133.940002,430.990173 121.687485,430.990173 
	C121.687485,439.561615 121.687485,447.778625 121.687485,455.999084 
	C134.763153,455.999084 147.546265,456.257385 160.309540,455.866943 
	C165.147141,455.718964 169.694809,453.647095 171.936737,448.660004 
	C175.854294,439.945587 170.244873,432.372650 158.149307,430.990173 
M166.549789,405.185333 
	C166.213303,397.789856 162.834930,393.477203 155.559631,393.163666 
	C144.331009,392.679871 133.066177,393.036224 121.713058,393.036224 
	C121.713058,400.542664 121.713058,407.728546 121.713058,415.182770 
	C133.325638,415.182770 144.614380,415.297363 155.899139,415.134949 
	C161.636520,415.052368 164.798294,412.048920 166.549789,405.185333 
z"/>
<path fill="#FDFDFD" opacity="1.000000" stroke="none" 
	d="
M408.102722,425.997437 
	C408.102722,409.192963 408.102722,392.887970 408.102722,376.290161 
	C413.861694,376.290161 419.411835,376.290161 425.098999,376.290161 
	C425.098999,408.410217 425.098999,440.364471 425.098999,472.970337 
	C420.238556,472.970337 415.308167,473.039673 410.383636,472.900818 
	C409.580994,472.878174 408.623993,472.087250 408.042206,471.395752 
	C396.342834,457.489624 384.733643,443.507446 373.006470,429.624939 
	C366.320312,421.709930 359.456177,413.945251 352.087646,405.437988 
	C352.087646,428.300415 352.087646,450.332947 352.087646,472.671997 
	C346.284576,472.671997 340.873810,472.671997 335.127411,472.671997 
	C335.127411,440.750977 335.127411,408.689117 335.127411,375.999451 
	C339.599792,375.999451 344.400421,375.719879 349.135864,376.152924 
	C350.767090,376.302094 352.541473,377.969879 353.732910,379.380920 
	C371.033752,399.871338 388.249451,420.433685 405.468353,440.993195 
	C406.065277,441.705902 406.484283,442.567596 406.986237,443.359802 
	C407.358398,443.151764 407.730560,442.943756 408.102722,442.735748 
	C408.102722,437.322784 408.102722,431.909851 408.102722,425.997437 
z"/>
<path fill="#FCFCFC" opacity="1.000000" stroke="none" 
	d="
M707.007080,431.947937 
	C702.521790,431.947937 698.535522,431.947937 694.207153,431.947937 
	C694.207153,439.836060 694.207153,447.579620 694.207153,455.828339 
	C715.351562,455.828339 736.746704,455.828339 758.362915,455.828339 
	C758.362915,461.745148 758.362915,467.159302 758.362915,472.778351 
	C730.574951,472.778351 703.005615,472.778351 675.235840,472.778351 
	C675.235840,440.628479 675.235840,408.682953 675.235840,376.365479 
	C702.441406,376.365479 729.798767,376.365479 757.240112,376.365479 
	C757.240112,381.822479 757.240112,387.241119 757.240112,392.853516 
	C736.155273,392.853516 715.354919,392.853516 694.209839,392.853516 
	C694.209839,400.252441 694.209839,407.461853 694.209839,415.100220 
	C708.280579,415.100220 722.355225,415.100220 736.690613,415.100220 
	C736.690613,420.774139 736.690613,426.033875 736.690613,431.947937 
	C727.020874,431.947937 717.263428,431.947937 707.007080,431.947937 
z"/>
<path fill="#FDFDFD" opacity="1.000000" stroke="none" 
	d="
M247.057449,431.945435 
	C244.777390,431.945435 242.989807,431.945435 241.040619,431.945435 
	C241.040619,440.116730 241.040619,447.850311 241.040619,455.929749 
	C262.648163,455.929749 284.063995,455.929749 305.731934,455.929749 
	C305.731934,461.671448 305.731934,467.072723 305.731934,472.729645 
	C278.136169,472.729645 250.585800,472.729645 222.861908,472.729645 
	C222.861908,440.514404 222.861908,408.457764 222.861908,376.198456 
	C250.090271,376.198456 277.200073,376.198456 304.646362,376.198456 
	C304.646362,381.482117 304.646362,386.881348 304.646362,392.822693 
	C283.587372,392.822693 262.387695,392.822693 241.020248,392.822693 
	C241.020248,400.445343 241.020248,407.531586 241.020248,415.004150 
	C255.384430,415.004150 269.637207,415.004150 284.173889,415.004150 
	C284.173889,420.809204 284.173889,426.230682 284.173889,431.945435 
	C271.822601,431.945435 259.686279,431.945435 247.057449,431.945435 
z"/>
<path fill="#FBFBFB" opacity="1.000000" stroke="none" 
	d="
M872.588257,402.546265 
	C865.115356,411.780334 857.788757,420.671265 850.687927,429.739014 
	C849.505432,431.249115 848.766907,433.521423 848.739868,435.454346 
	C848.567505,447.759460 848.652100,460.068146 848.652100,472.679779 
	C842.109985,472.679779 835.896118,472.679779 829.212708,472.679779 
	C829.212708,461.305176 828.894104,450.009277 829.349670,438.744690 
	C829.571106,433.267792 827.485535,429.494720 824.168396,425.515350 
	C810.634277,409.279541 797.377930,392.812195 783.661987,375.992065 
	C789.536316,375.992065 794.684204,376.349670 799.758057,375.890228 
	C804.705261,375.442230 807.551819,377.687103 810.444702,381.301941 
	C819.832642,393.032806 829.541565,404.506775 839.360474,416.361694 
	C847.501892,406.311737 855.381470,396.596283 863.246216,386.868835 
	C865.219299,384.428436 867.168823,381.968079 869.086121,379.483704 
	C871.008789,376.992126 873.215088,375.665436 876.651001,375.895966 
	C882.044861,376.257874 887.480835,375.992065 893.830505,375.992065 
	C886.402649,385.275085 879.606384,393.768738 872.588257,402.546265 
z"/>
<path fill="#FAFAFA" opacity="1.000000" stroke="none" 
	d="
M504.837158,472.986755 
	C499.540436,472.987061 494.729431,472.987061 489.551086,472.987061 
	C489.551086,446.300385 489.551086,419.887482 489.551086,393.022369 
	C477.448303,393.022369 465.703918,393.022369 453.695374,393.022369 
	C453.695374,387.163696 453.695374,381.756805 453.695374,376.168457 
	C483.619965,376.168457 513.392456,376.168457 543.489136,376.168457 
	C543.489136,381.491180 543.489136,386.876465 543.489136,392.627167 
	C531.886353,392.627167 520.301453,392.627167 508.006256,392.627167 
	C508.006256,394.727753 508.006256,396.476166 508.006226,398.224579 
	C508.006195,421.704407 508.028442,445.184265 507.961853,468.663910 
	C507.956787,470.448334 509.279480,473.446625 504.837158,472.986755 
z"/>
<path fill="#FCFCFC" opacity="1.000000" stroke="none" 
	d="
M587.917847,430.000061 
	C587.917847,438.803436 587.917847,447.106812 587.917847,455.795105 
	C608.010254,455.795105 627.910706,455.795105 648.136047,455.795105 
	C648.136047,461.557281 648.136047,466.947937 648.136047,472.662964 
	C622.013367,472.662964 595.829773,472.662964 569.356812,472.662964 
	C569.356812,440.697510 569.356812,408.662537 569.356812,376.311218 
	C575.280334,376.311218 581.336487,376.311218 587.917847,376.311218 
	C587.917847,394.009766 587.917847,411.754883 587.917847,430.000061 
z"/>
<path fill="#010101" opacity="1.000000" stroke="none" 
	d="
M572.729370,221.821655 
	C552.403625,233.640381 530.794189,239.773514 507.723145,241.035446 
	C471.419220,243.021194 437.989075,234.860367 409.551941,211.482391 
	C392.887451,197.782608 381.668152,180.531677 379.686798,158.031479 
	C377.860535,137.292526 384.684814,119.752617 397.954468,104.617661 
	C420.815826,78.542747 450.829346,67.231468 484.586639,63.888630 
	C511.780365,61.195759 537.831848,65.597229 562.321777,77.217720 
	C585.270752,88.107010 603.861755,104.145050 612.959534,128.814636 
	C621.674683,152.446686 617.360901,174.432632 602.887329,194.593781 
	C594.910278,205.705521 584.672852,214.474899 572.729370,221.821655 
M428.092377,206.455139 
	C433.621002,209.563110 438.942444,213.139252 444.715942,215.693802 
	C464.273987,224.347473 485.006836,226.974030 506.172211,226.211517 
	C521.216797,225.669510 535.844666,223.134796 549.540100,216.104858 
	C575.294495,202.885010 580.752136,172.345001 555.002319,153.199692 
	C552.645081,151.447037 550.283081,149.700821 547.617371,147.724854 
	C550.465393,145.665451 552.865479,143.733658 555.450928,142.094162 
	C566.832275,134.876953 570.890564,120.503899 565.868042,108.159042 
	C560.538208,95.058777 549.442444,88.420074 536.796448,84.065697 
	C517.150208,77.300949 496.908386,77.231155 476.655182,80.051041 
	C458.160278,82.626129 440.530701,88.028687 426.408386,101.044952 
	C419.612976,107.308167 417.024933,108.113388 425.455597,114.939919 
	C428.031738,117.025894 429.242462,119.395020 429.208954,122.979424 
	C429.017578,143.470367 429.224792,163.964981 429.053650,184.456314 
	C429.035492,186.630722 427.971924,189.293747 426.484467,190.875336 
	C418.653351,199.201920 418.552002,199.106598 428.092377,206.455139 
z"/>
<path fill="#010101" opacity="1.000000" stroke="none" 
	d="
M608.219666,217.136307 
	C609.395935,215.706009 610.308350,214.524963 611.205139,213.364136 
	C617.343994,216.637268 622.811829,219.552612 628.297791,222.477615 
	C577.781555,289.897766 438.922729,306.085571 367.655548,222.824203 
	C373.366516,219.798126 378.970551,216.828690 384.524872,213.885605 
	C390.956421,219.369873 397.163666,225.041367 403.762177,230.213638 
	C419.318237,242.407394 437.289856,249.676178 456.210480,254.603210 
	C470.473907,258.317505 485.138428,260.042633 499.849152,259.779510 
	C533.043457,259.185730 563.947205,250.443649 591.568787,231.657913 
	C597.515869,227.613205 602.518311,222.179459 608.219666,217.136307 
z"/>
<path fill="#030303" opacity="1.000000" stroke="none" 
	d="
M104.988518,78.166656 
	C121.251961,78.509491 137.020996,78.791748 152.787033,79.192123 
	C177.814987,79.827721 202.841476,80.522240 227.867523,81.229851 
	C246.763962,81.764153 265.699036,81.800896 284.536957,83.163841 
	C293.741333,83.829788 302.778412,86.950447 311.864746,89.073280 
	C327.191467,92.654053 342.497894,96.321785 357.807709,99.974365 
	C358.232422,100.075684 358.598938,100.420860 359.640442,101.033272 
	C358.306641,101.478607 357.543945,101.932556 356.764008,101.964447 
	C338.435211,102.713547 320.010376,102.502609 301.799774,104.377388 
	C282.252258,106.389801 263.419098,102.945793 244.374527,100.230095 
	C222.942062,97.173897 201.474503,94.364365 180.036957,91.343018 
	C160.057709,88.527206 140.103851,85.531448 120.126755,82.700081 
	C110.542755,81.341736 100.930893,80.180016 91.405937,78.159058 
	C95.768219,78.159058 100.130493,78.159058 104.988518,78.166656 
z"/>
<path fill="#030303" opacity="1.000000" stroke="none" 
	d="
M864.606323,84.561516 
	C833.817993,89.049294 803.436340,93.448959 773.018982,97.587051 
	C752.917725,100.321724 732.817139,104.057320 712.621094,104.817894 
	C692.728882,105.567032 672.719238,103.076355 652.755371,102.129494 
	C647.555908,101.882889 642.334778,102.092361 637.123596,102.092361 
	C637.052307,101.632591 636.981018,101.172813 636.909790,100.713043 
	C638.452637,100.217300 639.969666,99.611702 641.542236,99.242432 
	C662.819336,94.245926 683.974365,88.586304 705.438110,84.584412 
	C717.364502,82.360741 729.803955,82.802589 742.021851,82.261322 
	C749.337708,81.937210 756.674866,82.127373 763.997620,81.917763 
	C772.432495,81.676331 780.859314,81.136551 789.294617,80.926323 
	C805.741516,80.516418 822.194946,80.350357 838.640259,79.891319 
	C859.697754,79.303558 880.749878,78.520203 901.805054,77.845467 
	C903.097595,77.804054 904.396973,77.975716 905.749878,78.793991 
	C892.165833,80.650078 878.581848,82.506165 864.606323,84.561516 
z"/>
<path fill="#020202" opacity="1.000000" stroke="none" 
	d="
M213.638092,100.301704 
	C227.857147,102.337784 241.626358,104.361801 255.395554,106.385818 
	C255.398880,106.494019 255.402206,106.602226 255.405548,106.710426 
	C243.320953,107.239326 231.233597,107.711998 219.152420,108.309784 
	C199.027435,109.305595 178.907944,110.412964 158.783112,111.412018 
	C146.735931,112.010078 134.681900,112.469055 122.633026,113.034782 
	C116.549561,113.320404 110.472359,113.898605 104.388985,113.950310 
	C101.884193,113.971603 98.937904,113.617958 96.930481,112.305771 
	C82.770477,103.049858 68.760658,93.561134 54.812061,83.987679 
	C52.292625,82.258499 50.276703,79.795685 47.381699,77.060692 
	C103.336464,84.899773 158.262344,92.594704 213.638092,100.301704 
z"/>
<path fill="#020202" opacity="1.000000" stroke="none" 
	d="
M861.859863,112.521011 
	C850.817261,112.021889 840.259827,111.579979 829.709900,111.001305 
	C813.571045,110.116074 797.447510,108.841888 781.298401,108.289055 
	C768.087708,107.836830 754.849121,108.196983 741.622925,108.196983 
	C741.606384,107.557549 741.589905,106.918114 741.573364,106.278679 
	C810.582336,96.554832 879.591248,86.830986 948.600220,77.107132 
	C948.810181,77.396996 949.020081,77.686859 949.230042,77.976723 
	C942.385437,83.262047 935.774109,88.889931 928.638794,93.748383 
	C919.132141,100.221504 909.289856,106.216156 899.421021,112.131432 
	C897.323364,113.388725 894.475952,113.981987 891.999329,113.916885 
	C882.110229,113.656967 872.231140,113.016556 861.859863,112.521011 
z"/>
<path fill="#040404" opacity="1.000000" stroke="none" 
	d="
M199.457382,76.546608 
	C178.793457,76.038765 158.579712,75.559029 138.367798,75.012329 
	C128.448151,74.744011 118.533180,74.305428 108.613800,74.024757 
	C88.077484,73.443680 67.538261,72.957214 47.005810,72.266342 
	C45.780025,72.225098 43.509029,70.572296 43.598709,69.931847 
	C43.934853,67.531265 44.459747,63.798496 45.982460,63.175076 
	C50.726192,61.232906 55.925533,59.617447 61.006927,59.424858 
	C80.911537,58.670460 100.837723,58.442429 120.757881,58.158478 
	C131.580139,58.004215 142.408417,58.264023 153.230377,58.099640 
	C169.273071,57.855957 185.081329,58.346371 200.811646,62.739361 
	C220.847046,68.334618 241.269943,72.542412 261.476044,78.063019 
	C240.953461,77.557716 220.430893,77.052422 199.457382,76.546608 
z"/>
<path fill="#040404" opacity="1.000000" stroke="none" 
	d="
M779.038635,66.980888 
	C790.880676,64.048851 802.298096,61.113010 813.734375,58.252453 
	C814.835083,57.977139 816.052856,58.148678 817.216248,58.148281 
	C847.714844,58.137909 878.216736,57.869049 908.710449,58.253841 
	C921.097534,58.410160 933.481689,59.839622 945.830017,61.064060 
	C948.005554,61.279778 950.626282,62.903973 951.887390,64.691757 
	C953.021240,66.299255 952.884644,69.066628 952.599976,71.229065 
	C952.527039,71.782669 949.781799,72.266876 948.252991,72.302811 
	C932.315552,72.677460 916.374023,72.880196 900.437195,73.274986 
	C875.579041,73.890770 850.723022,74.599159 825.867188,75.304779 
	C806.673645,75.849655 787.484314,76.565811 768.288208,76.982315 
	C757.119263,77.224648 745.940796,77.026413 736.266113,77.026413 
	C749.328186,73.933563 763.973694,70.465767 779.038635,66.980888 
z"/>
<path fill="#030303" opacity="1.000000" stroke="none" 
	d="
M338.335693,122.288116 
	C320.863007,124.968987 303.863190,128.107773 286.720001,129.753662 
	C278.174316,130.574112 269.362610,128.704987 260.677765,127.974846 
	C249.349030,127.022446 238.026169,125.999809 226.701843,124.995468 
	C204.533203,123.029350 182.369781,121.002594 160.194702,119.112198 
	C152.334610,118.442116 144.446899,118.095787 136.427505,116.972488 
	C137.590332,116.707291 138.745560,116.252151 139.917130,116.205154 
	C160.079666,115.396393 180.246292,114.688446 200.407593,113.851349 
	C214.621323,113.261200 228.830231,112.547142 243.037796,111.819839 
	C253.766846,111.270599 264.501221,109.997139 275.213104,110.185951 
	C284.880035,110.356354 294.544586,111.885406 304.165649,113.153107 
	C318.701569,115.068398 333.199463,117.272324 347.711151,119.370163 
	C348.913605,119.543991 350.097778,119.843948 351.211945,120.702682 
	C347.057770,121.178398 342.903595,121.654121 338.335693,122.288116 
z"/>
<path fill="#030303" opacity="1.000000" stroke="none" 
	d="
M837.441284,115.704453 
	C845.057373,115.875893 852.231323,115.875893 859.405212,115.875893 
	C859.402344,116.434746 859.399414,116.993599 859.396484,117.552452 
	C843.964783,118.745934 828.527771,119.874245 813.102844,121.149536 
	C794.205872,122.711884 775.318237,124.386818 756.428284,126.032692 
	C741.347778,127.346657 726.289978,129.245621 711.182617,129.790543 
	C703.402588,130.071152 695.522461,128.059296 687.712097,126.915672 
	C673.305847,124.806236 658.917664,122.573212 643.351807,120.214363 
	C651.307312,119.011955 658.218018,117.894981 665.150391,116.934448 
	C680.658997,114.785599 696.134949,112.254456 711.709717,110.785240 
	C720.995667,109.909264 730.450623,110.544991 739.816956,110.868431 
	C753.219360,111.331253 766.609863,112.134979 780.005920,112.784134 
	C799.003418,113.704712 818.001343,114.617119 837.441284,115.704453 
z"/>
<path fill="#030303" opacity="1.000000" stroke="none" 
	d="
M751.852295,130.784439 
	C767.791931,129.494797 783.262085,128.203888 798.732056,126.911613 
	C822.475403,124.928207 846.219788,122.958321 869.960938,120.949028 
	C875.484131,120.481583 880.995911,119.878586 888.095886,119.182838 
	C882.153687,122.892067 877.457642,125.963921 872.627380,128.807846 
	C863.975708,133.901749 854.973633,138.452393 846.625854,143.994934 
	C839.338745,148.833160 831.946167,148.168884 824.058044,146.959641 
	C801.462280,143.495667 778.827576,140.285995 756.210327,136.961655 
	C748.581299,135.840317 740.958801,134.674881 733.198425,132.518921 
	C739.259888,131.940140 745.321289,131.361359 751.852295,130.784439 
z"/>
<path fill="#030303" opacity="1.000000" stroke="none" 
	d="
M223.277390,139.141251 
	C212.447144,140.776978 202.066483,142.420593 191.677231,144.008148 
	C182.754501,145.371567 173.851852,146.983444 164.878738,147.841187 
	C161.405396,148.173203 157.283401,147.605103 154.278137,145.953110 
	C139.370300,137.758224 124.735451,129.066635 110.017372,120.527740 
	C109.773949,120.386513 109.693588,119.964226 109.374252,119.369995 
	C160.008163,123.672379 210.447998,127.958267 260.887817,132.244156 
	C260.864532,132.763794 260.841217,133.283432 260.817932,133.803070 
	C248.453033,135.576981 236.088135,137.350906 223.277390,139.141251 
z"/>
<path fill="#060606" opacity="1.000000" stroke="none" 
	d="
M807.740845,150.036148 
	C784.626587,150.705811 761.963745,151.308746 739.306396,152.073044 
	C727.192871,152.481689 715.014160,154.244492 703.002380,153.411621 
	C692.109802,152.656342 681.365051,149.377487 670.628296,146.894836 
	C662.586487,145.035324 654.660950,142.673096 646.721313,139.949921 
	C651.221497,139.392548 655.709595,138.696594 660.224121,138.304291 
	C672.774597,137.213669 685.381165,136.627106 697.880920,135.132751 
	C711.407532,133.515625 724.420715,136.669495 737.567078,138.434967 
	C762.020020,141.718872 786.409729,145.474182 810.822571,149.055008 
	C811.099609,149.095673 811.334045,149.427338 811.838257,149.815536 
	C810.462708,149.898987 809.328674,149.967773 807.740845,150.036148 
z"/>
<path fill="#050505" opacity="1.000000" stroke="none" 
	d="
M328.360535,137.933762 
	C335.809753,138.504837 342.805908,139.077972 349.802063,139.651108 
	C349.858826,140.143112 349.915558,140.635117 349.972290,141.127121 
	C331.357788,145.328354 312.922607,151.290741 294.075684,153.210098 
	C276.980927,154.951004 259.438721,152.260849 242.091568,151.580032 
	C235.474686,151.320358 228.852402,151.106659 222.231354,151.063919 
	C209.685745,150.982910 197.139236,151.040497 184.593109,151.040497 
	C184.578568,150.513702 184.564026,149.986923 184.549484,149.460129 
	C192.964630,148.184418 201.377396,146.892822 209.795349,145.636063 
	C233.071365,142.161057 256.282471,138.095642 279.656738,135.503784 
	C290.448761,134.307114 301.566345,135.896423 312.526245,136.429230 
	C317.665588,136.679077 322.781158,137.418350 328.360535,137.933762 
z"/>
<path fill="#050505" opacity="1.000000" stroke="none" 
	d="
M315.936401,66.981537 
	C331.707672,70.958908 347.064758,74.911736 362.424225,78.855286 
	C364.453217,79.376228 366.494354,79.849869 368.443726,80.738525 
	C360.571655,80.738525 352.692047,80.953705 344.829529,80.678833 
	C336.745117,80.396210 328.684662,79.375305 320.600555,79.149673 
	C310.515869,78.868195 300.340240,79.840256 290.348022,78.836464 
	C281.134796,77.910942 272.092194,75.174690 263.009949,73.081902 
	C245.165405,68.970032 227.345535,64.751160 210.639542,60.839745 
	C223.291168,60.839745 236.985626,60.779385 250.679245,60.859512 
	C260.984802,60.919811 271.326904,61.780334 281.584412,61.158192 
	C293.483582,60.436470 304.339722,64.315437 315.936401,66.981537 
z"/>
<path fill="#050505" opacity="1.000000" stroke="none" 
	d="
M741.193237,71.234024 
	C725.383667,74.472336 710.486023,79.645042 694.283142,79.274651 
	C676.090149,78.858765 657.857544,80.215790 639.640991,80.760475 
	C636.188782,80.863701 632.730835,80.775261 629.144531,80.194771 
	C639.949829,77.442749 650.757446,74.699524 661.559875,71.936424 
	C673.972595,68.761444 686.277649,65.043289 698.829163,62.578011 
	C706.547424,61.062038 714.633850,61.233288 722.564880,61.025078 
	C742.027039,60.514149 761.494934,60.220066 780.960632,59.846203 
	C782.544861,59.815777 784.130127,59.842197 785.826477,60.749207 
	C771.090271,64.249306 756.354126,67.749405 741.193237,71.234024 
z"/>
<path fill="#040404" opacity="1.000000" stroke="none" 
	d="
M812.052490,162.047485 
	C802.835144,166.588989 794.011292,171.113312 785.102234,175.463150 
	C784.126587,175.939484 782.608643,175.619431 781.430725,175.320282 
	C760.241272,169.939178 739.063232,164.513382 717.891602,159.062485 
	C716.343628,158.663940 714.863831,158.000580 713.344116,157.457413 
	C750.842285,156.194214 788.372864,154.929932 825.903442,153.665634 
	C825.952026,153.946976 826.000671,154.228317 826.049255,154.509659 
	C821.506531,156.999573 816.963745,159.489487 812.052490,162.047485 
z"/>
<path fill="#030303" opacity="1.000000" stroke="none" 
	d="
M180.059097,153.892654 
	C213.265610,155.081619 245.981323,156.271744 278.697021,157.461868 
	C278.739777,157.933960 278.782501,158.406036 278.825226,158.878113 
	C274.475311,159.988983 270.123016,161.090775 265.775879,162.212357 
	C249.138672,166.504776 232.534561,170.934006 215.833298,174.960403 
	C213.305969,175.569687 210.002060,174.982468 207.615326,173.811447 
	C195.058868,167.650833 182.681610,161.124954 170.394058,153.893814 
	C173.452133,153.893814 176.510223,153.893814 180.059097,153.892654 
z"/>
<path fill="#050505" opacity="1.000000" stroke="none" 
	d="
M691.066162,174.814697 
	C676.587158,176.133057 664.841370,169.278275 652.560730,164.374466 
	C649.536194,163.166733 646.523193,161.930084 642.867310,160.448273 
	C644.609314,160.008835 645.835388,159.457306 647.075378,159.424042 
	C660.149902,159.073288 673.270142,159.371841 686.291626,158.370819 
	C702.555725,157.120468 716.933716,164.364288 732.242065,167.316849 
	C741.139954,169.033005 749.835632,171.797729 758.512817,174.810944 
	C736.193848,174.810944 713.874939,174.810944 691.066162,174.814697 
z"/>
<path fill="#040404" opacity="1.000000" stroke="none" 
	d="
M298.992432,174.781967 
	C277.832855,174.781952 257.172394,174.781952 234.991776,174.781952 
	C242.795639,172.782425 249.232986,171.141998 255.665573,169.483002 
	C269.254486,165.978317 282.734497,161.935379 296.472046,159.170914 
	C303.616089,157.733246 311.215881,158.310104 318.604553,158.401672 
	C327.839630,158.516083 337.069824,159.053253 346.300812,159.440231 
	C348.575928,159.535599 350.845825,159.756058 354.326935,160.005676 
	C335.822601,167.320282 319.395599,177.477783 298.992432,174.781967 
z"/>
<path fill="#040404" opacity="1.000000" stroke="none" 
	d="
M291.775391,185.861404 
	C282.902008,189.528290 274.427979,193.165756 265.797791,196.384460 
	C263.828674,197.118866 261.061920,197.046906 259.101929,196.256195 
	C246.797882,191.292313 234.618195,186.020172 222.446259,179.837128 
	C250.486618,179.837128 278.526978,179.837128 306.216431,179.837128 
	C301.900818,181.625702 297.009460,183.652893 291.775391,185.861404 
z"/>
<path fill="#030303" opacity="1.000000" stroke="none" 
	d="
M707.986206,178.974823 
	C730.166992,178.974762 751.850769,178.974762 773.534607,178.974762 
	C773.612244,179.583054 773.689819,180.191345 773.767456,180.799637 
	C765.114624,184.556305 755.947510,187.459045 747.937439,192.283020 
	C737.622986,198.494873 728.612244,196.667969 718.710327,191.767563 
	C709.372253,187.146194 699.460388,183.684494 689.888977,178.974899 
	C695.755737,178.974899 701.622559,178.974899 707.986206,178.974823 
z"/>
<path fill="#050505" opacity="1.000000" stroke="none" 
	d="
M363.371887,74.752136 
	C345.104431,70.028496 327.234283,65.416298 310.228271,61.027134 
	C325.488556,61.027134 341.499939,60.741100 357.493713,61.147488 
	C365.522400,61.351486 373.641022,62.228626 381.498657,63.861538 
	C390.838257,65.802414 393.209381,72.409943 388.467987,80.905548 
	C380.239258,78.892593 372.004242,76.878082 363.371887,74.752136 
z"/>
<path fill="#050505" opacity="1.000000" stroke="none" 
	d="
M613.361694,64.024796 
	C622.888611,62.949158 632.011414,61.399746 641.172729,61.121498 
	C656.580505,60.653526 672.012878,60.993340 686.831238,60.993340 
	C661.231873,67.489906 634.848999,74.185318 608.449463,80.884949 
	C603.440857,73.994194 604.938599,68.400299 613.361694,64.024796 
z"/>
<path fill="#040404" opacity="1.000000" stroke="none" 
	d="
M689.707642,195.119446 
	C680.630310,194.799271 672.024475,194.565964 663.434204,194.066208 
	C661.774414,193.969650 660.062134,193.022659 658.567139,192.140732 
	C651.118652,187.746780 643.734619,183.243576 635.976562,178.566986 
	C643.333496,178.566986 650.379700,179.345993 657.191040,178.411987 
	C673.609314,176.160645 687.391296,183.505981 701.654785,189.369690 
	C707.352112,191.711884 713.041992,194.072510 718.587952,197.039764 
	C709.120178,196.397644 699.652405,195.755524 689.707642,195.119446 
z"/>
<path fill="#040404" opacity="1.000000" stroke="none" 
	d="
M290.288818,191.174988 
	C300.475311,187.120209 310.308533,183.235123 320.146973,179.363281 
	C321.034698,179.013947 321.954895,178.490341 322.862091,178.486084 
	C335.248444,178.427811 347.635193,178.446854 360.386993,178.446854 
	C352.687531,183.232742 345.410156,188.531799 337.433350,192.381454 
	C333.550446,194.255386 328.366547,193.514740 323.761749,193.796478 
	C310.066986,194.634384 296.367584,195.397583 282.668732,196.167725 
	C281.905365,196.210648 281.130676,196.052795 279.131622,195.885437 
	C283.462677,194.066818 286.699829,192.707535 290.288818,191.174988 
z"/>
<path fill="#080808" opacity="1.000000" stroke="none" 
	d="
M373.941711,85.398132 
	C378.170074,85.614067 381.934387,85.830650 386.216370,86.077011 
	C383.608887,90.478256 381.313080,94.592438 378.727173,98.515388 
	C378.213501,99.294624 376.464722,99.872215 375.493103,99.647049 
	C354.148132,94.700500 332.832489,89.627441 311.560486,83.898186 
	C332.199554,84.398384 352.838654,84.898582 373.941711,85.398132 
z"/>
<path fill="#080808" opacity="1.000000" stroke="none" 
	d="
M656.347046,91.355316 
	C645.539673,93.919411 635.148071,96.429306 624.757935,98.945168 
	C620.964294,99.863762 617.787598,99.825127 615.893433,95.396645 
	C614.578430,92.322433 612.417603,89.610031 610.123474,85.911964 
	C635.462280,85.202454 660.054443,84.513840 684.646667,83.825233 
	C684.684631,84.081596 684.722595,84.337967 684.760559,84.594330 
	C675.428162,86.830719 666.095764,89.067108 656.347046,91.355316 
z"/>
<path fill="#060606" opacity="1.000000" stroke="none" 
	d="
M656.350952,106.981766 
	C666.487671,107.409554 676.174194,107.837143 685.860657,108.264732 
	C685.915649,108.658684 685.970581,109.052628 686.025574,109.446579 
	C683.012390,109.970467 680.010803,110.576813 676.984009,111.004333 
	C661.772827,113.152878 646.560059,115.292725 631.329285,117.294502 
	C630.214966,117.440956 628.399902,116.816460 627.860840,115.955444 
	C625.965698,112.928818 624.485840,109.642220 622.265198,105.318939 
	C634.002197,105.899109 644.951477,106.440338 656.350952,106.981766 
z"/>
<path fill="#050505" opacity="1.000000" stroke="none" 
	d="
M372.184082,109.097107 
	C370.618774,112.225044 369.207245,114.997520 367.798920,117.763725 
	C348.504364,115.020447 329.312134,112.291718 310.119904,109.562988 
	C310.143402,109.154259 310.166870,108.745529 310.190338,108.336800 
	C331.267212,107.337769 352.344055,106.338737 374.269226,105.299500 
	C373.325653,106.981186 372.831726,107.861420 372.184082,109.097107 
z"/>
<path fill="#030303" opacity="1.000000" stroke="none" 
	d="
M326.085724,197.997925 
	C321.520325,201.476883 316.233795,204.502426 311.671021,208.379715 
	C305.330780,213.767426 299.212219,213.583710 292.149933,210.003891 
	C286.359039,207.068512 280.106506,205.043945 274.058594,202.615646 
	C274.046692,202.152771 274.034821,201.689911 274.022919,201.227051 
	C291.244415,200.126175 308.465912,199.025314 326.085724,197.997925 
z"/>
<path fill="#080808" opacity="1.000000" stroke="none" 
	d="
M665.064209,127.787186 
	C673.206177,129.046967 680.919373,130.174408 688.632629,131.301865 
	C688.623718,131.477295 688.614868,131.652740 688.605957,131.828186 
	C670.574829,133.326080 652.543701,134.823975 634.388733,136.332169 
	C633.122742,131.784012 631.982788,127.688553 630.641174,122.868866 
	C642.215759,124.498436 653.425598,126.076653 665.064209,127.787186 
z"/>
<path fill="#040404" opacity="1.000000" stroke="none" 
	d="
M669.069214,203.870972 
	C673.249512,206.410919 677.084717,208.821915 681.462585,211.574051 
	C661.919800,213.125473 644.292480,210.366074 631.115112,197.985306 
	C639.193359,197.985306 648.903748,197.481247 658.512451,198.249283 
	C662.040161,198.531235 665.327332,201.823105 669.069214,203.870972 
z"/>
<path fill="#060606" opacity="1.000000" stroke="none" 
	d="
M365.440460,124.500046 
	C364.958160,125.795174 364.690918,126.745834 364.413788,127.693588 
	C361.893311,136.312408 361.885223,136.404541 353.160492,135.687927 
	C338.097290,134.450623 323.044525,133.085938 307.948090,131.373184 
	C317.653748,129.911118 327.357452,128.435760 337.065674,126.990952 
	C345.799561,125.691147 354.534088,124.393143 363.282959,123.201530 
	C364.015411,123.101768 364.858978,123.817413 365.440460,124.500046 
z"/>
<path fill="#030303" opacity="1.000000" stroke="none" 
	d="
M714.610596,201.000870 
	C717.566284,201.152939 720.072266,201.303802 723.523804,201.511566 
	C722.097656,202.356094 721.337158,202.946518 720.478271,203.293289 
	C712.426514,206.544388 704.424561,209.943390 696.239929,212.820801 
	C694.530945,213.421631 691.857605,212.522125 690.094727,211.505722 
	C683.474915,207.689087 677.047974,203.537933 669.382812,198.789886 
	C685.062805,199.563675 699.611877,200.281662 714.610596,201.000870 
z"/>
<path fill="#040404" opacity="1.000000" stroke="none" 
	d="
M350.835876,209.818237 
	C358.188263,205.141739 365.220367,200.637253 372.252991,196.132462 
	C372.537048,196.318329 372.886108,196.417114 372.985352,196.631516 
	C374.136444,199.118576 376.672882,202.158310 375.988403,203.978271 
	C375.246307,205.951355 371.540588,206.886795 369.046936,208.111176 
	C356.642609,214.201874 343.946686,219.588470 329.881287,219.884033 
	C324.717957,219.992554 319.524414,218.664352 314.344666,217.991516 
	C314.303589,217.533295 314.262512,217.075073 314.221436,216.616852 
	C318.527527,216.068115 322.824371,215.427704 327.141968,214.993729 
	C332.623871,214.442719 338.171936,214.359024 343.591675,213.467300 
	C346.024475,213.067017 348.215118,211.194641 350.835876,209.818237 
z"/>
<path fill="#050505" opacity="1.000000" stroke="none" 
	d="
M347.026062,196.618164 
	C352.492432,196.131668 357.543396,195.690231 363.353943,195.182404 
	C352.694550,206.258759 340.152954,210.491638 314.261871,211.917099 
	C323.014282,206.595474 330.754547,201.595551 338.818604,197.188065 
	C340.892151,196.054764 343.985687,196.787659 347.026062,196.618164 
z"/>
<path fill="#080808" opacity="1.000000" stroke="none" 
	d="
M661.998108,155.006256 
	C653.102417,155.008575 644.704712,155.008575 636.080750,155.008575 
	C635.739929,151.031021 635.364990,146.656357 634.978088,142.141388 
	C649.746887,145.947784 664.213440,149.676254 678.679993,153.404739 
	C678.674438,153.689758 678.668884,153.974777 678.663269,154.259796 
	C673.274231,154.507843 667.885132,154.755890 661.998108,155.006256 
z"/>
<path fill="#080808" opacity="1.000000" stroke="none" 
	d="
M349.626160,155.077209 
	C338.638977,154.881973 328.121765,154.687042 317.604523,154.492096 
	C317.621490,154.156433 317.638458,153.820786 317.655396,153.485138 
	C331.947571,149.792969 346.239746,146.100784 361.003845,142.286697 
	C361.003845,147.021744 361.003845,151.221252 361.003845,156.092911 
	C357.169739,155.735992 353.632935,155.406754 349.626160,155.077209 
z"/>
<path fill="#040404" opacity="1.000000" stroke="none" 
	d="
M639.459473,213.664398 
	C632.438782,210.440933 625.758850,207.412170 618.797668,204.255905 
	C620.126038,202.188370 621.153015,200.589859 622.472107,198.536789 
	C628.705688,202.196518 635.258118,205.218445 640.823608,209.518021 
	C647.918335,214.998962 655.932434,215.059998 664.067566,215.565659 
	C669.923340,215.929642 675.773132,216.389572 682.726990,216.885208 
	C667.127869,222.826355 653.435913,218.698639 639.459473,213.664398 
z"/>
<path fill="#010101" opacity="1.000000" stroke="none" 
	d="
M657.750610,174.100616 
	C649.316223,174.100693 641.350464,174.100693 633.047180,174.100693 
	C633.800842,169.791626 634.444702,166.110535 635.141541,162.126572 
	C644.371033,165.889404 653.486938,169.605927 663.858154,173.834213 
	C661.176208,173.960876 659.697754,174.030701 657.750610,174.100616 
z"/>
<path fill="#020202" opacity="1.000000" stroke="none" 
	d="
M361.482880,173.721924 
	C352.135834,173.805542 343.243286,173.805542 334.350739,173.805542 
	C334.283112,173.615524 334.215515,173.425507 334.147888,173.235489 
	C342.991699,169.613144 351.835510,165.990799 361.937378,161.853165 
	C361.937378,166.150986 361.937378,169.894638 361.482880,173.721924 
z"/>
<path fill="#060606" opacity="1.000000" stroke="none" 
	d="
M635.513306,183.473633 
	C640.488098,186.528381 645.159973,189.365112 650.304688,192.488892 
	C641.847290,192.488892 634.092712,192.488892 625.910339,192.488892 
	C627.748901,188.257187 629.285339,184.720901 630.963989,180.857254 
	C632.505432,181.727829 633.857971,182.491714 635.513306,183.473633 
z"/>
<path fill="#080808" opacity="1.000000" stroke="none" 
	d="
M361.699219,191.094788 
	C357.011963,191.383926 352.760193,191.677261 346.964905,192.077087 
	C353.833496,187.901016 359.537659,184.432938 365.437256,180.846024 
	C366.840424,184.112289 368.156799,187.176514 369.511353,190.329575 
	C366.831238,190.609131 364.482971,190.854065 361.699219,191.094788 
z"/>
<path fill="#000000" opacity="1.000000" stroke="none" 
	d="
M430.990997,58.002182 
	C430.846710,58.096081 430.519775,58.014297 430.304260,57.719345 
	C430.546570,57.612949 430.677490,57.719723 430.990997,58.002182 
z"/>
<path fill="#030303" opacity="1.000000" stroke="none" 
	d="
M158.593094,431.091980 
	C170.244873,432.372650 175.854294,439.945587 171.936737,448.660004 
	C169.694809,453.647095 165.147141,455.718964 160.309540,455.866943 
	C147.546265,456.257385 134.763153,455.999084 121.687485,455.999084 
	C121.687485,447.778625 121.687485,439.561615 121.687485,430.990173 
	C133.940002,430.990173 146.044647,430.990173 158.593094,431.091980 
z"/>
<path fill="#030303" opacity="1.000000" stroke="none" 
	d="
M166.481506,405.570007 
	C164.798294,412.048920 161.636520,415.052368 155.899139,415.134949 
	C144.614380,415.297363 133.325638,415.182770 121.713058,415.182770 
	C121.713058,407.728546 121.713058,400.542664 121.713058,393.036224 
	C133.066177,393.036224 144.331009,392.679871 155.559631,393.163666 
	C162.834930,393.477203 166.213303,397.789856 166.481506,405.570007 
z"/>
<path fill="#FCFCFC" opacity="1.000000" stroke="none" 
	d="
M427.808350,206.230545 
	C418.552002,199.106598 418.653351,199.201920 426.484467,190.875336 
	C427.971924,189.293747 429.035492,186.630722 429.053650,184.456314 
	C429.224792,163.964981 429.017578,143.470367 429.208954,122.979424 
	C429.242462,119.395020 428.031738,117.025894 425.455597,114.939919 
	C417.024933,108.113388 419.612976,107.308167 426.408386,101.044952 
	C440.530701,88.028687 458.160278,82.626129 476.655182,80.051041 
	C496.908386,77.231155 517.150208,77.300949 536.796448,84.065697 
	C549.442444,88.420074 560.538208,95.058777 565.868042,108.159042 
	C570.890564,120.503899 566.832275,134.876953 555.450928,142.094162 
	C552.865479,143.733658 550.465393,145.665451 547.617371,147.724854 
	C550.283081,149.700821 552.645081,151.447037 555.002319,153.199692 
	C580.752136,172.345001 575.294495,202.885010 549.540100,216.104858 
	C535.844666,223.134796 521.216797,225.669510 506.172211,226.211517 
	C485.006836,226.974030 464.273987,224.347473 444.715942,215.693802 
	C438.942444,213.139252 433.621002,209.563110 427.808350,206.230545 
M514.664917,156.662521 
	C507.667816,155.847519 500.636383,154.135422 493.680664,154.401657 
	C478.545532,154.981018 467.622009,164.429382 465.774506,177.536911 
	C465.292786,180.954376 465.463379,184.474319 465.463440,187.947205 
	C465.463623,198.820007 471.968628,209.711868 480.971771,212.943115 
	C489.892242,216.144699 499.211121,217.702942 508.542419,215.097183 
	C513.328247,213.760742 518.540344,212.110992 522.221436,209.012726 
	C532.131653,200.671432 532.511719,189.058975 531.072205,177.242813 
	C529.873291,167.400696 524.688110,160.572815 514.664917,156.662521 
M470.956909,98.632591 
	C464.914276,108.455032 465.154266,118.688141 468.472198,129.357422 
	C470.939697,137.292068 476.511353,142.318970 483.988251,143.571472 
	C492.263428,144.957733 501.010498,145.041672 509.359192,144.057159 
	C518.046326,143.032730 523.590271,136.914612 526.014099,128.446396 
	C526.957947,125.148933 527.491150,121.714371 527.975586,118.308716 
	C529.394104,108.337097 524.293579,96.877998 515.948425,92.477150 
	C505.791565,87.120918 482.895294,85.439079 470.956909,98.632591 
z"/>
<path fill="#010101" opacity="1.000000" stroke="none" 
	d="
M515.039246,156.794113 
	C524.688110,160.572815 529.873291,167.400696 531.072205,177.242813 
	C532.511719,189.058975 532.131653,200.671432 522.221436,209.012726 
	C518.540344,212.110992 513.328247,213.760742 508.542419,215.097183 
	C499.211121,217.702942 489.892242,216.144699 480.971771,212.943115 
	C471.968628,209.711868 465.463623,198.820007 465.463440,187.947205 
	C465.463379,184.474319 465.292786,180.954376 465.774506,177.536911 
	C467.622009,164.429382 478.545532,154.981018 493.680664,154.401657 
	C500.636383,154.135422 507.667816,155.847519 515.039246,156.794113 
z"/>
<path fill="#000000" opacity="1.000000" stroke="none" 
	d="
M471.190704,98.341713 
	C482.895294,85.439079 505.791565,87.120918 515.948425,92.477150 
	C524.293579,96.877998 529.394104,108.337097 527.975586,118.308716 
	C527.491150,121.714371 526.957947,125.148933 526.014099,128.446396 
	C523.590271,136.914612 518.046326,143.032730 509.359192,144.057159 
	C501.010498,145.041672 492.263428,144.957733 483.988251,143.571472 
	C476.511353,142.318970 470.939697,137.292068 468.472198,129.357422 
	C465.154266,118.688141 464.914276,108.455032 471.190704,98.341713 
z"/>
</svg>