<svg version="1.1" id="Layer_1" xmlns="http://www.w3.org/2000/svg" xmlns:xlink="http://www.w3.org/1999/xlink" x="0px" y="0px"
	 width="100%" viewBox="0 0 600 600" enable-background="new 0 0 600 600" xml:space="preserve">
<path fill="none" opacity="1.000000" stroke="#000000" stroke-linecap="round" stroke-linejoin="round" stroke-width="4.000000"
	d="
M230.500000,208.750000 
	C230.666672,208.833328 230.914825,208.872070 230.988297,209.006393 
	C234.559952,215.535126 240.981201,215.045395 247.000488,215.493393 
	C258.033051,216.314560 269.013611,214.853424 279.990509,214.308670 
	C290.740540,213.775177 301.384583,211.587158 312.032379,209.680908 
	C322.426697,207.820038 332.915344,208.654907 343.541443,210.218307 
	C357.851288,212.323654 370.545227,217.704147 383.042816,224.420319 
	C391.814819,229.134369 399.216248,235.877365 408.007599,240.485489 
	C413.174408,243.193726 418.320526,245.869232 424.502747,245.554016 
	C429.770203,245.285492 430.225037,244.872238 430.532684,239.001709 
	C430.877289,232.427292 431.932953,226.028168 435.984833,220.488907 
	C440.843811,213.846222 448.070374,211.496826 455.502777,209.510391 
	C465.040558,206.961227 473.922363,210.068192 483.029999,212.381851 
	C494.233917,215.228012 505.282684,218.560410 516.976624,219.732880 
	C531.554077,221.194458 544.905640,218.130295 557.994263,212.486694 
	C566.045410,209.015137 569.643127,211.342819 569.451965,220.498993 
	C569.186890,233.196960 563.311523,242.304169 552.069275,248.623276 
	C540.657593,255.037613 528.676636,255.873978 515.997253,255.705978 
	C503.636261,255.542175 492.278412,251.433487 480.524170,248.888428 
	C477.037811,248.133575 474.012329,248.532562 471.571899,250.585480 
	C468.015656,253.577087 464.401367,256.789673 463.032379,261.509399 
	C461.248322,267.660065 456.444489,269.287262 450.998199,269.432953 
	C441.838104,269.677917 432.661438,269.691071 423.501587,269.441315 
	C415.780426,269.230774 410.138855,272.204620 406.500000,279.000000 
	C399.441895,292.180725 390.803070,304.089905 379.011475,313.514343 
	C373.634857,317.811554 367.759857,320.920349 361.018616,322.575836 
	C357.197266,323.514252 353.791199,325.594208 350.998749,328.498779 
	C349.483185,330.075195 347.941925,331.615723 345.500000,331.500000 
"/>
<path fill="none" opacity="1.000000" stroke="#000000" stroke-linecap="round" stroke-linejoin="round" stroke-width="3.000000"
	d="
M242.500000,383.500000 
	C242.333344,385.333344 242.022064,387.166565 242.021088,389.000000 
	C241.994705,439.000000 241.997299,489.000000 242.010712,539.000000 
	C242.011200,540.836670 242.169296,542.673401 242.264999,544.750000 
	C253.166672,544.750000 263.833344,544.750000 274.500000,544.750000 
	C274.500000,493.333344 274.492401,442.166656 274.534088,391.000031 
	C274.535431,389.343506 273.941315,387.577454 275.000000,386.000000 
"/>
<path fill="none" opacity="1.000000" stroke="#000000" stroke-linecap="round" stroke-linejoin="round" stroke-width="3.000000"
	d="
M274.500000,213.500000 
	C274.500000,161.666672 274.500000,109.833336 274.500000,57.500000 
	C263.846344,57.500000 253.177078,57.500000 242.000000,57.500000 
	C242.000000,109.832275 242.000000,162.166138 242.000000,214.500000 
"/>
<path fill="none" opacity="1.000000" stroke="#000000" stroke-linecap="round" stroke-linejoin="round" stroke-width="6.000000"
	d="
M223.500000,375.000000 
	C229.184570,375.015167 235.547028,375.683258 239.821381,371.803223 
	C245.057098,367.050568 251.532410,364.567902 257.234436,360.860565 
	C265.759338,355.317993 275.170929,350.829712 284.299133,346.111389 
	C291.036804,342.628754 296.528381,345.350494 302.493317,345.638367 
	C309.509796,345.977020 316.039642,345.833466 320.993347,339.994354 
	C325.577057,334.591431 331.642365,330.606201 335.580139,324.552124 
	C336.357422,323.357147 338.126282,322.758484 339.507263,322.013489 
	C344.494385,319.323029 349.728210,317.130035 354.544861,314.070648 
	C357.375671,312.272583 360.425934,310.608215 363.999451,310.484528 
	C367.242645,310.372314 369.687531,308.399506 371.967438,306.461670 
	C378.630554,300.798340 384.637756,294.662811 387.568695,286.023315 
	C389.757721,279.570801 394.686096,275.345093 400.481110,271.967590 
	C406.386322,268.525879 411.491577,263.451447 419.000061,263.489960 
	C427.499817,263.533569 436.013184,263.207642 444.495911,263.590515 
	C451.552338,263.909027 456.727051,261.747314 459.489838,254.995850 
	C460.028564,253.679443 460.528412,252.237198 461.126495,251.064499 
	C465.489136,242.510101 470.893005,239.872192 480.463470,242.626938 
	C489.576019,245.249863 498.674011,248.363541 508.020813,249.290115 
	C523.702209,250.844711 539.645752,251.777573 553.007385,240.508743 
	C557.328003,236.864853 561.064209,232.993896 562.113953,227.020020 
	C562.555298,224.508606 562.356506,222.509262 561.002869,220.499832 
	C557.655823,220.323578 554.573914,221.560699 551.518066,222.555466 
	C540.654358,226.091904 529.836853,226.280548 518.468262,224.733185 
	C502.906799,222.615128 487.750916,218.936172 472.487305,215.557373 
	C466.587006,214.251251 460.502991,215.058517 454.500000,215.000000 
"/>
<path fill="none" opacity="1.000000" stroke="#000000" stroke-linecap="round" stroke-linejoin="round" stroke-width="2.000000"
	d="
M325.000000,387.500000 
	C323.884430,388.894562 324.535706,390.511505 324.534332,392.000031 
	C324.492371,438.000000 324.507935,484.000000 324.480499,530.000000 
	C324.478851,532.788940 324.485352,535.603699 326.037140,537.975708 
	C328.925812,542.391113 328.041779,547.277649 327.916779,551.997803 
	C327.812836,555.921570 324.333862,558.832336 320.503815,558.460632 
	C310.674408,557.506836 300.832367,558.073181 290.999878,558.036438 
	C263.166901,557.932434 235.332947,558.076599 207.500305,557.938660 
	C201.575592,557.909302 195.846466,558.185547 190.500000,561.000000 
"/>
<path fill="none" opacity="1.000000" stroke="#000000" stroke-linecap="round" stroke-linejoin="round" stroke-width="4.000000"
	d="
M233.000000,202.500000 
	C229.234116,200.782150 225.314056,201.134537 221.521454,202.085541 
	C219.402161,202.616959 217.500000,202.515335 215.022217,202.073959 
	C214.831726,198.443909 216.293716,195.642044 218.479431,192.983093 
	C222.012177,188.685455 221.040878,186.390991 215.515533,184.940811 
	C213.480453,184.406677 211.467865,184.341934 209.505386,184.550644 
	C196.784927,185.903488 184.538513,189.313141 172.511978,193.534103 
	C168.825577,194.827942 165.668854,196.146683 164.402695,190.521896 
	C163.605881,186.982071 160.049927,188.194794 158.033936,188.650238 
	C152.601349,189.877548 147.202835,191.528076 142.091187,193.713303 
	C140.803131,194.263962 138.961731,193.715714 137.832321,195.386673 
	C137.481247,195.906097 134.701920,196.305023 134.438217,193.505814 
	C134.010452,188.965088 130.946594,188.874130 127.502686,190.008148 
	C119.898659,192.511963 113.226685,196.838974 106.527176,201.043304 
	C101.054726,204.477615 100.770897,204.553284 96.984917,199.511322 
	C95.109261,197.013428 94.706192,192.470078 90.013847,193.559631 
	C85.588150,194.587265 83.116829,198.327271 81.693474,202.073517 
	C80.565735,205.041687 80.491791,208.813339 81.175995,211.961746 
	C81.976791,215.646667 81.066330,217.770386 78.016182,219.528076 
	C76.260300,220.539932 74.745255,221.970718 72.986649,222.976669 
	C64.539276,227.808701 58.123997,234.110886 57.541985,244.502350 
	C57.332764,248.237839 55.358006,251.111893 53.455769,253.970566 
	C47.745251,262.552277 41.714848,270.921936 36.044418,279.529266 
	C32.638954,284.698486 30.781906,290.121674 34.909321,296.062988 
	C36.009197,297.646271 35.629879,300.196289 36.567429,301.964233 
	C39.735405,307.937988 45.732220,308.513489 51.505192,308.927643 
	C56.484550,309.284882 61.576363,307.710602 63.337887,302.940125 
	C69.141930,287.221985 82.056984,279.181000 95.499176,271.498566 
	C102.268227,267.629913 109.105171,263.780457 113.951622,257.462891 
	C116.567467,254.053024 119.414513,253.872467 123.009193,255.479446 
	C135.263474,260.957581 146.848206,267.242523 155.046631,278.465942 
	C160.963135,286.565460 161.252609,295.089630 159.144562,304.532288 
	C157.075241,313.801453 153.490646,322.810516 153.512299,332.499969 
	C153.523178,337.371094 155.529388,341.715515 157.548065,345.977234 
	C159.135864,349.329376 161.864410,349.910553 165.521637,349.097321 
	C171.262512,347.820740 176.914429,346.089935 183.006851,346.278351 
	C185.288147,346.348938 186.908844,346.612030 188.500000,348.000000 
"/>
<path fill="none" opacity="1.000000" stroke="#000000" stroke-linecap="round" stroke-linejoin="round" stroke-width="3.000000"
	d="
M448.500000,218.500000 
	C440.475372,224.727539 438.623566,233.684952 438.069214,243.004120 
	C437.588165,251.091003 435.040131,253.266693 426.994415,252.564011 
	C412.886108,251.331879 400.772491,245.205017 388.991638,238.013702 
	C377.899506,231.242767 366.963776,224.374619 354.571503,219.806015 
	C339.533661,214.262100 325.311646,215.983673 311.011078,221.528580 
	C307.118256,223.037994 303.173157,224.388504 299.436157,226.380234 
	C296.972046,227.693542 294.014984,228.055069 291.000824,228.084671 
	C275.832367,228.233536 260.665924,228.930542 245.500320,228.887863 
	C237.998505,228.866776 230.507401,227.557404 222.996704,227.048737 
	C219.539017,226.814560 215.983917,227.539261 212.974030,225.031158 
	C212.318283,224.484726 211.187164,223.864807 210.522507,224.072128 
	C203.534546,226.252182 197.999191,222.323807 191.972916,220.072510 
	C183.804184,217.020828 175.074097,216.654297 166.522934,215.349686 
	C157.536331,213.978638 148.577789,212.596939 139.499786,212.569336 
	C132.834198,212.549057 126.150787,212.990067 119.507851,213.587341 
	C116.867683,213.824707 113.833580,213.833939 111.798576,216.987961 
	C114.046310,222.671295 115.208015,228.904510 115.852882,235.465317 
	C116.421448,241.249771 122.398628,244.556686 127.008728,247.988281 
	C135.080353,253.996475 144.225662,258.276398 152.626968,263.807129 
	C159.598083,268.396423 163.879089,274.041321 165.499588,282.000092 
	C165.858841,283.764435 166.548264,285.343567 168.000000,286.500000 
"/>
<path fill="none" opacity="1.000000" stroke="#000000" stroke-linecap="round" stroke-linejoin="round" stroke-width="3.000000"
	d="
M183.000000,347.000000 
	C183.000000,416.833344 183.000000,486.666656 183.000000,556.500000 
	C183.000000,563.213501 183.750916,563.993835 190.500000,563.995239 
	C235.833328,564.004395 281.166656,564.003296 326.500000,563.987305 
	C328.213287,563.986694 330.058746,564.460388 331.500000,563.000000 
"/>
<path fill="none" opacity="1.000000" stroke="#000000" stroke-linecap="round" stroke-linejoin="round" stroke-width="3.000000"
	d="
M333.000000,356.500000 
	C334.460388,357.941254 333.987000,359.786713 333.987396,361.500000 
	C334.002319,426.500000 334.002319,491.500000 333.987396,556.500000 
	C333.987000,558.213257 334.460388,560.058716 333.000000,561.500000 
"/>
<path fill="none" opacity="1.000000" stroke="#000000" stroke-linecap="round" stroke-linejoin="round" stroke-width="3.000000"
	d="
M194.000000,350.500000 
	C195.636185,352.282867 194.972198,354.479706 194.973236,356.500000 
	C195.005905,419.500000 194.995392,482.500000 195.021011,545.500000 
	C195.021820,547.500061 195.333328,549.500000 195.500000,551.500000 
"/>
<path fill="none" opacity="1.000000" stroke="#000000" stroke-linecap="round" stroke-linejoin="round" stroke-width="2.000000"
	d="
M192.000000,348.000000 
	C189.066345,348.778595 188.914154,351.073669 188.999741,353.500000 
	C189.195831,359.057434 189.485229,364.646606 185.982712,369.487488 
	C185.038849,370.791992 185.534607,372.179169 185.533646,373.500031 
	C185.494278,427.500000 185.500687,481.500000 185.498367,535.500000 
	C185.498215,539.044800 185.970642,542.465698 188.000000,545.500000 
"/>
<path fill="none" opacity="1.000000" stroke="#000000" stroke-linecap="round" stroke-linejoin="round" stroke-width="3.000000"
	d="
M316.000000,356.000000 
	C314.420837,358.820129 314.494781,361.910339 314.495117,365.000000 
	C314.501648,424.833344 314.500000,484.666656 314.500000,544.750000 
	C303.833344,544.750000 293.166656,544.750000 282.000000,544.750000 
	C282.000000,491.834381 282.000000,439.167206 282.000000,386.500000 
"/>
<path fill="none" opacity="1.000000" stroke="#000000" stroke-linecap="round" stroke-linejoin="round" stroke-width="2.000000"
	d="
M192.000000,366.500000 
	C193.058701,368.077454 192.464417,369.843475 192.465866,371.500031 
	C192.508087,419.500000 192.545563,467.500092 192.455139,515.499939 
	C192.440079,523.500488 192.164200,531.531982 191.395081,539.489868 
	C190.782394,545.829163 187.830612,551.610229 185.500000,557.500000 
"/>
<path fill="none" opacity="1.000000" stroke="#000000" stroke-linecap="round" stroke-linejoin="round" stroke-width="2.000000"
	d="
M302.000000,355.000000 
	C301.156647,356.771820 301.514099,358.661346 301.513611,360.500000 
	C301.497162,421.833344 301.500000,483.166656 301.500000,544.500000 
"/>
<path fill="none" opacity="1.000000" stroke="#000000" stroke-linecap="round" stroke-linejoin="round" stroke-width="2.000000"
	d="
M307.000000,355.500000 
	C306.833313,357.500000 306.521851,359.499939 306.521027,361.500000 
	C306.495239,422.500000 306.500000,483.500000 306.500000,544.500000 
"/>
<path fill="none" opacity="1.000000" stroke="#000000" stroke-linecap="round" stroke-linejoin="round" stroke-width="4.000000"
	d="
M320.000000,358.000000 
	C321.036072,359.304932 322.072174,360.609863 323.203644,362.034973 
	C321.623352,363.594238 321.472931,365.474030 321.473999,367.500000 
	C321.505981,428.000000 321.505615,488.500000 321.477417,549.000000 
	C321.476379,551.172852 321.504211,553.164551 324.000000,554.000000 
"/>
<path fill="none" opacity="1.000000" stroke="#000000" stroke-linecap="round" stroke-linejoin="round" stroke-width="2.000000"
	d="
M312.000000,356.500000 
	C311.833344,358.500000 311.521942,360.499939 311.521057,362.500000 
	C311.495056,421.166656 311.502960,479.833344 311.486359,538.500000 
	C311.485840,540.338623 311.843353,542.228210 311.000000,544.000000 
"/>
<path fill="none" opacity="1.000000" stroke="#000000" stroke-linecap="round" stroke-linejoin="round" stroke-width="3.000000"
	d="
M323.500000,362.000000 
	C327.264130,361.980865 328.183014,364.031586 328.059143,367.502106 
	C327.742920,376.365265 327.491547,385.319641 329.598175,393.976105 
	C331.866516,403.297119 330.897430,412.662781 330.937439,422.000275 
	C331.091614,457.999603 331.006805,494.000000 330.989502,530.000000 
	C330.987762,533.611755 331.432770,537.336426 329.000000,540.500000 
"/>
<path fill="none" opacity="1.000000" stroke="#000000" stroke-linecap="round" stroke-linejoin="round" stroke-width="2.000000"
	d="
M297.000000,373.500000 
	C298.058685,375.077454 297.464752,376.843506 297.465973,378.500031 
	C297.507019,433.833344 297.500000,489.166656 297.500000,544.500000 
"/>
<path fill="none" opacity="1.000000" stroke="#000000" stroke-linecap="round" stroke-linejoin="round" stroke-width="3.000000"
	d="
M333.000000,40.500000 
	C334.636200,42.282860 333.971893,44.479683 333.973145,46.500015 
	C334.006897,100.333328 334.000000,154.166672 334.000000,208.000000 
"/>
<path fill="none" opacity="1.000000" stroke="#000000" stroke-linecap="round" stroke-linejoin="round" stroke-width="2.000000"
	d="
M292.000000,379.500000 
	C293.058685,381.077454 292.464661,382.843506 292.465942,384.500031 
	C292.507294,437.833344 292.500000,491.166656 292.500000,544.500000 
"/>
<path fill="none" opacity="1.000000" stroke="#000000" stroke-linecap="round" stroke-linejoin="round" stroke-width="3.000000"
	d="
M193.500000,347.000000 
	C199.597900,343.900726 209.182693,345.845123 213.947845,351.543610 
	C217.229523,355.468048 220.076508,359.366150 225.991745,359.663879 
	C228.866333,359.808563 229.781631,363.915924 227.433411,365.922058 
	C224.634796,368.313080 221.479630,370.511169 217.500153,370.479889 
	C213.271439,370.446655 210.008911,372.303925 207.530045,375.523132 
	C205.467194,378.202087 203.087753,380.299988 202.685150,384.469604 
	C202.199509,389.499176 202.048492,394.498169 202.041000,399.500061 
	C201.971603,445.833313 201.999176,492.166656 202.002762,538.500000 
	C202.002914,540.512085 201.792999,542.545044 202.662308,544.750000 
	C213.000000,544.750000 223.500000,544.750000 234.500000,544.750000 
	C234.500000,543.380188 234.500000,542.190063 234.500000,541.000000 
	C234.500000,490.666656 234.503433,440.333344 234.486298,390.000000 
	C234.485672,388.161346 234.843353,386.271820 234.000000,384.500000 
"/>
<path fill="none" opacity="1.000000" stroke="#000000" stroke-linecap="round" stroke-linejoin="round" stroke-width="3.000000"
	d="
M314.500000,208.500000 
	C314.500000,158.166672 314.500000,107.833336 314.500000,57.250000 
	C303.833344,57.250000 293.166656,57.250000 282.264954,57.250000 
	C282.169281,59.326630 282.011200,61.163296 282.010681,63.000004 
	C281.997192,111.333336 281.994507,159.666672 282.021088,207.999985 
	C282.022095,209.833405 282.333313,211.666672 282.499969,213.500000 
"/>
<path fill="none" opacity="1.000000" stroke="#000000" stroke-linecap="round" stroke-linejoin="round" stroke-width="2.000000"
	d="
M331.000000,41.000008 
	C330.166687,42.000008 328.665649,42.964050 328.609558,44.005905 
	C328.272888,50.257633 326.465363,56.370155 326.160461,62.507969 
	C323.752777,110.976936 324.575409,159.495621 324.500000,208.000000 
"/>
<path fill="none" opacity="1.000000" stroke="#000000" stroke-linecap="round" stroke-linejoin="round" stroke-width="2.000000"
	d="
M226.500000,386.000000 
	C226.500000,438.833344 226.500000,491.666656 226.500000,544.500000 
"/>
<path fill="none" opacity="1.000000" stroke="#000000" stroke-linecap="round" stroke-linejoin="round" stroke-width="2.000000"
	d="
M231.000000,386.000000 
	C231.166656,387.333344 231.478394,388.666595 231.479050,390.000000 
	C231.503860,440.000000 231.503860,490.000000 231.479050,540.000000 
	C231.478394,541.333374 231.166656,542.666687 230.999985,544.000000 
"/>
<path fill="none" opacity="1.000000" stroke="#000000" stroke-linecap="round" stroke-linejoin="round" stroke-width="2.000000"
	d="
M212.500000,386.500000 
	C212.500000,439.166656 212.500000,491.833344 212.500000,544.500000 
"/>
<path fill="none" opacity="1.000000" stroke="#000000" stroke-linecap="round" stroke-linejoin="round" stroke-width="2.000000"
	d="
M221.500000,386.000000 
	C221.500000,436.833344 221.496597,487.666656 221.513702,538.500000 
	C221.514313,540.338684 221.156647,542.228210 222.000000,544.000000 
"/>
<path fill="none" opacity="1.000000" stroke="#000000" stroke-linecap="round" stroke-linejoin="round" stroke-width="2.000000"
	d="
M207.999985,386.500000 
	C207.833328,388.000000 207.521759,389.499939 207.520996,391.000000 
	C207.495651,440.833344 207.496613,490.666656 207.520905,540.500000 
	C207.521469,541.666748 207.833344,542.833313 208.000000,544.000000 
"/>
<path fill="none" opacity="1.000000" stroke="#000000" stroke-linecap="round" stroke-linejoin="round" stroke-width="2.000000"
	d="
M217.000015,386.500000 
	C217.166672,388.000000 217.478241,389.499939 217.479004,391.000000 
	C217.504349,440.833344 217.503387,490.666656 217.479095,540.500000 
	C217.478531,541.666748 217.166672,542.833313 217.000000,544.000000 
"/>
<path fill="none" opacity="1.000000" stroke="#000000" stroke-linecap="round" stroke-linejoin="round" stroke-width="4.000000"
	d="
M327.000000,48.000000 
	C321.618713,48.362991 321.501190,48.484352 321.501007,54.000000 
	C321.499329,105.166664 321.500000,156.333328 321.500000,207.500000 
"/>
<path fill="none" opacity="1.000000" stroke="#000000" stroke-linecap="round" stroke-linejoin="round" stroke-width="2.000000"
	d="
M292.500000,58.000000 
	C292.500000,107.500000 292.492493,157.000000 292.526886,206.499985 
	C292.528290,208.520325 291.863800,210.717148 293.500000,212.500000 
"/>
<path fill="none" opacity="1.000000" stroke="#000000" stroke-linecap="round" stroke-linejoin="round" stroke-width="2.000000"
	d="
M297.000000,58.000000 
	C297.843353,59.771816 297.485687,61.661327 297.486328,63.500004 
	C297.503510,113.000000 297.500000,162.500000 297.500000,212.000000 
"/>
<path fill="none" opacity="1.000000" stroke="#000000" stroke-linecap="round" stroke-linejoin="round" stroke-width="2.000000"
	d="
M302.000000,58.000000 
	C301.156647,59.771816 301.514313,61.661327 301.513672,63.500004 
	C301.496460,112.666664 301.500000,161.833328 301.500000,211.000000 
"/>
<path fill="none" opacity="1.000000" stroke="#000000" stroke-linecap="round" stroke-linejoin="round" stroke-width="2.000000"
	d="
M306.500000,58.000000 
	C306.500000,108.666664 306.500000,159.333328 306.500000,210.000000 
"/>
<path fill="none" opacity="1.000000" stroke="#000000" stroke-linecap="round" stroke-linejoin="round" stroke-width="2.000000"
	d="
M311.000000,58.000000 
	C311.843353,59.771816 311.485657,61.661327 311.486298,63.500004 
	C311.503571,112.000000 311.500000,160.500000 311.500000,209.000000 
"/>
<path fill="none" opacity="1.000000" stroke="#000000" stroke-linecap="round" stroke-linejoin="round" stroke-width="3.000000"
	d="
M330.000000,58.500000 
	C331.636200,60.282860 330.971619,62.479664 330.973083,64.500023 
	C331.007782,112.333328 331.000000,160.166672 331.000000,208.000000 
"/>
<path fill="none" opacity="1.000000" stroke="#000000" stroke-linecap="round" stroke-linejoin="round" stroke-width="3.000000"
	d="
M184.000000,40.500000 
	C182.539612,41.941257 183.013290,43.786716 183.012695,45.500004 
	C182.996780,91.833336 182.994812,138.166672 183.021088,184.499985 
	C183.022034,186.166748 183.333328,187.833328 183.500000,189.500000 
"/>
<path fill="none" opacity="1.000000" stroke="#000000" stroke-linecap="round" stroke-linejoin="round" stroke-width="3.000000"
	d="
M232.000000,209.000000 
	C233.696121,204.832581 234.507416,200.503006 234.506393,196.000000 
	C234.495956,149.833328 234.500000,103.666664 234.500000,57.250000 
	C223.833328,57.250000 213.166672,57.250000 202.265015,57.250000 
	C202.169296,59.326630 202.011459,61.163288 202.010773,63.000004 
	C201.996521,101.666664 201.993164,140.333328 202.021225,178.999985 
	C202.022552,180.833435 202.333344,182.666672 202.500000,184.500000 
"/>
<path fill="none" opacity="1.000000" stroke="#000000" stroke-linecap="round" stroke-linejoin="round" stroke-width="2.000000"
	d="
M231.000000,58.000000 
	C231.801270,59.603207 231.488098,61.325600 231.488647,63.000004 
	C231.502945,107.000000 231.506561,151.000000 231.478806,194.999985 
	C231.477539,197.000092 231.166656,199.000000 230.999985,201.000000 
"/>
<path fill="none" opacity="1.000000" stroke="#000000" stroke-linecap="round" stroke-linejoin="round" stroke-width="2.000000"
	d="
M226.500000,58.000000 
	C226.500000,105.666664 226.500000,153.333328 226.500000,201.000000 
"/>
<path fill="none" opacity="1.000000" stroke="#000000" stroke-linecap="round" stroke-linejoin="round" stroke-width="2.000000"
	d="
M185.500000,44.500000 
	C191.393234,55.277702 192.687057,66.880684 192.596436,79.000725 
	C192.327271,114.998711 192.500000,151.000000 192.500000,187.000000 
"/>
<path fill="none" opacity="1.000000" stroke="#000000" stroke-linecap="round" stroke-linejoin="round" stroke-width="3.000000"
	d="
M200.500000,50.500000 
	C195.028152,50.163147 195.004593,50.163143 195.003738,55.500000 
	C194.997025,97.500000 194.994278,139.500000 195.021133,181.499985 
	C195.022202,183.166763 195.333344,184.833328 195.500015,186.500000 
"/>
<path fill="none" opacity="1.000000" stroke="#000000" stroke-linecap="round" stroke-linejoin="round" stroke-width="2.000000"
	d="
M186.000000,54.500000 
	C184.925858,55.537025 185.534576,56.847328 185.533478,58.000031 
	C185.493622,99.833328 185.494812,141.666672 185.521072,183.499985 
	C185.522003,185.000092 185.833328,186.500000 185.999985,188.000000 
"/>
<path fill="none" opacity="1.000000" stroke="#000000" stroke-linecap="round" stroke-linejoin="round" stroke-width="2.000000"
	d="
M222.000000,58.000000 
	C221.156647,59.771816 221.514633,61.661320 221.513794,63.500008 
	C221.495621,102.833336 221.509842,142.166687 221.465714,181.499954 
	C221.463852,183.156586 222.058701,184.922531 221.000000,186.500000 
"/>
<path fill="none" opacity="1.000000" stroke="#000000" stroke-linecap="round" stroke-linejoin="round" stroke-width="2.000000"
	d="
M208.000000,58.000000 
	C207.198730,59.603207 207.512024,61.325596 207.511383,63.000004 
	C207.496643,101.666664 207.493591,140.333328 207.519577,178.999985 
	C207.520828,180.866089 206.952164,182.887482 208.500000,184.500000 
"/>
<path fill="none" opacity="1.000000" stroke="#000000" stroke-linecap="round" stroke-linejoin="round" stroke-width="2.000000"
	d="
M217.000000,58.000000 
	C217.166672,59.333332 217.478073,60.666573 217.478958,62.000015 
	C217.504913,101.333336 217.504913,140.666672 217.478958,179.999985 
	C217.478073,181.333420 217.166656,182.666672 217.000000,184.000000 
"/>
<path fill="none" opacity="1.000000" stroke="#000000" stroke-linecap="round" stroke-linejoin="round" stroke-width="2.000000"
	d="
M212.500000,58.000000 
	C212.500000,100.000000 212.500000,142.000000 212.500000,184.000000 
"/>
<path fill="none" opacity="1.000000" stroke="#000000" stroke-linecap="round" stroke-linejoin="round" stroke-width="3.000000"
	d="
M193.500000,553.500000 
	C194.727692,552.183044 196.103882,551.907593 198.000244,551.913025 
	C237.999924,552.028076 278.000000,552.003601 318.000000,551.979065 
	C319.000092,551.978455 320.000000,551.666687 321.000000,551.500000 
"/>
<path fill="none" opacity="1.000000" stroke="#000000" stroke-linecap="round" stroke-linejoin="round" stroke-width="2.000000"
	d="
M331.500000,39.000000 
	C329.944427,37.722252 328.331207,37.769466 326.488861,38.470737 
	C321.019958,40.552448 315.479065,42.444698 310.006348,44.516792 
	C305.284027,46.304783 300.256073,45.859467 295.501099,45.828949 
	C267.147400,45.646988 238.861755,48.610271 210.500000,47.500000 
"/>
<path fill="none" opacity="1.000000" stroke="#000000" stroke-linecap="round" stroke-linejoin="round" stroke-width="5.000000"
	d="
M311.500000,41.000000 
	C309.626770,38.722950 307.033417,38.995113 304.500000,38.995636 
	C272.333344,39.002258 240.166367,38.929790 208.000320,39.072624 
	C202.939697,39.095093 198.132950,36.296406 193.002350,38.007038 
	C192.152374,38.290436 191.333328,38.666664 190.500000,38.999996 
"/>
<path fill="none" opacity="1.000000" stroke="#000000" stroke-linecap="round" stroke-linejoin="round" stroke-width="3.000000"
	d="
M321.000000,50.500000 
	C319.396790,49.698730 317.674408,50.012157 316.000000,50.011421 
	C281.500000,49.996243 247.000000,49.991673 212.500015,50.021358 
	C210.499878,50.023083 208.500000,50.333336 206.500000,50.500004 
"/>
<path fill="none" opacity="1.000000" stroke="#000000" stroke-linecap="round" stroke-linejoin="round" stroke-width="7.000000"
	d="
M313.500000,282.000000 
	C311.166656,281.000000 308.846161,279.968719 306.497375,279.006439 
	C301.414886,276.924194 295.441162,277.682373 293.731140,282.089691 
	C290.907196,289.367981 284.228912,289.181366 278.930756,290.768921 
	C269.510590,293.591553 259.711975,295.267670 249.985550,296.914642 
	C242.307312,298.214783 234.701187,297.122742 227.515823,293.964020 
	C225.702637,293.166931 225.231140,291.415802 225.500000,289.500000 
"/>
<path fill="none" opacity="1.000000" stroke="#000000" stroke-linecap="round" stroke-linejoin="round" stroke-width="8.000000"
	d="
M121.500000,231.500000 
	C134.541702,239.529968 149.508972,244.003403 161.936722,253.086578 
	C167.387161,257.070190 173.278183,260.520905 178.057190,265.444489 
	C179.531799,266.963715 180.541183,268.396088 180.500000,270.500000 
"/>
<path fill="none" opacity="1.000000" stroke="#000000" stroke-linecap="round" stroke-linejoin="round" stroke-width="8.000000"
	d="
M182.500000,277.500000 
	C182.276520,275.316437 183.160797,272.962433 181.512375,270.992523 
	C174.499130,275.220856 174.438751,275.201019 172.035507,282.511688 
	C171.280136,284.809540 169.279816,286.433167 168.626114,288.539154 
	C167.418182,292.430634 171.594345,301.125000 175.529984,301.833435 
	C185.684982,303.661316 191.596710,311.004944 197.350006,318.121277 
	C203.197235,325.353851 209.837097,331.977814 213.812698,340.860046 
	C215.960800,345.659271 220.313751,350.430145 226.999954,350.503967 
	C230.797867,350.545898 232.462967,353.535339 234.500000,356.000000 
"/>
<path fill="none" opacity="1.000000" stroke="#000000" stroke-linecap="round" stroke-linejoin="round" stroke-width="10.000000"
	d="
M320.500000,273.500000 
	C314.876556,278.995361 312.650726,285.549072 312.824219,293.503845 
	C312.957794,299.628815 311.365356,305.696167 311.699066,312.015900 
	C311.895905,315.743103 308.600830,319.356750 305.987854,322.489868 
	C302.201904,327.029419 298.537140,331.699249 294.414246,335.916168 
	C292.344635,338.032928 292.173096,340.669891 291.000000,343.000000 
"/>
<path fill="none" opacity="1.000000" stroke="#000000" stroke-linecap="round" stroke-linejoin="round" stroke-width="6.000000"
	d="
M225.000000,295.500000 
	C223.000000,298.000000 220.396133,300.234711 219.151978,303.066772 
	C217.575775,306.654663 217.027557,310.386627 220.383865,314.104828 
	C224.589249,318.763641 226.155899,325.135406 227.271637,331.043121 
	C228.803238,339.152771 234.134827,343.037476 240.500000,346.500000 
"/>
<path fill="none" opacity="1.000000" stroke="#000000" stroke-linecap="round" stroke-linejoin="round" stroke-width="15.000000"
	d="
M47.750000,297.500000 
	C49.074272,295.607910 49.842842,293.343292 52.998203,293.312988 
	C54.175972,293.301697 55.617516,291.340271 56.453686,289.971710 
	C61.706951,281.373444 70.432861,277.233948 78.294159,271.707214 
	C84.635193,267.249268 91.162834,261.830017 93.512215,253.503448 
	C93.754585,252.644455 94.581085,251.750671 94.433960,251.013168 
	C93.330215,245.480301 85.110313,240.751236 78.988434,241.388962 
	C75.585548,241.743469 72.976723,243.416534 72.144897,246.045837 
	C68.728096,256.845978 61.220928,265.003326 54.998657,273.999084 
	C53.841354,275.672211 52.781689,277.430054 51.477638,278.981201 
	C48.075577,283.027893 47.649517,287.337769 50.000000,292.000000 
"/>
<path fill="none" opacity="1.000000" stroke="#000000" stroke-linecap="round" stroke-linejoin="round" stroke-width="4.000000"
	d="
M242.500000,316.000000 
	C240.388550,316.380524 238.977295,317.654694 237.997360,319.498596 
	C237.143417,321.105438 235.823547,321.813751 233.971146,321.470978 
	C231.825119,318.597778 232.663055,315.220001 232.499649,312.000031 
	C232.354614,309.141724 234.594116,308.627472 236.502121,308.567383 
	C245.999634,308.268311 255.291916,306.534668 264.480011,304.413483 
	C272.390259,302.587311 280.142426,300.058929 287.502777,296.505737 
	C289.651428,295.468445 291.780945,294.358978 294.011383,293.530609 
	C298.085968,292.017303 300.987640,293.672302 301.460632,298.004303 
	C302.780609,310.093109 296.523987,324.565887 285.427460,330.872375 
	C281.177185,333.287964 276.014526,333.625671 270.999542,333.521545 
	C265.209900,333.401367 260.383423,334.108276 257.636108,340.851746 
	C256.487152,343.671936 254.691742,348.672882 249.500000,348.500000 
"/>
<path fill="none" opacity="1.000000" stroke="#000000" stroke-linecap="round" stroke-linejoin="round" stroke-width="6.000000"
	d="
M164.000000,193.000000 
	C157.076782,194.444885 151.151871,197.574448 145.301208,201.719406 
	C141.343185,204.523499 135.500000,204.666672 130.500000,206.000000 
"/>
<path fill="none" opacity="1.000000" stroke="#000000" stroke-linecap="round" stroke-linejoin="round" stroke-width="8.000000"
	d="
M213.500000,190.000000 
	C202.465042,194.244614 189.857788,194.497955 179.954971,202.733185 
	C183.222229,205.438248 185.889236,207.993103 190.000000,207.500000 
"/>
<path fill="none" opacity="1.000000" stroke="#000000" stroke-linecap="round" stroke-linejoin="round" stroke-width="3.000000"
	d="
M85.500000,220.500000 
	C85.118309,221.255402 85.231171,222.204758 84.010368,222.537994 
	C78.311493,224.093628 74.033760,228.226868 69.039040,231.068619 
	C66.737778,232.377930 65.593010,234.807983 64.953316,237.488861 
	C64.146904,240.868378 63.000000,244.166672 62.000000,247.500000 
"/>
<path fill="none" opacity="1.000000" stroke="#000000" stroke-linecap="round" stroke-linejoin="round" stroke-width="4.000000"
	d="
M180.000000,203.000000 
	C171.409302,204.623474 162.811050,205.998703 153.996826,205.564590 
	C151.148834,205.424347 148.589508,205.064804 146.500000,203.000000 
"/>
<path fill="none" opacity="1.000000" stroke="#000000" stroke-linecap="round" stroke-linejoin="round" stroke-width="4.000000"
	d="
M187.250000,327.000000 
	C187.954315,323.924316 185.803680,321.575439 184.812607,319.074249 
	C183.834213,316.605133 181.210037,316.024353 179.008774,318.507782 
	C178.613907,318.953247 178.298706,319.480591 178.005768,320.003235 
	C176.427673,322.818756 173.562164,325.775269 176.588165,328.915039 
	C179.511627,331.948395 182.734894,330.447357 185.500000,328.000000 
"/>
<path fill="none" opacity="1.000000" stroke="#000000" stroke-linecap="round" stroke-linejoin="round" stroke-width="3.000000"
	d="
M202.500000,346.500000 
	C201.996475,357.177124 201.047745,367.861237 203.000000,378.500000 
"/>
<path fill="none" opacity="1.000000" stroke="#000000" stroke-linecap="round" stroke-linejoin="round" stroke-width="3.000000"
	d="
M281.500000,300.000000 
	C282.603302,308.314606 281.697540,316.669678 282.011597,324.999573 
	C282.087158,327.003571 281.599060,329.061188 282.500000,331.000000 
"/>
<path fill="none" opacity="1.000000" stroke="#000000" stroke-linecap="round" stroke-linejoin="round" stroke-width="4.000000"
	d="
M274.000000,302.500000 
	C275.096252,310.647705 274.221985,318.835449 274.491150,327.000305 
	C274.551544,328.831635 274.500000,330.666656 274.500000,332.500000 
"/>
<path fill="none" opacity="1.000000" stroke="#000000" stroke-linecap="round" stroke-linejoin="round" stroke-width="4.000000"
	d="
M84.000000,265.000000 
	C75.535950,261.706116 68.999817,263.870636 66.010277,271.004303 
	C64.973946,273.477234 65.488297,276.000000 66.000000,278.500000 
"/>
<path fill="none" opacity="1.000000" stroke="#000000" stroke-linecap="round" stroke-linejoin="round" stroke-width="2.000000"
	d="
M292.500000,295.000000 
	C292.830078,303.830261 291.835663,312.685486 293.000000,321.500000 
"/>
<path fill="none" opacity="1.000000" stroke="#000000" stroke-linecap="round" stroke-linejoin="round" stroke-width="4.000000"
	d="
M117.000000,240.500000 
	C114.852417,244.009537 112.070457,246.699417 111.146744,251.431030 
	C109.382812,260.466492 99.403648,264.421753 90.500000,261.000000 
"/>
<path fill="none" opacity="1.000000" stroke="#000000" stroke-linecap="round" stroke-linejoin="round" stroke-width="3.000000"
	d="
M54.500000,258.500000 
	C54.254948,259.486938 54.901848,260.521423 54.023609,261.520752 
	C49.226753,266.978973 46.366772,273.768738 41.883045,279.406982 
	C40.569946,281.058197 40.126579,282.729950 39.500000,284.500000 
"/>
<path fill="none" opacity="1.000000" stroke="#000000" stroke-linecap="round" stroke-linejoin="round" stroke-width="3.000000"
	d="
M282.500000,369.000000 
	C285.345398,368.797119 288.097748,368.873413 290.061218,371.747772 
	C288.488159,374.390533 287.442719,377.620789 284.005432,379.013397 
	C280.341248,380.497955 277.027924,380.375122 273.976227,377.525482 
	C272.273041,375.935089 269.935791,375.157257 268.092987,373.867188 
	C264.923553,371.648407 262.333344,372.291748 259.500000,374.000000 
"/>
<path fill="none" opacity="1.000000" stroke="#000000" stroke-linecap="round" stroke-linejoin="round" stroke-width="10.000000"
	d="
M201.500000,339.250000 
	C195.562836,337.491760 189.493042,338.947662 183.499069,338.512939 
	C178.718750,338.166260 174.264282,338.724304 169.926437,341.379822 
	C165.973557,343.799713 163.716156,342.769104 161.500015,339.000000 
	C158.729797,334.288422 158.829483,329.268677 162.039688,327.057617 
	C163.888535,325.784210 165.846634,326.524780 167.507401,327.991638 
	C170.776794,330.879272 172.313126,334.902374 174.500000,338.500000 
"/>
<path fill="none" opacity="1.000000" stroke="#000000" stroke-linecap="round" stroke-linejoin="round" stroke-width="9.000000"
	d="
M257.000000,321.500000 
	C253.887482,319.039215 250.024384,318.059814 246.555222,319.172211 
	C241.737335,320.717102 239.526428,324.773193 240.000000,330.000000 
"/>
<path fill="none" opacity="1.000000" stroke="#000000" stroke-linecap="round" stroke-linejoin="round" stroke-width="7.000000"
	d="
M281.500000,337.500000 
	C276.284027,338.448334 270.906891,338.415985 265.949890,340.899963 
	C263.746735,342.004059 261.000000,341.971741 258.500000,341.000000 
"/>
<path fill="none" opacity="1.000000" stroke="#000000" stroke-linecap="round" stroke-linejoin="round" stroke-width="2.000000"
	d="
M208.000000,349.500000 
	C207.178268,357.166656 207.178268,364.833344 208.000000,372.500000 
"/>
<path fill="none" opacity="1.000000" stroke="#000000" stroke-linecap="round" stroke-linejoin="round" stroke-width="6.000000"
	d="
M130.500000,194.000000 
	C123.897270,198.975082 116.769112,203.101395 109.500000,207.000000 
"/>
<path fill="none" opacity="1.000000" stroke="#000000" stroke-linecap="round" stroke-linejoin="round" stroke-width="2.000000"
	d="
M297.500000,293.500000 
	C297.796906,299.829895 296.892975,306.191406 298.000000,312.500000 
"/>
<path fill="none" opacity="1.000000" stroke="#000000" stroke-linecap="round" stroke-linejoin="round" stroke-width="4.000000"
	d="
M230.000000,378.000000 
	C225.623093,383.538910 219.272018,381.765289 214.056656,381.073151 
	C211.234711,380.698639 208.572784,382.668884 206.000000,381.000000 
"/>
<path fill="none" opacity="1.000000" stroke="#000000" stroke-linecap="round" stroke-linejoin="round" stroke-width="6.000000"
	d="
M164.000000,299.500000 
	C165.869965,304.036163 165.737091,308.290955 163.967041,313.080231 
	C162.513870,317.012085 161.796585,321.582825 163.000000,326.000000 
"/>
<path fill="none" opacity="1.000000" stroke="#000000" stroke-linecap="round" stroke-linejoin="round" stroke-width="2.000000"
	d="
M213.000000,352.500000 
	C212.185547,358.333344 212.182617,364.166656 213.000000,370.000000 
"/>
<path fill="none" opacity="1.000000" stroke="#000000" stroke-linecap="round" stroke-linejoin="round" stroke-width="6.000000"
	d="
M225.500000,206.500000 
	C220.395432,209.356232 213.722595,208.505417 209.396790,213.408951 
	C208.813263,214.070404 206.833328,213.500000 205.500000,213.500000 
"/>
<path fill="none" opacity="1.000000" stroke="#000000" stroke-linecap="round" stroke-linejoin="round" stroke-width="4.000000"
	d="
M90.500000,203.000000 
	C94.057449,206.166168 96.746819,209.464859 93.561775,214.538773 
	C92.552414,216.146744 94.891945,217.688278 94.500000,219.500000 
"/>
<path fill="none" opacity="1.000000" stroke="#000000" stroke-linecap="round" stroke-linejoin="round" stroke-width="7.000000"
	d="
M110.500000,247.500015 
	C105.333336,248.666687 100.166672,249.833344 95.000000,251.000015 
"/>
<path fill="none" opacity="1.000000" stroke="#000000" stroke-linecap="round" stroke-linejoin="round" stroke-width="4.000000"
	d="
M262.500000,318.750000 
	C259.280579,319.476593 257.389191,321.350433 255.881348,324.442139 
	C253.049728,330.248169 249.060028,335.399078 243.929596,339.409943 
	C242.542953,340.493927 241.328339,341.611084 242.120331,342.927612 
	C243.051620,344.475708 245.324539,345.255524 246.947617,344.400543 
	C249.701859,342.949738 252.204468,341.202332 255.500000,342.500000 
"/>
<path fill="none" opacity="1.000000" stroke="#000000" stroke-linecap="round" stroke-linejoin="round" stroke-width="4.000000"
	d="
M253.500000,327.500000 
	C248.501678,326.257538 244.611816,329.907898 240.026001,330.658783 
	C237.860443,331.013367 238.716858,334.557678 237.000000,336.000000 
"/>
<path fill="none" opacity="1.000000" stroke="#000000" stroke-linecap="round" stroke-linejoin="round" stroke-width="3.000000"
	d="
M49.000000,293.000000 
	C44.950478,291.601166 41.133499,288.748962 36.500000,291.000000 
"/>
<path fill="none" opacity="1.000000" stroke="#000000" stroke-linecap="round" stroke-linejoin="round" stroke-width="2.000000"
	d="
M218.000000,358.500000 
	C216.900711,362.292786 217.778976,366.171539 217.500000,370.000000 
"/>
<path fill="none" opacity="1.000000" stroke="#000000" stroke-linecap="round" stroke-linejoin="round" stroke-width="2.000000"
	d="
M297.500000,355.500000 
	C297.180634,359.159729 298.156006,362.878296 297.000000,366.500000 
"/>
<path fill="none" opacity="1.000000" stroke="#000000" stroke-linecap="round" stroke-linejoin="round" stroke-width="3.000000"
	d="
M166.500000,307.500000 
	C170.110199,307.846008 172.257996,310.709991 174.946320,312.577271 
	C176.217606,313.460297 175.863922,315.166016 175.000214,316.500153 
	C173.166214,319.333038 171.333328,322.166656 169.500000,325.000000 
"/>
<path fill="none" opacity="1.000000" stroke="#000000" stroke-linecap="round" stroke-linejoin="round" stroke-width="4.000000"
	d="
M274.500000,366.500000 
	C269.895081,365.990234 267.166382,368.526001 266.144684,372.536865 
	C265.654755,374.460236 264.390381,375.894745 264.000000,377.750000 
"/>
<path fill="none" opacity="1.000000" stroke="#000000" stroke-linecap="round" stroke-linejoin="round" stroke-width="2.000000"
	d="
M292.000000,356.000000 
	C293.067963,359.288269 292.243439,362.671173 292.500000,366.000000 
"/>
<path fill="none" opacity="1.000000" stroke="#000000" stroke-linecap="round" stroke-linejoin="round" stroke-width="6.000000"
	d="
M184.500000,39.500000 
	C186.999481,39.476929 188.640930,39.891518 189.712753,42.924824 
	C190.720093,45.775585 193.500000,48.000004 195.500000,50.500004 
"/>
<path fill="none" opacity="1.000000" stroke="#000000" stroke-linecap="round" stroke-linejoin="round" stroke-width="3.000000"
	d="
M217.500000,375.000000 
	C213.407364,374.365448 211.115143,375.960022 211.000000,380.250000 
"/>
<path fill="none" opacity="1.000000" stroke="#000000" stroke-linecap="round" stroke-linejoin="round" stroke-width="3.000000"
	d="
M192.000000,552.000000 
	C193.355194,553.000000 193.234055,553.849670 192.031006,555.031555 
	C189.593750,557.425781 187.333328,560.000000 185.000000,562.500000 
"/>
<path fill="none" opacity="1.000000" stroke="#000000" stroke-linecap="round" stroke-linejoin="round" stroke-width="2.000000"
	d="
M221.000000,192.500000 
	C221.333328,195.333328 221.666672,198.166672 222.000000,201.000000 
"/>
<path fill="none" opacity="1.000000" stroke="#000000" stroke-linecap="round" stroke-linejoin="round" stroke-width="2.000000"
	d="
M222.000000,360.000000 
	C221.225555,362.666656 221.225555,365.333344 222.000000,368.000000 
"/>
<path fill="none" opacity="1.000000" stroke="#000000" stroke-linecap="round" stroke-linejoin="round" stroke-width="3.000000"
	d="
M242.000000,309.500000 
	C241.735748,312.922546 241.887726,316.173676 245.500000,318.000000 
"/>
<path fill="none" opacity="1.000000" stroke="#000000" stroke-linecap="round" stroke-linejoin="round" stroke-width="4.000000"
	d="
M203.500000,385.000000 
	C212.145264,386.279938 221.439758,387.224976 229.329742,384.917755 
	C237.161438,382.627594 245.843307,384.075348 253.170761,378.734253 
	C258.108368,375.135101 264.576630,376.975372 268.855865,381.147827 
	C272.772705,384.966827 277.543243,386.058136 281.970551,385.666870 
	C286.088318,385.302917 288.997223,381.089691 291.518890,377.513336 
	C292.400421,376.263123 293.527649,375.189087 294.495056,373.996002 
	C298.055542,369.604980 297.136902,367.815765 291.526276,366.396149 
	C287.623779,365.408691 282.834717,366.704315 279.853455,362.078156 
	C285.928925,356.506927 293.037415,353.815125 301.503265,354.456818 
	C306.167419,354.810333 310.832916,354.770782 315.522675,355.298462 
	C319.983276,355.800354 322.839661,352.220459 325.006195,348.503601 
	C328.708313,342.152344 333.494720,336.786133 339.480438,332.472870 
	C341.192993,331.238800 342.948486,330.699951 345.000000,331.000000 
"/>
</svg>