<?xml version="1.0" encoding="utf-8" ?><svg xmlns="http://www.w3.org/2000/svg" xmlns:xlink="http://www.w3.org/1999/xlink" width="900" height="900" viewBox="0 0 900 900"><path fill="#2A2929" transform="scale(0.878906 0.878906)" d="M0 0L1024 0L1024 1024L0 1024L0 0Z"/><path transform="scale(0.878906 0.878906)" d="M49.4408 508.411L49.4447 507.412C49.5782 494.115 52.9365 472.462 55.0247 459.224C68.626 374.367 106.103 295.135 163.073 230.791C252.879 129.078 382.366 73.7511 517.619 75.3566C640.487 77.715 757.366 128.872 842.458 217.537C903.972 280.585 948.331 370.215 963.119 456.931C965.491 470.837 968.641 493.476 968.474 507.555C970.2 507.812 971.346 508.014 973.04 508.424C973.82 509.621 973.687 509.649 973.716 511.117C971.463 514.07 966.288 511.127 964.128 512.823L971.924 512.796C972.532 543.833 971.666 576.071 966.109 606.638C963.706 606.632 961.089 606.569 958.707 606.631L959.147 606.729C961.105 607.148 964.278 607.048 965.073 607.572C964.64 609.272 964.63 610.008 963.36 611.215C960.769 611.95 959.928 611.003 957.468 611.595C958.873 611.917 961.87 611.975 963.427 612.052C959.214 630.417 957.304 645.464 951.927 664.486C935.431 722.846 905.234 779.807 867.55 827.182C790.102 922.909 677.88 984.05 555.453 997.219C532.654 999.588 509.701 1000.12 486.816 998.818C389.707 993.844 296.591 958.599 220.528 898.025C145.148 838.043 90.4828 755.926 64.2332 663.239C60.6981 650.616 54.3128 624.907 52.8808 612C52.6753 609.757 52.2964 609.553 53.0758 607.78C55.6452 606.281 59.2803 607.462 62.7886 606.617C59.7303 606.492 55.9585 606.611 52.843 606.629C48.4515 573.141 44.7949 548.51 47.1674 513.895L124.11 513.921C136.399 513.918 153.406 514.405 165.204 513.577C160.777 512.988 144.781 513.326 139.618 513.33L76.3753 513.369C67.3372 513.375 57.8029 513.527 48.7307 513.397C47.1096 513.374 46.9534 513.188 45.9261 512.324L46.0184 511.307C47.1184 509.531 47.5289 509.47 49.4408 508.411Z"/><path fill="#F9F8F8" transform="scale(0.878906 0.878906)" d="M165.204 513.577C175.718 513.778 186.683 513.56 197.225 513.542C202.942 513.532 213.332 513.728 218.564 512.968C213.051 595.976 237.174 668.887 291.933 731.506C342.524 789.222 414.006 824.429 490.598 829.355C567.837 834.046 643.746 807.666 701.43 756.087C743.64 719.044 776.641 665.163 789.679 610.466C793.741 610.537 798.571 610.497 802.566 610.775C781.254 700.966 721.719 776.5 636.281 813.88C574.619 840.857 506.634 849.204 440.862 833.513C361.735 814.922 293.213 765.704 250.327 696.657C235.479 672.395 220.745 639.202 214.385 611.535C217.747 611.562 223.112 612.181 225.436 610.129C225.957 608.208 225.94 609.162 225.367 607.163C221.937 605.916 201.202 606.539 195.973 606.526L140.157 606.442L89.2659 606.469C80.9146 606.485 70.996 606.259 62.7886 606.617C59.7303 606.492 55.9585 606.611 52.843 606.629C48.4515 573.141 44.7949 548.51 47.1674 513.895L124.11 513.921C136.399 513.918 153.406 514.405 165.204 513.577Z"/><path transform="scale(0.878906 0.878906)" d="M114.828 534.111C118.195 534.375 121.745 534.51 125.132 534.689C128.173 536.477 130.333 539.162 132.652 541.782C132.826 543.526 133.306 545.652 133.648 547.401C130.665 547.644 127.479 547.629 124.472 547.68C122.966 544.784 122.796 543.829 119.55 543.096C115.505 543.996 116.521 547.599 116.864 550.691C127.997 553.429 134.962 550.518 133.539 564.99C133.301 567.412 133.43 571.38 133.384 573.949C129.723 580.222 127.991 581.323 121.024 581.623C117.587 582.614 119.719 583.014 117.354 583.715C113.334 581.56 107.251 574.567 105.696 570.248C106.418 568.268 113.818 566.172 114.449 566.48C116.165 567.321 119.184 572.799 122.077 570.662C122.995 568.49 122.62 564.713 122.57 562.183C117.893 562.24 114.261 562.281 109.566 561.884L105.692 557.549C105.569 552.802 104.815 544.094 106.787 540.016C108.98 535.479 112.851 541.193 114.828 534.111Z"/><path transform="scale(0.878906 0.878906)" d="M72.007 536.285L87.244 536.511L93.4671 542.843C93.5308 546.761 93.4694 549.582 93.2105 553.49C91.7673 554.74 90.8307 555.453 89.6653 556.95C91.3982 563.628 91.5449 564.6 91.5964 571.697C94.21 571.494 97.2112 571.518 99.8617 571.475L99.9653 578.421C99.7994 580.15 100.101 580.124 99.1629 581.188C93.7108 581.555 86.8646 581.263 81.3057 581.175C78.7263 578.148 75.4849 575.771 72.3631 573.296C72.4265 560.558 72.1751 548.95 72.007 536.285Z"/><path fill="#F9F8F8" transform="scale(0.878906 0.878906)" d="M81.3546 543.506C82.4696 543.548 83.8084 543.415 84.4021 544.115C86.1757 546.205 85.5283 551.815 85.3744 554.613C84.6144 554.789 82.3917 555.491 82.0083 554.704C80.6823 551.984 81.3761 546.62 81.3546 543.506Z"/><path fill="#F9F8F8" transform="scale(0.878906 0.878906)" d="M81.7141 562.688C83.2527 562.987 83.3956 562.252 84.9533 562.994C84.2257 565.374 85.3655 571.441 85.7233 574.112C85.5235 574.413 84.5018 574.934 84.1191 575.161C82.9842 574.73 83.3434 574.958 82.4548 574.052C81.5425 570.401 81.6777 566.446 81.7141 562.688Z"/><path transform="scale(0.878906 0.878906)" d="M145.874 533.747C152.523 533.412 160.677 533.467 167.309 533.701C167.216 536.35 166.9 538.921 166.619 541.556L160.884 542.576C161.301 554.392 161.049 566.299 160.89 578.125C160.835 580.296 161.192 580.091 160.141 581.51C157.494 582.448 153.636 581.835 150.552 581.701C150.219 568.795 150.475 554.941 150.507 541.964L145.087 541.231L145.062 540.521C144.99 538.337 144.551 535.162 145.874 533.747Z"/><path transform="scale(0.878906 0.878906)" d="M181.732 565.406C184.687 565.692 187.571 566.736 189.122 569.425C190.268 571.397 190.504 573.768 189.768 575.926C188.717 579.069 186.853 580.522 184.046 581.945C183.511 581.874 182.98 581.782 182.452 581.67C174.202 579.92 173.141 569.89 181.732 565.406Z"/><path fill="#F9F8F8" transform="scale(0.878906 0.878906)" d="M964.128 512.823L971.924 512.796C972.532 543.833 971.666 576.071 966.109 606.638C963.706 606.632 961.089 606.569 958.707 606.631C951.987 606.446 944.904 606.424 938.162 606.506C889.092 607.107 839.732 605.72 790.699 606.668C794.459 586.281 798.075 567.672 798.401 546.883C798.583 535.305 799.319 524.433 798.546 512.78C853.738 513.379 908.935 513.393 964.128 512.823Z"/><path transform="scale(0.878906 0.878906)" d="M854.178 527.569C858.384 527.532 865.702 526.983 869.863 527.855C870.386 527.965 870.626 529.356 870.857 530.086C871.456 528.895 871.382 528.866 872.379 528.019C876.187 528.347 879.98 535.089 880.311 538.762C880.801 544.207 880.776 550.053 880.749 555.512C880.706 564.538 882.505 574.486 874.159 580.513C869.715 581.234 865.219 581.587 860.717 581.566C844.768 581.638 846.536 569.769 846.472 557.881C846.405 550.252 846.406 542.622 846.476 534.993C848.988 531.853 850.687 529.752 854.178 527.569Z"/><path fill="#F9F8F8" transform="scale(0.878906 0.878906)" d="M867.048 535.051L867.403 535.373C867.492 546.196 866.754 557.724 866.884 568.629C866.905 570.408 866.447 572.163 865.045 573.347C863.38 573.524 864.136 573.716 862.736 572.636L860.928 571.241C859.245 566.334 860.029 544.655 860.091 538C863.129 536.991 864.239 536.473 867.048 535.051Z"/><path transform="scale(0.878906 0.878906)" d="M937.338 528.712C946.698 527.744 949.065 534.183 952.577 541.521C948.729 541.507 941.035 541.778 937.537 541.043C936.96 540.253 936.574 539.706 936.055 538.866L935.645 538.19L934.663 538.285C932.651 540.541 933.328 546.352 933.319 549.934C939.612 553.669 947.037 552.822 954.203 552.628C954.197 558.054 954.114 563.48 953.953 568.904L949.956 574.426C949.735 574.785 949.513 575.142 949.288 575.498C946.625 579.708 944.368 581.739 939.246 581.247C937.03 581.034 933.089 581.957 931.754 581.445L932.129 579.666L931.652 579.321C925.723 583.393 922.989 578.544 919.868 573.617C918.85 563.696 919.699 549.863 919.743 539.73C919.786 529.546 929.538 529.413 937.338 528.712Z"/><path fill="#F9F8F8" transform="scale(0.878906 0.878906)" d="M933.662 561.167C934.735 561.697 936.712 562.419 937.892 562.888C937.91 566.071 937.645 568.429 937.314 571.589C934.889 571.445 934.284 571.691 932.782 570.112C932.051 567.857 933.195 563.853 933.662 561.167Z"/><path transform="scale(0.878906 0.878906)" d="M810.919 526.472C821.248 526.495 828.745 524.672 835.466 533.831C836.121 550.712 828.994 553.445 822.864 569.193C827.078 569.268 831.289 569.45 835.493 569.738L835.485 580.985C828.487 580.831 814.112 581.497 807.774 580.374C808.041 575.007 808.194 571.229 807.731 565.898C813.578 558.638 819.178 546.698 821.797 537.813C818.179 537.347 814.582 537.202 810.941 537.002L810.919 526.472Z"/><path transform="scale(0.878906 0.878906)" d="M897.149 528.07C899.775 528.225 903.367 529.241 905.952 529.944C906.177 545.44 906.523 565.033 906.108 580.397C905.149 581.417 904.902 581.075 903.022 581.217C899.399 581.257 896.064 581.135 892.44 580.985C892.231 564.34 892.525 547.094 892.585 530.403C894.132 529.684 895.638 528.864 897.149 528.07Z"/><path fill="#F9F8F8" transform="scale(0.878906 0.878906)" d="M49.4408 508.411L49.4447 507.412C49.5782 494.115 52.9365 472.462 55.0247 459.224C68.626 374.367 106.103 295.135 163.073 230.791C252.879 129.078 382.366 73.7511 517.619 75.3566C640.487 77.715 757.366 128.872 842.458 217.537C903.972 280.585 948.331 370.215 963.119 456.931C965.491 470.837 968.641 493.476 968.474 507.555C966.419 507.534 965.244 507.874 963.717 506.907C962.958 504.638 962.417 494.072 962.103 490.743C961.334 483.157 960.454 475.583 959.465 468.023C957.146 450.455 952.58 430.232 947.807 413.16C912.808 288.555 826.444 184.726 710.295 127.62C602.181 74.5675 477.513 66.263 363.317 104.506C248.563 143.082 153.868 225.722 100.116 334.199C73.2431 388.473 57.9247 447.732 55.13 508.23L49.4408 508.411Z"/><path fill="#F9F8F8" transform="scale(0.878906 0.878906)" d="M957.468 611.595C958.873 611.917 961.87 611.975 963.427 612.052C959.214 630.417 957.304 645.464 951.927 664.486C935.431 722.846 905.234 779.807 867.55 827.182C790.102 922.909 677.88 984.05 555.453 997.219C532.654 999.588 509.701 1000.12 486.816 998.818C389.707 993.844 296.591 958.599 220.528 898.025C145.148 838.043 90.4828 755.926 64.2332 663.239C60.6981 650.616 54.3128 624.907 52.8808 612C55.6333 611.968 55.6328 611.52 57.594 612.717C60.4322 617.307 59.4772 621.143 60.5862 626.186C63.3046 638.271 66.2758 650.297 69.498 662.257C73.5016 676.664 79.8163 695.403 85.6485 709.363C141.847 845.542 259.973 946.487 403.248 980.769C521.011 1009.29 645.296 989.25 748.126 925.161C829.55 874.447 893.143 799.618 930.062 711.082C944.756 675.61 951.019 649.119 957.468 611.595Z"/><path fill="#F9F8F8" transform="scale(0.878906 0.878906)" d="M486.41 116.713L487.351 116.677C507.575 115.94 529.679 116.094 549.913 118.221C638.421 127.52 725.656 165.388 791.411 225.61C833.62 264.266 871.612 318.003 895.453 369.927C902.367 384.986 911.536 414.616 915.943 430.266C921.958 451.628 927.863 484.298 928.606 506.547C913.25 507.384 896.1 507.099 880.606 507.063C861.423 507.086 842.239 506.942 823.059 506.63C820.401 491.304 818.249 475.396 814.424 460.214C803.505 416.877 777.88 366.226 748.933 332.001C702.575 277.848 639.225 241.013 569.23 227.51C556.335 225.003 542.481 223.683 529.392 222.582C515.723 222.011 503.849 221.692 490.17 222.577C422.277 226.959 357.596 253.07 305.688 297.051C242.524 350.265 202.871 426.225 195.322 508.472L89.2168 508.485C89.6863 492.946 91.7184 478.563 94.424 463.251C107.97 388.3 141.579 318.422 191.675 261.05C269.698 172.397 368.316 124.249 486.41 116.713Z"/><path transform="scale(0.878906 0.878906)" d="M692.902 173.625C699.076 177.101 711.117 184.643 716.779 188.695C713.959 198.243 709.963 209.754 708.321 219.365C714.981 212.939 726.278 204.588 733.903 199.018C740.451 203.511 747.037 207.95 753.66 212.333C743.472 225.238 735.075 234.106 726.258 248.607C720.21 258.553 716.043 270.134 710.651 279.03L710.257 279.672C705.076 276.291 696.827 271.117 692.293 267.266L696.925 261.613C702.65 254.316 706.561 248.586 711.505 240.746C702.258 249.253 694.079 254.868 684.935 262.725C681.158 260.822 679.194 259.751 675.796 257.294C676.946 250.078 680.774 234.969 682.922 228.038C678.293 235.427 672.846 245.975 668.001 252.613C661.439 248.979 655.07 245.006 648.92 240.71C657.985 232.718 666.105 220.021 672.612 209.706C678.802 199.895 690.71 184.465 692.902 173.625Z"/><path transform="scale(0.878906 0.878906)" d="M131.087 379.804C148.954 391.818 169.557 401.631 188.003 412.871C191.877 415.232 196.5 418.088 200.825 419.377C200.038 424.852 198.109 431.608 196.704 437.067C185.853 436.26 172.911 437.023 161.946 437.818C172.546 442.653 182.01 448.701 192.767 452.892C191.551 460.183 189.159 468.009 187.791 475.902C179.092 472.539 134.01 471.731 121.994 471.043C115.933 470.838 111.934 471.071 105.913 471.71C108.714 464.854 110.261 456.259 111.838 448.947C121.369 451.472 143.011 451.598 154.064 453.019C147.72 449.128 122.527 435.659 115.911 434.305C117.772 426.755 120.322 418.956 122.637 411.495C134.481 418.563 141.096 418.237 154.698 418.598C157.873 418.682 162.782 419.084 165.686 418.471C164.824 416.957 157.633 414.441 155.398 413.354C145.974 408.769 133.857 402.411 125.471 396.348L124.869 395.909C127.604 389.739 129.289 386.375 131.087 379.804Z"/><path transform="scale(0.878906 0.878906)" d="M444.533 135.619C449.253 134.975 456.242 139.082 460.288 141.323C461.031 148.234 463.428 156.869 464.815 163.767C467.521 177.22 470.265 189.673 474.137 202.862C470.901 207.024 469.1 209.724 466.811 214.418C457.963 216.494 447.047 218.23 437.861 220.118C433.825 220.977 430.364 221.652 426.289 222.262C424.052 219.202 422.754 218.204 419.795 216.103C418.652 210.792 418.14 205.1 417.19 199.724C414.397 183.928 412.559 168.143 408.162 152.714C410.108 148.981 412.151 145.728 414.937 142.582C420.805 140.434 437.766 137.101 444.533 135.619Z"/><path fill="#F9F8F8" transform="scale(0.878906 0.878906)" d="M441.161 154.086L441.645 154.005C442.436 154.297 442.809 154.222 442.992 155.043C445.854 167.897 448.536 181.008 450.933 193.989C451.206 195.469 451.145 196.659 450.699 197.85C447.791 200.436 443.561 200.639 439.648 201.295L438.701 201.165C436.482 198.416 430.215 163.199 429.302 157.341C433.001 156.022 437.308 155.051 441.161 154.086Z"/><path transform="scale(0.878906 0.878906)" d="M175.595 303.777C177.47 304.569 180.942 306.846 182.763 307.946C191.935 313.484 195.734 316.176 206.404 317.246L207.598 332.327C215.403 333.634 231.71 333.544 239.405 331.922C242.372 337.328 243.789 337.907 248.863 341.195C244.732 346.324 240.333 351.778 236.791 357.296C233.837 355.311 233.113 354.922 229.825 353.56C226.894 354.02 223.97 354.529 221.056 355.086C216.477 352.608 212.861 350.699 208.052 348.588C204.492 349.091 202.362 349.157 201.757 353.114C203.436 358.579 216.331 364.57 222.192 368.698L228.883 373.079C224.703 377.146 221.623 385.578 219.613 391.054C205.266 382.691 190.807 374.521 176.241 366.545C167.027 361.38 154.923 354.142 145.389 350.287C148.779 346.809 150.725 343.842 153.189 339.662C160.358 327.499 167.226 315.165 175.595 303.777Z"/><path fill="#F9F8F8" transform="scale(0.878906 0.878906)" d="M178.545 329.743C183.361 331.325 186.241 333.275 190.048 336.47C188.139 339.321 185.722 342.484 183.677 345.292C170.908 342.823 170.988 338.561 178.545 329.743Z"/><path transform="scale(0.878906 0.878906)" d="M490.12 131.923C505.891 131.373 524.17 132.371 540.07 133.014C543.014 135.378 544.439 137.019 546.991 139.845C547.774 146.183 548.045 157.892 548.483 164.663C545.84 167.662 541.964 171.107 538.987 173.903C541.513 179.546 544.223 184.989 546.691 190.69C549.648 197.519 551.341 207.809 555.636 213.458C548.2 213.254 537.931 212.681 530.625 211.959C530.045 210.673 528.468 204.173 528.015 202.435L522.726 181.923C519.694 181.614 516.666 181.259 513.645 180.859C513.064 189.357 512.148 202.974 513.59 211.24C504.97 211.264 496.158 211.062 487.524 210.956C488.191 210.025 488.895 209.07 489.409 208.045C492.801 201.277 492.935 152.836 492.339 143.9C492.058 139.685 491.32 135.977 490.12 131.923Z"/><path fill="#F9F8F8" transform="scale(0.878906 0.878906)" d="M514.576 148.51C518.698 148.935 522.701 148.941 526.836 149.005C527.042 152.128 528.06 162.064 526.734 164.265C512.689 164.633 512.688 162.666 514.576 148.51Z"/><path transform="scale(0.878906 0.878906)" d="M301.745 186.452C303.873 186.498 312.496 186.937 313.752 188.764C320.411 198.457 326.882 208.437 333.195 218.381C332.139 223.791 331.173 227.562 328.926 232.608C322.748 236.077 317.878 238.867 311.826 242.619C317.557 252.051 321.345 261.026 331.307 265.295C325.691 269.798 318.305 273.722 311.962 278.813L309.946 280.88C307.701 280.599 298.511 264.388 296.697 261.424C290.745 251.72 284.728 242.056 278.649 232.432C273.636 224.455 269.985 216.897 262.013 211.533C274.688 204.699 289.064 194.255 301.745 186.452Z"/><path fill="#F9F8F8" transform="scale(0.878906 0.878906)" d="M301.401 206.871C304.443 209.026 310.089 217.996 312.128 221.375C309.321 224.008 304.685 226.867 301.425 228.932C300.069 227.813 292.798 216.134 291.438 214.014C295.011 211.069 297.49 209.413 301.401 206.871Z"/><path transform="scale(0.878906 0.878906)" d="M831.339 289.205C833.873 290.534 859.771 327.803 861.37 331.819C857.185 344.108 851.461 347.549 840.91 354.556C835.915 357.873 830.955 361.322 825.783 364.507C821.325 358.378 815.052 352.6 810.033 345.708L804.064 349.591C797.595 353.65 791.328 358.307 785.055 362.705C779.248 355.503 774.462 346.942 768.586 339.979C782.474 333.531 792.418 328.614 805.353 320.22C813.522 314.919 815.754 315.178 823.67 308.001C825.905 300.465 827.983 296.309 831.339 289.205Z"/><path fill="#F9F8F8" transform="scale(0.878906 0.878906)" d="M835.345 324.875C838.085 326.511 840.61 331.533 841.948 334.435C838.18 337.165 835.492 339.061 831.499 341.396C828.943 338.927 825.881 335.938 824.065 332.924C827.202 330.024 831.715 327.102 835.345 324.875Z"/><path transform="scale(0.878906 0.878906)" d="M897.922 418.978C899.74 421.951 901.967 440.381 902.538 444.976C894.758 449.502 886.977 454.545 879.207 459.21C863.648 468.551 846.254 478.394 831.852 489.326C830.389 481.508 828.855 473.703 827.25 465.912C826.839 464.085 826.588 462.113 826.309 460.252L834.97 457.902C834.402 454.274 835.183 451.079 835.763 447.45C830.259 447.34 827.031 446.822 821.88 448.762C819.027 440.125 817.825 432.652 813.605 424.399C819.291 424.561 827.287 425.869 833.433 426.348C849.478 427.582 865.545 428.514 881.625 429.145C887.187 426.115 892.601 422.441 897.922 418.978Z"/><path fill="#F9F8F8" transform="scale(0.878906 0.878906)" d="M860.338 446.744L861.013 446.725C860.513 447.776 855.056 451.399 853.288 452.896L852.765 453.345C851.606 451.751 851.18 448.939 850.713 446.92C853.921 447.001 857.129 446.851 860.338 446.744Z"/><path transform="scale(0.878906 0.878906)" d="M226.881 246.395C232.971 254.671 277.101 279.945 288.896 286.168C291.504 287.545 294.425 288.421 297.359 288.951L282.157 303.534C277.778 300.327 276.471 299.795 271.16 299.091C268.081 301.538 263.763 305.897 260.889 308.668L266.294 313.399L270.308 316.737C265.27 321.637 258.359 329.725 253.26 335.142C245.512 319.36 235.964 303.865 226.825 288.824C221.456 279.989 214.564 270.758 210.221 261.44C215.783 256.598 221.4 251.363 226.881 246.395Z"/><path fill="#F9F8F8" transform="scale(0.878906 0.878906)" d="M243.234 281.185C245.424 281.885 252.868 286.02 253.952 288.363C254.266 289.039 253.571 289.857 253.123 290.726C251.611 292.114 251.969 292.232 250.302 292.479C247.083 290.558 244.963 284.807 243.234 281.185Z"/><path transform="scale(0.878906 0.878906)" d="M784.772 241.194C787.724 242.793 801.016 256.827 804.29 260.181C799.993 266.651 796.698 274.194 792.555 280.709C781.798 297.622 773.289 314.642 764.381 332.59C759.482 326.527 753.897 320.603 749.088 314.461C748.363 313.536 748.561 313.79 748.806 312.638C757.277 305.861 751.384 302.442 745.549 296.323C743.227 298.5 740.854 300.921 738.576 303.169C732.253 296.985 725.84 290.894 719.339 284.899C728.35 280.392 734.738 278.731 743.809 275.197C749.01 273.172 756.033 267.898 761.988 266.23C767.038 258 765.509 264.104 771.763 258.037C777.085 252.874 780.643 247.285 784.772 241.194Z"/><path fill="#F9F8F8" transform="scale(0.878906 0.878906)" d="M770.898 278.057C770.572 279.837 766.941 285.507 765.049 286.38C763.122 287.269 762.935 286.754 760.747 286.148C760.498 285.988 760.385 285.678 760.22 285.432C762.929 282.759 767.313 281.472 770.898 278.057Z"/><path transform="scale(0.878906 0.878906)" d="M592.532 138.875C597.414 139.786 625.481 146.091 628.942 148.025C629.962 150.342 627.259 162.036 626.707 165.288C618.887 162.906 606.494 159.912 598.48 158.554C596.157 161.625 596.531 166.55 596.295 170.707C601.38 172.102 607.852 173.407 613.077 174.595C615.788 180.026 617.328 184.722 619.751 190.121C618.054 198.68 616.296 210.327 614.285 218.467C612.686 219.565 603.629 224.768 601.87 224.737C590.693 221.525 575.281 217.703 563.785 215.755C565.386 209.867 566.503 203.568 567.406 197.536C573.385 200.062 588.912 203.035 595.937 204.636C605.609 187.87 590.023 189.447 578.473 185.67C577.484 183.755 574.076 177.928 574.55 175.41C576.335 166.505 578.287 155.059 582.066 146.966C582.21 146.657 590.863 140.499 592.532 138.875Z"/><path fill="#2A2929" transform="scale(0.878906 0.878906)" d="M573.616 207.425C575.481 208.308 574.994 211.909 574.238 213.365C573.685 214.43 572.877 214.406 571.742 214.862C569.7 213.044 569.156 212.595 569.769 209.9C571.034 208.228 571.556 208.217 573.616 207.425Z"/><path transform="scale(0.878906 0.878906)" d="M380.654 149.507C382.011 150.504 386.786 165.857 387.684 168.729C381.967 171.182 379.384 171.542 373.153 172.636C377.766 183.79 381.365 195.61 385.785 206.863C389.498 216.315 390.678 224.742 398.787 231.518C389.929 234.312 380.252 238.464 371.217 241.563C372.15 236.084 371.661 233.582 370.275 228.369C366.125 216.421 357.243 195.628 352.151 184.126C345.851 185.998 343.465 188.239 338.286 192.118C335.811 186.623 332.629 176.432 330.199 170.111C343.784 165.78 369.069 157.692 380.654 149.507Z"/><path transform="scale(0.878906 0.878906)" d="M878.955 367.125C880.738 369.25 889.297 391.231 890.586 394.579C884.435 395.231 876.56 396.16 870.5 396.074C869.347 395.297 868.936 395.058 867.688 394.447C858.057 394.941 843.419 401.24 834.317 404.156C827.289 406.408 826.271 408.682 825.135 414.103C824.938 415.044 815.071 419.131 813.069 418.103C808.683 409.335 804.952 400.289 800.414 391.522C805.465 389.586 809.488 386.662 814.767 384.98C817.193 385.648 815.133 386.157 817.51 387.832C827.112 385.851 848.154 379.189 857.922 375.458C859.08 375.017 858.979 373.931 859.211 372.708C860.47 370.953 875.293 368.092 878.955 367.125Z"/><path fill="#F9F8F8" transform="scale(0.878906 0.878906)" d="M470.13 289.722C472.822 291.407 474.116 293.425 475.907 295.947C460.502 325.705 452.461 355.111 453.955 388.549C454.098 391.76 453.96 395.269 453.965 398.521L454.055 447.681C472.043 461.998 492.237 474.271 510.876 487.484C522.318 480.396 533.373 471.23 544.505 463.634C578.639 440.344 611.848 414.49 646.351 391.818C650.335 393.451 658.578 398.397 663.227 400.597C679.812 408.445 691.015 410.179 708.613 412.174C701.227 414.682 695.618 417.254 690.905 423.9C687.963 428.073 685.978 432.842 685.089 437.869C683.428 447.129 684.36 457.045 684.431 466.489C684.555 483.1 681.919 501.476 689.541 516.856C693.21 524.261 698.46 528.524 705.055 533.165C678.203 548.251 682.393 564.154 682.618 591.251L682.881 634.069C706.995 629.356 708.607 615.007 706.831 593.697C719.904 616.906 712.771 637.096 690.161 650.495C679.332 656.913 669.123 660.134 658.727 667.9C644.816 678.292 638.669 687.339 630.468 702.25C628.577 700.374 626.722 698.089 624.976 696.05C641.945 655.925 646.593 646.251 646.582 600.607L646.569 560.058C646.583 518.547 647.124 476.55 646.635 435.091C637.047 439.466 611.169 457.879 602.589 464.802C602.033 484.951 607.522 494.449 624.982 504.249C599.516 521.267 604.038 541.742 604.179 569.247L604.086 608.944L603.995 658.144C603.974 672.802 602.814 692.749 607.575 706.761C610.221 714.549 620.571 720.543 628.225 723.286C573.609 726.804 538.896 760.619 509.962 803.139C482.807 758.485 445.259 728.522 391.694 723.37C418.272 712.224 415.62 694.819 415.605 669.748L415.574 633.875L415.687 572.175C415.799 544.335 420.415 522.279 394.755 504.317C411.868 495.204 415.412 487.855 417.641 469.339C426.784 476.537 443.629 487.038 453.802 493.459C453.189 534.77 453.672 576.09 455.249 617.376C456.077 644.517 456.813 673.486 460.688 700.314C463.696 721.137 473.863 746.656 491.389 759.547L491.524 513.239C487.236 509.338 472.079 499.848 466.451 496.197L425.291 469.152C414.106 461.805 403.077 453.948 391.85 446.641C385.873 442.751 379.409 438.018 373.117 434.766C372.782 448.299 373.056 463.068 373.056 476.693L373.052 555.921L373.018 596.297C372.978 609.041 372.542 622.949 374.574 635.463C378.071 656.997 385.343 676.224 395.484 695.379L389.546 701.602C380.463 686.139 366.416 669.084 349.84 661.158C329.847 651.6 307.666 641.938 306.398 616.307C305.981 607.867 309.372 600.505 313.544 593.433C310.464 615.719 313.157 628.458 336.672 634.261C337.7 613.424 336.59 591.945 337.057 571.079C337.503 551.191 331.011 542.952 314.716 533.023C338.778 518.071 335.602 494.663 335.535 469.639C335.471 445.508 339.793 420.957 310.948 412.3C338.235 409.225 349.826 404.836 373.611 391.739C388.066 401.608 402.326 412.905 417.28 422.07C416.96 413.619 417.319 403.656 417.404 395.09L417.52 356.471C392.709 361.715 391.007 374.946 393.295 396.972C378.632 372.975 388.594 352.283 411.796 338.785C421.326 333.241 431.234 330.404 440.379 323.753C453.662 314.092 461.669 303.369 470.13 289.722Z"/><path transform="scale(0.878906 0.878906)" d="M565.579 488.411C565.9 488.503 566.126 488.793 566.387 489.001C567.133 494.502 566.996 502.932 567.015 508.644L567.067 537.363C567.411 584.592 565.851 631.816 562.393 678.919C560.117 709.402 554.681 738.095 530.253 759.129L529.867 758.769C528.389 753.845 529.268 715.343 529.237 706.931L529.377 513.139C538.676 505.312 555.001 495.169 565.579 488.411Z"/><path fill="#F9F8F8" transform="scale(0.878906 0.878906)" d="M493.432 233.212C566.357 228.256 642.656 254.146 699.461 299.742C762.701 351.047 802.938 425.399 811.3 506.402L797.764 506.682C791.035 445.672 765.619 388.232 724.995 342.219C681.376 293.289 622.45 260.602 557.848 249.501C545.096 247.273 533.611 246.491 520.747 245.629C492.612 244.595 464.477 247.65 437.219 254.698C372.365 271.441 315.199 309.888 275.237 363.642C260.96 383.459 249.054 404.882 239.765 427.472C236.977 434.096 233.926 441.053 231.626 447.847C227.174 460.819 223.876 474.158 221.769 487.709C221.185 491.552 219.323 509.484 218.216 511.329C215.471 507.398 210.866 508.341 206.426 508.289C210.243 448.879 241.141 381.967 280.264 337.56C334.477 275.632 411.268 238.042 493.432 233.212Z"/><path fill="#F9F8F8" transform="scale(0.878906 0.878906)" d="M814.656 610.53C818.514 610.525 822.371 610.57 826.228 610.664C819.161 649.312 797.876 693.142 775.507 725.249C733.493 786.339 671.33 830.705 599.901 850.581C514.212 874.729 422.442 863.879 344.748 820.414C272.001 778.853 218.511 710.356 195.823 629.704C194.36 624.116 192.947 617.751 192.176 612.049C195.282 611.874 198.507 611.937 201.627 611.94C209.866 644.987 222.975 679.181 241.673 707.619C284.234 772.351 342.882 817.878 417.409 839.537C507.929 865.845 603.164 852.969 682.176 801.417C749.808 757.776 797.432 689.155 814.656 610.53Z"/><path fill="#F9F8F8" transform="scale(0.878906 0.878906)" d="M80.8514 612.464C86.978 612.136 85.5783 614.564 86.7755 620.188C88.0377 626.164 89.3824 632.123 90.8092 638.062C102.829 687.984 123.831 735.303 152.789 777.707C216.211 870.89 313.472 935.668 423.9 958.272C536.236 980.966 652.977 957.408 747.72 892.925C830.445 837.701 891.121 755.149 919.134 659.711C922.311 649.088 924.121 637.752 926.683 626.962C927.537 623.361 927.912 613.932 930.657 612.227C932.419 612.287 932.434 612.456 933.874 613.409C934.868 615.293 934.481 615.136 934.326 617.653C931.609 637.817 926.746 655.996 920.447 675.251C903.633 727.062 877.103 775.195 842.275 817.076C822.195 841.432 797.601 863.845 772.427 882.861C707.025 933.259 628.665 964.064 546.451 971.696C450.142 979.996 353.814 955.954 272.701 903.372C258.688 894.291 241.211 880.755 228.129 869.927C166.072 817.609 119.75 749.098 94.3189 672.017C88.4506 653.98 82.6118 631.314 80.8514 612.464Z"/><path fill="#F9F8F8" transform="scale(0.878906 0.878906)" d="M509.743 269.912C511.343 271.557 513.237 282.439 514.151 285.556C514.98 288.368 516.042 291.106 517.325 293.742C522.859 304.991 530.197 309.674 541.6 313.477C539.166 316.667 530.169 327.965 529.833 331.066C528.518 343.184 529.016 359.693 529.04 371.863L529.481 468.694C523.52 473.056 517.504 477.556 511.353 481.625C508.839 481.254 495.058 470.865 491.463 468.516L491.424 330.353C488.473 325.519 482.843 318.319 479.321 313.561C500.725 305.023 507.054 292.739 509.743 269.912Z"/><path fill="#F9F8F8" transform="scale(0.878906 0.878906)" d="M498.372 102.716C511.511 101.45 540.011 103.744 553.099 105.117C669.53 117.444 776.137 176.001 849 267.647C895.596 326.434 926.391 396.156 938.46 470.192C939.501 476.768 943.054 500.232 942.421 506.151C941.134 507.145 940.845 506.562 939.286 506.787C937.03 507.113 937.379 500.381 937.232 498.331C935.215 473.39 930.804 448.701 924.059 424.605C897.699 330.554 840.564 246.157 761.062 189.1C690.856 138.435 607.154 109.821 520.625 106.905C505.044 106.283 491.377 107.009 475.797 108.133C414.383 112.248 354.771 130.434 300.876 159.78C182.101 224.455 99.9315 347.67 82.3207 481.365C81.4614 487.888 80.722 502.729 79.1373 507.969L78.2649 508.313L77.3092 507.85C74.357 503.039 80.0623 471.027 81.2404 463.663C93.2952 392.563 122.79 325.56 167.084 268.651C184.219 246.553 204.799 225.289 225.904 207.039C278.49 161.258 341.589 129.205 409.573 113.737C440.628 106.787 466.929 104.609 498.372 102.716Z"/><path fill="#F9F8F8" transform="scale(0.878906 0.878906)" d="M550.123 290.369C551.96 291.303 557.695 301.309 559.759 303.967C562.992 308.471 566.258 311.979 570.123 316.05C588.56 335.465 623.244 337.724 632.226 366.223C635.752 377.413 631.898 388.048 626.498 397.737C630.064 375.333 625.827 362.566 602.759 356.561C602.504 361.907 602.59 368.328 602.531 373.756L602.555 416.667C591.169 425.229 579.131 433.479 567.533 441.839C566.786 418.999 567.587 396.072 566.944 373.235C566.143 344.791 556.198 321.066 544.815 295.547C546.547 293.684 548.272 292.102 550.123 290.369Z"/><path fill="#F9F8F8" transform="scale(0.878906 0.878906)" d="M922.666 623.599C920.752 632.873 918.853 643.587 916.493 652.629C905.225 695.796 886.987 734.893 862.582 772.165C848.519 793.642 835.981 808.626 818.457 827.348C769.276 880.183 707.45 919.622 638.807 941.948C607.584 952.041 577.601 958.142 545.032 961.072C451.222 969.298 357.35 945.983 278.289 894.822C180.391 831.851 112.565 731.52 90.6144 617.206C90.1118 614.679 90.2214 613.664 91.4868 611.733C93.788 614.931 95.2297 623.559 96.0372 627.449C101.465 653.592 109.969 682.211 120.998 706.577C168.654 814.18 258.372 897.517 369.193 937.117C454.498 967.255 547.315 968.68 633.505 941.176C642.551 938.325 663.985 931.078 672.586 927.088C684.181 921.815 695.606 916.176 706.844 910.178C710.479 908.251 714.63 906.457 718.127 904.392C798.639 857.722 861.73 786.062 897.825 700.286C903.966 685.399 909.628 666.946 914.054 651.464C916.899 641.513 918.099 631.738 921.803 621.645L922.666 623.599Z"/><path fill="#F9F8F8" transform="scale(0.878906 0.878906)" d="M414.15 872.46C425.884 872.472 434.764 875.364 446.02 878.393C446.378 879.967 448.343 887.421 448.052 888.724C446.024 897.813 443.661 907.743 441.466 916.801C440.317 921.544 437.733 922.215 433.569 924.509L427.122 928.771C424.88 928.532 404.869 924.621 403.835 923.863C403.086 918.666 405.214 918.887 406.561 913.13C408.957 902.895 410.817 881.694 414.15 872.46Z"/><path transform="scale(0.878906 0.878906)" d="M423.271 881.317L423.864 881.459L424.848 881.709C430.912 883.211 432.297 884.174 437.552 887.831C434.334 897.874 432.927 908.22 430.092 918.121L429.02 919.023C427.465 919.171 419.389 917.225 417.21 916.792C418.733 905.722 421.491 892.751 423.271 881.317Z"/><path fill="#F9F8F8" transform="scale(0.878906 0.878906)" d="M191.175 682.463C193.71 682.498 195.049 683.51 197.224 684.736C199.236 693.058 207.731 705.024 205.114 713.157C203.923 712.605 203.065 711.888 201.759 712.657C191.895 718.462 179.331 728.394 168.765 732.384C166.574 731.272 164.377 730.368 162.121 729.405L161.275 729.243C160.48 727.987 158.291 723.543 157.662 722.147C155.088 716.443 146.477 704.771 147.215 698.96L148.224 698.336C151.036 698.928 152.598 700.73 154.742 702.644C160.673 699.592 167.609 695.158 173.494 691.758C179.67 688.189 184.95 685.701 191.175 682.463Z"/><path transform="scale(0.878906 0.878906)" d="M191.799 694.961C194.516 695.323 196.59 699.796 197.815 702.037C192.751 705.84 172.959 717.761 167.251 720.618L166.936 720.711C164.769 719.634 162.979 714.885 161.935 712.554C170.617 706.728 182.396 699.355 191.799 694.961Z"/><path fill="#F9F8F8" transform="scale(0.878906 0.878906)" d="M653.435 850.468C659.075 849.983 660.556 851.516 665.127 854.703C667.866 860.985 671.888 866.823 674.815 873.643L670.927 877.318C677.137 884.594 681.174 890.793 690.237 893.414C686.87 895.386 680.974 898.58 677.209 899.237C672.034 894.586 667.044 889.612 662.059 884.747L656.463 889.047L658.858 894.858C660.722 899.183 661.879 902.331 664.985 905.942C658.744 908.486 655.425 910.229 649.618 913.545C651.351 904.844 647.738 898.719 644.013 891.082C639.079 880.968 635.907 871.268 627.748 863.318C636.164 859.248 645.079 854.691 653.435 850.468Z"/><path transform="scale(0.878906 0.878906)" d="M653.338 861.502C655.717 861.197 661.487 871.466 662.673 873.517C659.46 875.651 657.094 877.053 653.707 878.91L652.576 879.291C650.679 877.987 645.69 867.975 645.358 865.231C647.995 863.461 650.51 863.244 653.338 861.502Z"/><path fill="#F9F8F8" transform="scale(0.878906 0.878906)" d="M589.99 874.296C592.664 874.009 595.973 872.931 597.504 875.357C597.407 877.306 596.644 878.054 595.538 879.677C597.35 893.162 601.165 907.388 602.73 921.5C604.02 922.836 605.67 924.323 607.038 925.624C603.383 926.479 599.714 927.278 596.034 928.021C589.177 921.693 580.285 908.72 573.222 900.938C575.278 908.458 576.359 917.282 579.402 924.126C581.168 925.294 582.258 925.743 583.227 927.53C583.444 931.802 574.121 932.482 570.388 933.365C568.632 933.944 566.346 934.777 564.605 934.365C563.66 931.151 566.729 929.169 567.299 926.224C567.548 924.935 559.579 889.319 558.684 887.81C557.695 886.141 555.088 885.327 553.841 883.759C553.158 882.901 553.257 882.576 553.348 881.558C556.415 880.33 565.705 878.661 569.158 878.147C575.323 887.469 582.898 894.058 588.94 903.596L583.567 882.28C581.06 880.807 579.51 880.438 578.915 877.532L579.619 876.475C583.167 874.609 586.023 874.646 589.99 874.296Z"/><path fill="#F9F8F8" transform="scale(0.878906 0.878906)" d="M700.759 822.528C705.963 823.915 707.623 824.868 712.14 827.484C708.042 831.064 704.764 831.297 700.164 833.92C696.919 835.77 693.696 838.024 690.612 840.151C693.542 845.676 697.088 851.503 700.361 856.849C702.947 861.071 708.033 871.455 712.98 872.233C716.568 871.534 718.853 869.22 721.646 866.886L717.155 857.628C714.459 859.29 712.037 861.801 709.716 863.995C708.461 861.472 707.512 859.219 706.426 856.625C708.899 854.483 719.647 845.401 722.159 845.556L722.925 846.66C738.509 870.787 737.051 868.838 713.02 882.828C709.905 882.843 708.041 882.58 704.959 882.183C698.772 876.541 683.782 852.804 678.525 844.705C683.319 830.146 687.914 830.037 700.759 822.528Z"/><path fill="#F9F8F8" transform="scale(0.878906 0.878906)" d="M246.629 763.923C249.112 764.747 254.698 772.1 256.702 774.506C252.398 777.45 249.833 781.966 247.237 786.482C240.81 797.66 229.73 811.314 226.87 823.765C224.715 820.555 217.198 812.458 216.612 811.233L217.843 810.29C218.908 810.346 219.247 810.357 220.304 810.253L221.901 808.27C223.127 807.045 223.098 807.166 223.497 805.491C222.823 801.929 218.736 798.791 215.969 796.184C212.486 797.969 209.901 799.291 207.27 802.303L197.971 791.692C206.94 791.075 213.829 785.114 221.282 780.294L246.629 763.923Z"/><path transform="scale(0.878906 0.878906)" d="M241.146 778.555C240.979 780.11 230.974 794 229.42 796.259L228.705 796.32L227.074 794.649L222.948 789.775C228.831 786.564 235.525 782.213 241.146 778.555Z"/><path fill="#F9F8F8" transform="scale(0.878906 0.878906)" d="M763.713 772.429C778.765 779.055 794.118 788.84 809.658 794.435C811.42 795.069 813.853 793.934 815.134 794.975C814.515 796.024 804.959 805.535 803.694 808.016C803.282 808.149 802.871 808.282 802.46 808.415C800.749 807.272 800.904 804.494 798.899 801.839C795.087 799.785 789.551 805.171 787.227 808.017L787.652 808.739C788.882 810.627 789.756 812.342 791.795 813.286C793.219 813.945 794.452 814.647 795.149 816.061C794.71 817.905 785.77 825.954 783.76 827.676L782.938 826.974C782.427 825.417 782.209 820.576 782.113 820.418C775.123 808.978 767.85 796.98 759.355 786.618C758.598 785.694 753.941 783.769 752.616 783.202C756.335 779.467 759.82 776 763.713 772.429Z"/><path transform="scale(0.878906 0.878906)" d="M770.802 786.954C772.485 787.362 786.635 794.856 788.489 796.048C788.3 796.882 786.324 798.42 785.515 799.16L782.481 801.843C780.017 799.122 772.495 789.954 770.802 786.954Z"/><path fill="#F9F8F8" transform="scale(0.878906 0.878906)" d="M514.866 883.227C523.993 882.849 533.133 882.907 542.254 883.401C542.738 887.314 544.752 897.482 541.119 899.818C538.687 899.359 535.041 894.509 532.362 892.233L531.847 891.802C529.402 891.585 526.565 891.529 524.082 891.417C524.264 894.525 523.811 900.6 525.749 902.768C528.745 903.161 533.092 899.283 535.93 897.293C536.103 905.215 536.598 912.65 535.899 920.551C532.863 918.391 528.616 912.635 525.208 913.827C524.23 915.253 524.558 917.066 524.627 918.875L524.719 927.927C530.948 927.39 536.822 928.564 541.122 924.1C542.001 923.188 542.933 922.475 544.048 922.578C545.608 924.862 545.439 932.422 545.518 935.571C535.333 935.861 521.42 935.785 511.731 937.424C514.762 925.805 512.944 903.335 511.886 890.822L505.959 883.547L514.866 883.227Z"/><path fill="#F9F8F8" transform="scale(0.878906 0.878906)" d="M456.661 880.497C463.508 880.643 469.513 880.639 476.251 882.136C475.716 886.824 473.925 889.096 473.797 891.041C473.223 899.726 475.236 912.204 476.736 920.841C481.905 907.691 485.05 896.604 484.403 882.57C489.939 882.788 493.923 883.173 499.3 884.381C498.403 887.872 497.67 889.019 495.971 892.186C491.667 902.543 489.115 914.408 484.693 924.843C483.346 928.02 481.976 931.773 481.057 935.084C476.347 935.232 473.578 935.357 468.926 934.866C467.127 925.541 465.431 916.196 463.836 906.834C462.049 896.172 461.923 890.226 456.661 880.497Z"/><path fill="#F9F8F8" transform="scale(0.878906 0.878906)" d="M744.202 791.4C744.788 791.504 744.976 791.391 745.022 791.894C745.454 796.131 746.471 800.509 748.033 804.505C749.893 809.26 750.945 814.84 753.059 819.427C756.07 825.963 761.494 832.571 766.451 837.694C768.525 837.561 770.822 837.25 772.906 837.016C767.251 843.528 762.557 847.747 755.482 852.58L755.595 844.552C752.097 840.572 747.638 834.571 744.262 830.287C743.996 829.958 743.727 829.631 743.457 829.306C742.696 828.394 741.191 826.591 740.227 826.076C732.974 822.202 719.004 818.473 711.118 817.785C713.936 814.314 722.442 805.626 726.619 804.841L727.496 805.623C727.578 806.931 727.604 807.948 727.609 809.244C729.208 811.128 736.974 814.76 739.717 816.144C738.061 809.73 737.53 803.896 732.198 800.092C736.571 795.465 738.331 793.818 744.202 791.4Z"/><path fill="#F9F8F8" transform="scale(0.878906 0.878906)" d="M343.048 841.449C349.124 843.549 355.647 847.616 360.816 851.398L356.898 854.316C356.573 858.495 356.154 862.666 355.64 866.827C358.383 864.385 366.51 859.567 367.28 857.896L366.458 855.927C367.763 852.132 379.736 859.098 382.462 860.432C373.122 866.762 365.726 870.491 356.48 878.533C354.457 882.397 349.168 894.726 347.881 898.664C348.712 900.95 350.125 903.891 349.119 906.095L348.276 906.385C344.667 905.004 333.726 900.786 332.029 897.491C331.628 896.711 331.897 896.625 332.204 895.644C333.772 894.126 335.356 893.968 337.507 893.403C339.799 888.064 344.563 879.204 344.632 873.996C344.771 863.57 345.249 851.588 343.048 841.449Z"/><path fill="#F9F8F8" transform="scale(0.878906 0.878906)" d="M213.23 715.742C216.341 718.162 232.407 744.418 235.822 749.703C232.123 751.492 228.893 753.451 225.37 755.538C223.135 755.199 218.835 755.638 217.844 753.615C218.855 751.744 223.136 749.347 225.037 748.243C223.42 746.326 222.778 745.434 221.455 743.302C214.081 749.638 201.732 757.814 193.25 764.558L188.913 768.179L191.615 774.381C189.952 775.448 189.664 775.667 187.829 776.308C187.028 775.715 175.422 757.905 173.769 755.52C177.905 755.693 181.378 755.794 185.507 755.686C192.8 750.867 199.737 745.586 206.774 740.408C208.981 738.784 218.448 732.423 212.53 729.858C211.052 730.388 210.273 731.11 209.03 732.05L208.156 731.896C206.191 728.528 211.568 719.305 213.23 715.742Z"/><path fill="#F9F8F8" transform="scale(0.878906 0.878906)" d="M305.375 818.478C314.538 822.314 329.044 831.711 337.04 837.916C333.941 842.312 331.394 847.107 328.001 851.278L323.938 846.989C324.667 844.935 325.792 842.651 325.335 840.627C324.477 839.19 324.536 839.295 323.069 838.464C319.704 839.378 304.371 865.145 300.805 870.242C300.187 871.604 300.525 878.106 300.507 880.197C297.627 878.992 286.606 872.186 284.284 869.846L284.711 868.97C286.756 867.599 288.678 867.307 291.078 866.684C297.866 855.145 305.463 843.951 312.238 832.514C312.557 831.975 312.03 831.438 311.737 830.933C310.154 829.948 310.199 829.878 308.274 829.561C306.581 830.556 306.137 832.282 305.098 834.296C301.889 833.878 300.524 833.448 297.44 832.527C299.537 827.81 302.637 822.883 305.375 818.478Z"/><path fill="#F9F8F8" transform="scale(0.878906 0.878906)" d="M822.686 682.894C827.504 684.653 832.899 688.504 837.282 691.388C833.414 692.988 830.589 694.2 826.902 696.142L821.848 706.038C832.797 709.791 843.883 716.54 854.994 719.809C856.063 720.124 858.21 719.574 859.855 719.641C860.007 721.897 854.341 733.586 851.786 734.414L850.908 733.686L850.843 731.872C850.523 731.259 850.24 730.95 849.666 730.554C846.157 728.136 820.484 715.429 818.277 715.78C816.706 718.375 817.945 721.686 818.62 724.705L804.908 719.215C811.1 713.817 818.799 691.499 822.686 682.894Z"/><path fill="#F9F8F8" transform="scale(0.878906 0.878906)" d="M790.709 736.355C791.396 737.028 791.836 738.233 792.298 738.939C796.242 744.954 820.902 766.623 827.003 765.329C831.239 761.383 827.802 754.003 833.374 751.059C836.959 750.866 838.964 753.119 841.859 755.397C838.674 760.949 834.81 766.956 831.432 772.456C828.914 776.232 825.797 784.359 821.083 783.95C817.734 781.602 820.513 777.577 819.3 776.495C810.337 768.501 796.451 756.081 785.779 750.73L778.894 753.534L779.138 752.982C781.999 746.376 785.988 741.778 790.709 736.355Z"/><path fill="#F9F8F8" transform="scale(0.878906 0.878906)" d="M272.905 791.673C273.352 791.937 273.794 792.208 274.233 792.485C277.014 794.261 286.926 800.675 287.59 803.782C278.959 808.07 277.495 811.115 271.008 818.175C265.765 823.936 260.372 829.558 254.835 835.036C261.658 842.088 262.804 841.424 272.226 844.13C270.322 845.563 268.227 847.364 266.358 848.892L261.952 852.896C255.047 846.3 247.026 841.219 238.853 833.297C251.769 827.846 257.984 814.904 267.709 805.612C276.519 797.196 270.485 797.575 272.905 791.673Z"/><path fill="#F9F8F8" transform="scale(0.878906 0.878906)" d="M840.034 639.218C841.797 640.719 844.544 645.232 845.85 647.269C855.091 661.679 860.329 666.008 877.195 670.894C878.931 670.116 880.571 669.099 882.311 669.572C882.905 671.539 876.566 680.498 875.53 685.685L872.851 681.007C868.664 679.342 864.542 677.517 860.495 675.534L855.739 673.168C847.073 673.982 838.781 673.102 830.301 673.781L826.185 677.175C827.835 670.918 829.21 666.972 832.029 661.171L835.73 663.6C840.129 663.75 843.085 663.786 847.455 663.497C845.875 660.411 841.898 656.371 839.461 653.264C838.008 654.365 837.193 655.226 835.404 655.49L834.647 654.908C834.238 651.816 838.593 643 840.034 639.218Z"/><path fill="#F9F8F8" transform="scale(0.878906 0.878906)" d="M177.932 638.115C179.98 643.278 186.173 655.774 186.352 660.724C185.679 661.092 185.999 661.078 185.414 660.942L186.295 660.836C183.69 660.898 181.142 656.992 178.649 657.736C165.195 661.752 150.785 666.927 137.621 671.455C139.323 673.988 139.822 674.698 141.957 676.903C139.818 677.709 137.875 678.402 135.81 679.4L135.52 678.734C133.231 671.342 129.777 664.912 127.741 657.393C130.703 657.62 137.415 658.183 140.145 657.487C147.364 655.649 168.155 649.156 173.85 645.812L174.061 645.172L173.166 644.248C174.287 642.012 176.253 640.031 177.932 638.115Z"/><path fill="#F9F8F8" transform="scale(0.878906 0.878906)" d="M921.803 621.645C922.256 619.775 923.023 615.846 923.553 614.313L924.165 614.087L923.694 613.944L924.261 613.455L924.177 612.936C924.991 614.478 923.121 621.762 922.666 623.599L921.803 621.645Z"/><path fill="#2A2929" transform="scale(0.878906 0.878906)" d="M135.52 678.734L135.81 679.4C135.721 680.863 136.352 684.182 136.595 685.794L136.191 685.912C134.997 683.281 134.585 681.495 135.52 678.734Z"/></svg>