<svg version="1.1" id="Layer_1" xmlns="http://www.w3.org/2000/svg" xmlns:xlink="http://www.w3.org/1999/xlink" x="0px" y="0px"
	 width="100%" viewBox="0 0 816 608" enable-background="new 0 0 816 608" xml:space="preserve">
<path fill="#000000" opacity="1.000000" stroke="none" 
	d="
M269.172119,549.258789 
	C280.674194,537.657288 292.350800,526.736450 300.742371,512.856750 
	C311.504425,495.056152 318.231323,475.925049 320.685730,455.313568 
	C323.792206,429.225739 320.420471,403.875763 310.969971,379.426941 
	C305.763885,365.958496 297.731445,354.130127 287.909149,343.539703 
	C262.324371,315.954010 230.958832,297.438660 195.810623,284.865540 
	C193.463409,284.025940 191.124130,283.195831 188.357727,280.866699 
	C224.219620,250.099457 264.451233,229.224518 312.143433,231.429214 
	C368.222961,234.021667 416.801422,255.281235 453.802460,300.180573 
	C450.794037,301.878876 449.562408,300.121155 448.208801,299.240509 
	C435.926025,291.249603 423.411530,283.630890 410.054077,277.581360 
	C393.402740,270.040039 375.815765,265.997162 357.641724,264.133606 
	C338.378662,262.158386 319.443848,263.291382 301.015289,269.424988 
	C296.162048,271.040314 291.625366,273.654755 287.029266,275.980225 
	C283.085052,277.975861 282.208649,280.734253 285.386963,284.296814 
	C291.028351,290.620239 296.708588,296.913391 302.191895,303.372620 
	C321.066406,325.606567 334.834564,350.468475 342.670685,378.777405 
	C347.284271,395.444794 350.137360,412.218475 349.958496,429.390717 
	C349.648865,459.122467 342.753815,487.334381 328.720093,513.679138 
	C326.530640,517.789368 324.260712,521.863037 322.245178,526.057922 
	C319.933624,530.868958 320.757874,533.635559 325.170074,536.633728 
	C330.395844,540.184753 336.353180,541.991150 342.505035,542.502075 
	C368.717041,544.679077 394.617004,542.348572 419.965179,535.437866 
	C430.786224,532.487610 440.206909,526.504700 448.566803,518.145691 
	C441.447754,515.000610 434.208893,515.308472 427.249207,514.343384 
	C412.903076,512.353882 398.521576,511.602264 384.198883,514.802673 
	C380.612793,515.603943 378.561554,513.890503 377.534760,510.477081 
	C373.173889,495.979675 370.040131,481.208862 367.864349,466.245758 
	C365.220551,448.064087 364.796021,429.696320 365.848358,411.446716 
	C367.305420,386.178833 370.578766,361.129089 382.364899,338.059113 
	C387.321411,328.357391 394.612793,323.301422 405.835297,323.685852 
	C422.457703,324.255249 438.861938,325.924286 453.313934,334.850586 
	C463.771484,341.309784 473.463531,349.002197 482.846924,356.975525 
	C506.556732,377.122375 529.067749,398.587494 551.689758,419.930054 
	C559.881409,427.658417 569.580200,429.827301 580.370422,426.761993 
	C586.931519,424.898132 593.384277,422.694458 599.613953,419.860565 
	C607.245361,416.389069 608.050842,413.313263 602.569275,406.964600 
	C599.090698,402.935760 595.460327,399.026581 591.731445,395.227325 
	C581.005249,384.298737 570.441528,373.221222 561.595825,360.678253 
	C560.056274,358.495270 556.437683,356.047089 558.917725,353.020142 
	C561.280701,350.136047 564.157959,353.316010 566.585144,354.216614 
	C592.052185,363.666168 618.047913,370.073090 645.495178,368.696564 
	C651.121582,368.414398 652.268066,367.013611 651.159790,361.568695 
	C648.934265,350.635132 646.793091,339.692017 640.344971,330.199982 
	C632.258301,318.296021 619.832336,313.663300 606.764771,310.366150 
	C586.131165,305.159912 565.176147,301.454254 544.087463,298.769562 
	C533.911316,297.474091 523.612305,296.350494 513.234253,297.857605 
	C506.081757,298.896271 505.159546,299.613922 505.256927,306.951141 
	C505.277893,308.531464 506.219177,310.204651 505.087585,311.746918 
	C483.741089,308.893890 424.531158,233.338120 420.663818,203.704758 
	C426.531403,201.733078 432.438385,202.979919 438.144135,204.200302 
	C463.723938,209.671463 486.311493,220.925400 505.853912,238.600388 
	C516.442932,248.177597 526.240295,258.698547 537.935974,267.020996 
	C553.675842,278.221222 571.645081,284.140411 590.159973,288.662415 
	C600.156860,291.104004 610.218384,293.463959 620.557312,293.589813 
	C632.624207,293.736755 636.845093,287.851349 633.212219,276.336823 
	C625.931580,253.260605 613.016968,233.349945 597.891846,214.807785 
	C573.452087,184.846664 542.747375,162.866409 507.925049,146.747604 
	C482.233093,134.855103 455.540466,125.553116 427.432159,120.884033 
	C418.948608,119.474831 411.380310,115.546143 403.773010,111.740868 
	C373.700714,96.698311 343.810486,81.237068 311.759491,70.624443 
	C308.764099,69.632622 305.634399,69.032936 302.669159,67.967064 
	C298.641998,66.519455 297.941437,68.580772 298.155731,71.856766 
	C298.564301,78.103500 301.234192,83.743446 303.013245,89.612587 
	C308.004639,106.079498 316.018036,121.279503 323.084930,136.874939 
	C323.752991,138.349258 324.794037,139.743210 324.274078,141.784180 
	C321.746765,142.092911 320.333862,140.227188 318.767151,139.002441 
	C305.198120,128.395035 290.474548,120.036354 273.144348,117.902679 
	C260.802032,116.383118 248.388672,115.797867 235.835205,116.715027 
	C223.060745,117.648323 210.378693,118.929192 197.779343,121.103317 
	C183.531036,123.562004 169.310318,126.162415 155.575378,130.880905 
	C153.551865,131.576065 151.377716,133.275284 148.534683,130.533142 
	C153.746033,126.030701 159.053085,121.945190 164.855026,118.556641 
	C188.232056,104.903572 213.823776,96.967773 239.803802,90.276840 
	C249.561234,87.763885 259.542572,85.555679 269.789917,85.968773 
	C274.180847,86.145782 274.996124,84.259369 273.480469,80.494751 
	C269.117035,69.656799 266.318878,58.378269 264.227203,46.911167 
	C263.989777,45.609627 263.835632,44.283634 263.766357,42.962509 
	C263.598328,39.758736 264.858307,38.567974 268.296692,39.017681 
	C312.926270,44.854794 354.864136,59.328140 395.617371,77.924934 
	C408.873657,83.974144 421.919861,90.856361 436.732544,92.892181 
	C443.155457,93.774925 444.769562,92.277336 442.996948,86.102600 
	C441.346466,80.353287 439.882355,74.550697 438.277191,68.787987 
	C437.868225,67.319664 437.394958,65.916115 438.512726,64.224739 
	C442.421143,63.685242 445.668457,66.066376 449.018433,67.521202 
	C481.337708,81.556755 512.240173,98.282974 540.750916,118.983543 
	C566.025513,137.334457 591.646484,155.408447 613.354736,178.156006 
	C638.708557,204.723679 658.354980,234.927216 670.618713,269.711029 
	C672.667969,275.523560 673.983398,281.534088 675.069458,287.586121 
	C675.908569,292.262451 674.738892,296.889008 672.040466,300.420746 
	C661.772705,313.858704 663.637390,328.674866 665.862305,343.852020 
	C668.620117,362.664185 670.367737,381.802643 667.157837,400.528381 
	C663.387146,422.525360 653.419067,442.087982 637.772217,458.455414 
	C628.907593,467.728210 619.385681,476.288361 609.868225,484.860809 
	C607.899536,486.633942 605.900757,488.413910 602.827698,488.737793 
	C600.735840,485.808533 602.029724,482.810333 602.501343,479.773651 
	C603.265503,474.853760 603.834595,469.900085 604.358276,464.947144 
	C605.053101,458.375824 608.009216,453.636169 614.592041,451.591339 
	C615.663330,451.258606 616.643433,450.632202 617.900757,450.028687 
	C616.869019,447.644257 614.963989,447.212463 612.997986,446.996826 
	C599.375549,445.502502 585.701111,446.476715 572.053772,446.151764 
	C568.373413,446.064148 567.007263,448.808838 565.196533,451.180756 
	C554.393005,465.332581 539.752808,474.910492 525.196228,484.574371 
	C524.555786,484.999542 523.676453,485.064819 522.972717,485.278229 
	C521.164124,483.834229 521.654907,482.183350 522.047302,480.596497 
	C524.999939,468.655212 527.951965,456.713654 530.965820,444.787750 
	C531.411255,443.025269 532.005249,441.254913 532.829895,439.641235 
	C537.260071,430.972076 535.858032,425.626862 527.106567,419.783325 
	C521.832397,424.041840 516.496033,428.507111 510.978394,432.735718 
	C508.444641,434.677521 505.887024,438.010071 502.356201,436.464996 
	C498.811310,434.913849 500.127136,430.935028 500.015106,427.894165 
	C499.788361,421.739044 499.756439,415.577026 499.609070,409.418671 
	C499.524353,405.878204 499.268799,402.340698 503.188660,400.333313 
	C504.078949,399.877380 504.366302,398.806305 504.303223,397.713715 
	C504.030823,392.996674 495.395020,382.545502 490.591309,381.163879 
	C489.336212,382.001740 489.788574,383.166901 489.937683,384.317474 
	C490.403015,387.907715 488.722046,390.482117 485.759613,392.176453 
	C482.726318,393.911346 479.602295,395.518646 476.408447,396.934753 
	C471.173798,399.255768 469.600555,398.382904 468.949615,392.531525 
	C468.306671,386.752228 467.780487,380.933350 467.714325,375.126038 
	C467.672150,371.427429 466.810638,367.882721 466.575928,364.238525 
	C466.387299,361.309509 464.278503,359.545441 462.020050,358.026093 
	C450.681610,350.398376 438.017822,347.399231 424.542450,345.806946 
	C411.626495,344.280731 403.299072,348.914246 397.262787,359.990997 
	C394.466278,365.122742 391.905640,370.294617 389.575195,375.635101 
	C388.235046,378.706238 389.386475,380.151917 391.900513,381.627838 
	C402.003815,387.559418 401.719635,387.473083 392.795593,394.776581 
	C384.196411,401.814240 381.050262,411.442780 382.292908,422.466248 
	C382.604645,425.231842 384.897369,426.143433 386.984406,427.177765 
	C391.540375,429.435730 396.474457,430.992828 400.999512,434.325348 
	C396.226776,440.577606 390.000061,444.579468 384.653809,449.460297 
	C381.019073,452.778656 379.633179,456.119019 380.881470,460.915710 
	C382.093689,465.573517 382.575378,470.418671 383.726532,475.095734 
	C385.115814,480.740295 387.825287,482.519043 393.574951,481.565247 
	C408.704865,479.055420 422.259766,473.223328 433.171570,462.105072 
	C435.011627,460.230194 436.659119,458.166351 438.149719,456.469666 
	C441.169434,457.382416 441.495483,458.970978 441.449890,460.997101 
	C441.307678,467.314545 439.653839,473.147034 436.170685,478.425476 
	C432.328949,484.247314 428.438446,490.036957 423.943085,496.779755 
	C434.567322,501.149780 445.496857,501.384491 456.232056,503.810272 
	C446.625397,499.090851 447.280731,489.810638 445.797302,481.754608 
	C442.771027,465.319641 442.960388,448.658142 443.630493,432.059723 
	C444.297028,415.550568 451.465576,401.283112 460.483521,387.840118 
	C461.139435,386.862305 462.086151,386.141510 463.640564,386.533844 
	C463.975281,390.600922 462.115784,394.203674 460.953186,397.939209 
	C460.081390,400.740540 459.767487,403.316315 463.092041,404.607819 
	C466.434845,405.906494 465.758484,407.696716 464.166565,409.981476 
	C458.684326,417.849945 454.068207,426.035919 454.133209,436.092957 
	C454.188629,444.667450 454.873901,445.619659 463.191071,446.848358 
	C463.644928,446.915405 464.058868,447.252625 464.581848,447.508331 
	C464.577301,450.130157 463.510071,452.471832 462.256195,454.520599 
	C458.427795,460.775970 458.967957,467.051453 461.031067,473.706573 
	C463.100281,480.381287 466.048279,486.321869 471.385010,491.012909 
	C474.153931,493.446869 476.772797,493.803314 479.973297,491.959717 
	C486.981720,487.922699 491.760223,481.818634 496.052216,475.200775 
	C496.909210,473.879333 497.418457,471.749268 499.486023,472.110535 
	C501.649078,472.488495 501.175964,474.706268 501.493774,476.234161 
	C504.837555,492.308685 500.973602,506.825226 490.495026,519.085266 
	C471.038025,541.850098 446.161377,554.881836 416.505341,559.648743 
	C386.531982,564.466553 356.415833,563.096130 326.345642,562.888428 
	C311.967468,562.789062 297.504608,561.634583 283.218414,559.309937 
	C277.287750,558.344910 271.629639,556.643127 266.231628,554.226562 
	C265.897125,551.705505 267.864960,550.884521 269.172119,549.258789 
M517.936218,265.429443 
	C510.530365,258.502869 503.166321,251.530807 495.704712,244.664810 
	C490.234222,239.631012 484.345367,235.282455 476.569336,233.805984 
	C477.202789,251.140991 504.087708,272.671204 520.933105,269.937805 
	C521.139648,267.941742 519.300720,267.217438 517.936218,265.429443 
M638.427917,408.992004 
	C636.149597,410.644897 633.981445,412.484955 631.566650,413.906097 
	C628.081970,415.957001 627.762207,418.660095 629.446533,421.907471 
	C630.588562,424.109283 631.711304,426.376740 633.222900,428.318878 
	C635.859680,431.706604 637.777466,431.444824 639.757507,427.607422 
	C642.879089,421.557617 645.392395,415.235992 647.494995,408.776398 
	C648.104431,406.903931 649.327332,404.782776 647.528076,402.162811 
	C644.258362,403.752655 641.440796,405.877228 638.427917,408.992004 
M483.604950,104.006233 
	C477.923126,96.544846 469.071014,93.719681 460.740204,87.646721 
	C462.401581,92.664848 462.101562,97.069176 466.732330,98.716873 
	C472.181091,100.655609 477.690826,102.422989 483.604950,104.006233 
z"/>
</svg>