<?xml version="1.0" encoding="UTF-8"?>
<svg xmlns="http://www.w3.org/2000/svg" xmlns:xlink="http://www.w3.org/1999/xlink" width="3151" height="2985" viewBox="0 0 3151 2985">
<rect x="-315.1" y="-298.5" width="3781.2" height="3582" fill="rgb(100%, 100%, 100%)" fill-opacity="1"/>
<path fill-rule="nonzero" fill="rgb(13.330078%, 11.376953%, 11.376953%)" fill-opacity="1" d="M 2326.828125 1365.179688 L 2194.511719 1485.109375 L 2191.308594 1556.691406 L 2047.410156 1691.039062 L 2050.609375 1619.339844 L 1894.890625 1764.648438 L 1922.421875 1634.488281 L 2055.539062 1511.289062 L 2058.558594 1443.039062 L 2202.269531 1309.429688 L 2199.070312 1381.371094 L 2355.101562 1233.960938 Z M 2233.878906 1305.910156 L 2237.261719 1230.019531 L 2027.820312 1425.050781 L 2024.429688 1498.359375 L 1864.820312 1647.121094 L 1811.289062 1883.910156 L 2015.988281 1692.148438 L 2012.609375 1768.71875 L 2221.679688 1573.628906 L 2225.429688 1497.121094 L 2386.089844 1350.511719 L 2439.621094 1113.839844 Z M 2233.878906 1305.910156 "/>
<path fill-rule="nonzero" fill="rgb(13.330078%, 11.376953%, 11.376953%)" fill-opacity="1" d="M 2718.148438 740.210938 C 2718.28125 739.960938 2717.539062 753.691406 2717.78125 753.328125 C 2725.730469 736.199219 2752.828125 675.589844 2765.398438 682.609375 C 2765.398438 682.609375 2784.738281 692.648438 2780.738281 767.988281 L 2763.921875 784.25 C 2762.140625 786.101562 2760.46875 789.058594 2760.289062 791.089844 L 2758.929688 806.671875 C 2758.75 808.640625 2760.160156 808.828125 2762.011719 806.980469 L 2778.578125 791.03125 C 2777.78125 801.371094 2771.679688 818.988281 2761.089844 834.578125 C 2759.300781 837.160156 2759.859375 845.050781 2760.410156 845.609375 C 2760.660156 846.03125 2766.078125 840.859375 2767.738281 839.941406 C 2776 842.03125 2779.941406 864.449219 2779.941406 864.449219 C 2780.058594 864.578125 2780.859375 863.839844 2781.601562 863.039062 L 2781.71875 862.980469 C 2782.46875 862.300781 2783.320312 861.441406 2783.390625 861.191406 C 2783.390625 861.191406 2797.128906 813.320312 2802.480469 806.429688 C 2804.210938 804.019531 2809.628906 798.730469 2810.058594 797.621094 C 2810.738281 795.949219 2812.960938 785.359375 2811.289062 786.03125 C 2801.75 789.980469 2797.859375 781.96875 2798.851562 771.441406 L 2815.421875 755.359375 C 2817.269531 753.628906 2818.929688 750.621094 2819.058594 748.578125 L 2820.410156 733 C 2820.589844 731.03125 2819.238281 730.839844 2817.390625 732.628906 L 2800.570312 748.890625 C 2809.941406 668.378906 2834.019531 614.109375 2834.019531 614.109375 C 2857 573.449219 2871.480469 598.210938 2877.699219 601.539062 C 2877.878906 601.609375 2878.070312 601.480469 2878.191406 601.480469 C 2879.609375 600.808594 2880.53125 598.890625 2880.351562 597.050781 C 2879.550781 579.238281 2880.101562 540.808594 2861.308594 544.128906 C 2861.308594 544.128906 2843.628906 541.671875 2816.039062 614.910156 C 2828.910156 565.691406 2832.851562 531.191406 2832.851562 531.191406 C 2832.851562 531.191406 2835.320312 496.820312 2821.890625 475.75 C 2821.03125 474.519531 2818.191406 471.441406 2815.171875 474.339844 C 2812.160156 477.230469 2808.339844 487.03125 2806.921875 490.171875 C 2786.589844 535.691406 2784.128906 572.21875 2784.128906 572.21875 C 2784.128906 572.21875 2781.71875 611.210938 2787.640625 642.320312 C 2769.710938 616.761719 2749.511719 643.25 2749.511719 643.25 C 2719.449219 684.089844 2717.660156 718.710938 2716.488281 739.53125 C 2715.878906 741.988281 2716.609375 742.359375 2718.148438 740.210938 "/>
<path fill-rule="nonzero" fill="rgb(13.330078%, 11.376953%, 11.376953%)" fill-opacity="1" d="M 2900.089844 790.441406 C 2900.089844 790.441406 2894.238281 850.941406 2848.648438 902.191406 C 2833.191406 919.441406 2749.71875 1011.21875 2649.441406 1116.441406 L 2686.269531 666.320312 L 2686.339844 666.261719 C 2687.140625 653.199219 2687.691406 644.699219 2687.808594 642.230469 C 2688.800781 622.890625 2670.320312 625.609375 2670.320312 625.609375 L 2493.648438 668.289062 L 2494.511719 667.980469 C 2724.71875 453.980469 2952.570312 242.140625 2952.570312 242.140625 Z M 2572.378906 1283.5 C 2572.378906 1283.5 2568.859375 1371.398438 2502.089844 1440.820312 C 2454.53125 1490.289062 1798.179688 2140.730469 1798.179688 2140.730469 C 1798.179688 2140.730469 1783.390625 2155.023438 1773.410156 2175.535156 C 1767.070312 2188.65625 1764.910156 2197.957031 1761.769531 2209.109375 C 1754.5 2235.105469 1701.039062 2504.914062 1687.851562 2573.167969 C 1686.871094 2578.28125 1685.691406 2581.667969 1684.53125 2584.316406 C 1683.289062 2586.90625 1678.609375 2593.558594 1678.609375 2593.558594 L 1613.558594 2677.828125 L 1657.910156 1678.421875 C 1657.910156 1678.421875 1656.988281 1643.121094 1676.820312 1601.730469 C 1687.910156 1578.75 1705.960938 1555.28125 1732.699219 1531.558594 C 1807.539062 1465.039062 2618.570312 754.71875 2618.570312 754.71875 Z M 1471.320312 2593.558594 C 1471.320312 2593.558594 1466.640625 2586.90625 1465.46875 2584.316406 C 1464.238281 2581.667969 1463.128906 2578.28125 1462.148438 2573.167969 C 1448.898438 2504.914062 1395.5 2235.105469 1388.160156 2209.109375 C 1385.089844 2197.957031 1382.871094 2188.65625 1376.519531 2175.535156 C 1366.539062 2155.023438 1351.761719 2140.730469 1351.761719 2140.730469 C 1351.761719 2140.730469 695.40625 1490.289062 647.851562 1440.820312 C 581.074219 1371.398438 577.5625 1283.5 577.5625 1283.5 L 531.363281 754.71875 C 531.363281 754.71875 1342.460938 1465.039062 1417.238281 1531.558594 C 1444.039062 1555.28125 1462.089844 1578.75 1473.109375 1601.730469 C 1492.949219 1643.121094 1492.019531 1678.421875 1492.019531 1678.421875 L 1536.378906 2677.828125 Z M 479.617188 625.609375 C 479.617188 625.609375 461.199219 622.890625 462.125 642.230469 C 462.246094 644.699219 462.800781 653.199219 463.664062 666.261719 L 463.664062 666.320312 L 500.5 1116.441406 C 400.214844 1011.21875 316.746094 919.441406 301.347656 902.191406 C 255.699219 850.941406 249.847656 790.441406 249.847656 790.441406 L 197.363281 242.140625 C 197.363281 242.140625 425.226562 453.980469 655.425781 667.980469 L 656.351562 668.289062 Z M 3027.910156 111.480469 C 3022.980469 109.820312 3017.011719 115.429688 3016.640625 115.730469 C 3016.640625 115.730469 2527.339844 560.179688 2386.089844 691.390625 C 2368.050781 707.71875 2364.78125 726.378906 2364.78125 726.378906 L 2343.769531 836.648438 L 2550.449219 731.371094 L 1575.128906 1573.328125 L 1574.941406 1573.210938 L 599.492188 731.371094 L 806.164062 836.648438 L 785.21875 726.378906 C 785.21875 726.378906 781.953125 707.71875 763.84375 691.390625 C 622.65625 560.179688 133.363281 115.730469 133.363281 115.730469 C 132.929688 115.429688 127.015625 109.820312 122.027344 111.480469 C 117.222656 113.089844 117.40625 118.378906 117.34375 120.480469 C 117.34375 120.480469 137.304688 315.871094 152.828125 498.828125 C 171.0625 713.941406 183.6875 803.199219 183.8125 804 C 191.574219 854.328125 221.082031 937.238281 279.109375 1005.25 C 289.949219 1017.871094 502.226562 1269.761719 504.445312 1272.351562 L 506.046875 1274.261719 L 518.671875 1361.238281 C 530.683594 1437.988281 564.996094 1507.421875 620.5 1567.480469 C 627.828125 1575.359375 647.664062 1596.980469 676.125 1627.96875 C 815.894531 1780.25 1149.890625 2143.75 1250.671875 2247.363281 C 1264.589844 2261.777344 1282.828125 2284.816406 1288.621094 2294.300781 C 1294.410156 2303.789062 1307.289062 2333.109375 1310.730469 2347.523438 C 1321.941406 2394.339844 1351.761719 2496.289062 1383.238281 2604.152344 L 1390.140625 2627.683594 C 1390.199219 2627.992188 1398.328125 2652.878906 1402.328125 2661.8125 C 1415.328125 2690.457031 1428.820312 2705.792969 1429.070312 2706.101562 L 1569.019531 2871.128906 C 1570.5 2872.730469 1572.601562 2873.777344 1574.878906 2873.777344 L 1575.058594 2873.777344 C 1577.398438 2873.777344 1579.5 2872.730469 1580.910156 2871.128906 L 1720.871094 2706.101562 C 1721.179688 2705.792969 1734.609375 2690.457031 1747.609375 2661.8125 C 1751.609375 2652.878906 1759.738281 2627.992188 1759.859375 2627.683594 L 1766.699219 2604.152344 C 1798.238281 2496.289062 1827.988281 2394.339844 1839.199219 2347.523438 C 1842.660156 2333.109375 1855.53125 2303.789062 1861.320312 2294.300781 C 1867.109375 2284.816406 1885.339844 2261.777344 1899.328125 2247.363281 C 2000.109375 2143.75 2334.039062 1780.25 2473.808594 1627.96875 C 2502.269531 1596.980469 2522.109375 1575.359375 2529.441406 1567.480469 C 2585 1507.421875 2619.25 1437.988281 2631.269531 1361.238281 L 2643.949219 1274.261719 L 2645.5 1272.351562 C 2647.710938 1269.761719 2859.988281 1017.871094 2870.828125 1005.25 C 2928.859375 937.238281 2958.429688 854.328125 2966.128906 804 C 2966.25 803.199219 2978.941406 713.941406 2997.171875 498.828125 C 3012.628906 315.871094 3032.660156 120.480469 3032.660156 120.480469 C 3032.53125 118.378906 3032.78125 113.089844 3027.910156 111.480469 "/>
<path fill-rule="nonzero" fill="rgb(13.330078%, 11.376953%, 11.376953%)" fill-opacity="1" d="M 1188.390625 1748.351562 L 1177.859375 1539.28125 L 1481.859375 1816.96875 L 1491.648438 2031.894531 Z M 890.117188 1659.339844 L 877.121094 1457.660156 L 1188.269531 1748.410156 L 1199.539062 1966.480469 Z M 585.503906 1185.128906 L 567.886719 981.480469 L 863.9375 1252.089844 L 876.996094 1457.351562 Z M 1166.890625 1333.039062 L 1177.789062 1538.96875 L 863.9375 1251.910156 L 851.554688 1057.128906 Z M 1166.890625 1333.039062 "/>
<path fill-rule="nonzero" fill="rgb(13.330078%, 11.376953%, 11.376953%)" fill-opacity="1" d="M 458.75 881.179688 L 257.683594 685.601562 L 236.371094 485.828125 L 448.152344 682.769531 L 465.957031 890.179688 Z M 458.75 881.179688 "/>
<path fill-rule="nonzero" fill="rgb(13.330078%, 11.376953%, 11.376953%)" fill-opacity="1" d="M 450.796875 498.820312 L 603.132812 640.191406 L 459.113281 605.390625 Z M 450.796875 498.820312 "/>
</svg>
