<?xml version="1.0" encoding="UTF-8"?>
<svg version="1.1" xmlns="http://www.w3.org/2000/svg" width="694" height="412">
<path d="M0 0 C0.98821485 -0.01062483 1.9764297 -0.02124967 2.99459046 -0.03219646 C4.07793839 -0.0388333 5.16128631 -0.04547013 6.27746296 -0.05230808 C7.43017588 -0.06304043 8.58288881 -0.07377277 9.77053243 -0.08483034 C12.9707492 -0.11333269 16.17096157 -0.13731739 19.37122977 -0.15913808 C22.1160297 -0.17859281 24.86079554 -0.20161951 27.60556843 -0.22453194 C53.62695792 -0.44051867 79.64921371 -0.55394516 105.6713028 -0.6453476 C109.05795275 -0.65745524 112.4446018 -0.66978893 115.83125019 -0.68232822 C117.09383196 -0.68698849 117.09383196 -0.68698849 118.38192043 -0.6917429 C132.01718456 -0.74357609 145.65155546 -0.84777786 159.28632995 -0.97212046 C173.28845277 -1.09875209 187.29011087 -1.17226857 201.29279119 -1.19575506 C209.15377114 -1.21040019 217.01307249 -1.24910382 224.87347698 -1.34863186 C231.56803881 -1.43339171 238.26073223 -1.4707728 244.95582392 -1.44637828 C248.37112125 -1.43543576 251.78235589 -1.44701135 255.19697475 -1.5201807 C275.18813387 -1.88409733 275.18813387 -1.88409733 280.06236768 1.52567077 C283.59917682 5.24512517 285.3111557 9.4187193 287.11323261 14.1621542 C288.17344051 15.99295179 289.26376498 17.80728958 290.40620136 19.58793545 C291.37344297 21.215419 292.33835538 22.84428948 293.30073261 24.4746542 C297.05721735 30.83603733 300.95591249 37.0539436 305.11323261 43.1621542 C307.37004302 39.44951259 309.62627344 35.73651926 311.88203144 32.02323818 C312.6449039 30.76761417 313.40791829 29.51207637 314.17109394 28.25663662 C315.28632268 26.42200057 316.40098983 24.58702421 317.51557636 22.75199795 C318.57407145 21.01006508 319.63928095 19.27121626 320.76205158 17.57000256 C322.27543748 15.03649779 322.27543748 15.03649779 323.38616657 11.52569866 C325.16214924 6.99052174 327.17078313 3.15194732 331.11323261 0.1621542 C338.96999499 -2.58073316 347.85198321 -1.81104566 356.05075991 -1.63746631 C359.51306484 -1.58066557 362.97477968 -1.61098796 366.43734455 -1.63031101 C373.21179414 -1.65457266 379.98337023 -1.59946648 386.75728018 -1.51784619 C394.65012146 -1.42604998 402.54243732 -1.41606603 410.43573277 -1.41001932 C424.52132121 -1.39671303 438.60561582 -1.31358665 452.69062519 -1.18916416 C466.34921906 -1.06860538 480.00710399 -0.99069783 493.66621113 -0.96357822 C494.50763014 -0.96189898 495.34904914 -0.96021974 496.2159657 -0.95848962 C499.59841584 -0.95181986 502.98086607 -0.94519652 506.36331654 -0.93869538 C519.39307115 -0.91237521 532.42270977 -0.85414112 545.45232515 -0.78972968 C549.38507903 -0.77034621 553.31782932 -0.75229513 557.25060296 -0.73739505 C565.51830724 -0.70577447 573.78565287 -0.66305388 582.05306108 -0.58454927 C585.47077644 -0.55223772 588.8882337 -0.52586101 592.30609608 -0.51654148 C596.01450736 -0.50281969 599.72187199 -0.4645498 603.43002033 -0.41980076 C605.04340159 -0.42193011 605.04340159 -0.42193011 606.68937641 -0.42410249 C613.65512646 -0.30414886 619.47339099 0.69389503 624.66891342 5.64450008 C628.13327536 9.60610796 629.23174179 12.6899917 629.271451 17.84295559 C629.28613611 19.29289268 629.28613611 19.29289268 629.3011179 20.77212143 C629.3068721 21.83548312 629.3126263 22.89884481 629.31855488 23.99442959 C629.32844315 25.12095786 629.33833141 26.24748613 629.34851933 27.40815163 C629.38037916 31.1920161 629.40507175 34.97589209 629.42963886 38.75981045 C629.45047702 41.45071133 629.47165814 44.14160785 629.4931612 46.83250332 C629.55606545 54.87267923 629.60904713 62.91290929 629.66092587 70.95316267 C629.68059188 73.97011092 629.70104005 76.98705363 629.7215234 80.00399643 C629.86316605 100.87694234 629.98340299 121.74996905 630.08992481 142.62312222 C630.10895264 146.34634558 630.12861554 150.06956526 630.14847487 153.79278427 C630.23839578 170.70013647 630.30787615 187.60733921 630.34440327 204.51490688 C630.35547023 209.47729484 630.37331568 214.43958716 630.39695454 219.40193081 C630.42411614 225.21390518 630.43657685 231.02572387 630.43736935 236.83775997 C630.43998769 238.95101847 630.44764566 241.06427794 630.46083355 243.17749691 C630.47785745 246.05253438 630.47612227 248.92697956 630.46967793 251.80204678 C630.48350435 253.03716047 630.48350435 253.03716047 630.49761009 254.29722595 C630.44877353 261.11290363 628.90807734 267.05569218 625.48823261 272.9746542 C619.13386823 278.82735823 611.80738182 279.76111874 603.47559834 279.78448391 C602.43985857 279.80271849 601.4041188 279.82095307 600.33699298 279.83974022 C596.88510894 279.89525971 593.43361354 279.92259997 589.98139668 279.94950771 C587.4987116 279.98277757 585.01604534 280.01747718 582.53339863 280.05349636 C575.10073984 280.15371234 567.66813377 280.21932845 560.23504031 280.27506891 C558.13305373 280.29102859 556.03107678 280.3079286 553.92910004 280.32513213 C540.85123609 280.43179142 527.77334047 280.52454939 514.69514561 280.57873535 C511.67272331 280.59147184 508.65030173 280.60436019 505.62788105 280.61747646 C504.50120615 280.62234623 504.50120615 280.62234623 503.35177013 280.62731438 C491.18340199 280.68228693 479.01758578 280.82309304 466.85042575 280.99890495 C454.33518151 281.17825233 441.82124392 281.27779587 429.30472064 281.30069393 C422.28550599 281.3155603 415.2703417 281.3650898 408.2524004 281.50474644 C401.64852844 281.63597387 395.05037232 281.65914552 388.44495869 281.61058903 C386.02807891 281.60998186 383.61087348 281.64506072 381.19513416 281.71930218 C363.45710604 282.23471941 363.45710604 282.23471941 357.89167595 277.12084556 C353.862304 272.10248178 351.00555792 266.61167624 348.34447432 260.77659214 C346.51975296 256.9019502 344.29151735 253.31001726 342.03901386 249.67387295 C341.26386921 248.36808548 340.49140676 247.06069819 339.72285175 245.75102139 C333.77840287 235.65321725 327.83104222 225.56497466 321.5680666 215.66044521 C318.14481592 210.24086848 314.80494033 204.77253439 311.48823261 199.2871542 C310.95399677 198.41091396 310.41976093 197.53467373 309.86933613 196.63188076 C309.38005634 195.81944912 308.89077656 195.00701748 308.38667011 194.1699667 C307.9475832 193.44438564 307.50849628 192.71880459 307.05610371 191.97123623 C306.11323261 190.1621542 306.11323261 190.1621542 306.11323261 188.1621542 C305.45323261 188.1621542 304.79323261 188.1621542 304.11323261 188.1621542 C303.88764668 188.81055264 303.66206074 189.45895107 303.42963886 190.12699795 C301.65409826 194.22075181 299.37039563 197.91865329 297.05073261 201.7246542 C296.52761494 202.58961514 296.00449726 203.45457607 295.46552753 204.34574795 C293.68524604 207.28688111 291.89932156 210.22454461 290.11323261 213.1621542 C288.78748442 215.34821425 287.46197133 217.53441689 286.13667011 219.72074795 C282.55076248 225.63427486 278.95950433 231.54454098 275.36713886 237.45414639 C271.91968373 243.12539042 268.47407611 248.79775627 265.02909565 254.47050381 C263.96014086 256.23050217 262.89083135 257.99028461 261.82148457 259.75004482 C261.16108173 260.83736904 260.5006789 261.92469326 259.82026386 263.0449667 C258.96138569 264.45866543 258.96138569 264.45866543 258.08515644 265.90092373 C256.14638732 268.97319485 256.14638732 268.97319485 254.97064102 271.62514704 C251.4770105 278.59128422 251.4770105 278.59128422 247.90351892 280.08712828 C245.16022797 280.43531347 242.56727456 280.46244267 239.80271626 280.38488674 C238.24765977 280.40087816 238.24765977 280.40087816 236.66118801 280.41719264 C233.18667002 280.44069386 229.7168429 280.39272345 226.24262714 280.34501553 C223.75228384 280.34710606 221.26194094 280.35355622 218.77161884 280.36404324 C212.70904584 280.37811281 206.64830651 280.34594653 200.58608235 280.29274169 C193.52305571 280.23291527 186.46029587 280.22721668 179.39705442 280.22410675 C166.79091007 280.21685574 154.1854065 280.16278042 141.57954121 280.08134365 C129.35553998 280.00243433 117.13191685 279.9528211 104.90766621 279.93778896 C104.1550689 279.93685794 103.40247159 279.93592691 102.6270683 279.93496767 C101.11087498 279.93311579 99.59468167 279.93126937 98.07848834 279.92942844 C97.33050542 279.92851818 96.5825225 279.92760792 95.81187344 279.92667007 C95.06574447 279.92577566 94.3196155 279.92488124 93.55087657 279.92395972 C81.89190579 279.90900758 70.23299657 279.87066116 58.57409648 279.82851133 C55.05499506 279.81589811 51.53589734 279.80446207 48.01678419 279.79565167 C39.98912602 279.77548687 31.96180555 279.74162894 23.93430042 279.68441105 C21.50272064 279.6692688 19.0711038 279.65912349 16.63948154 279.65435314 C13.3186319 279.64685437 9.99842089 279.62092731 6.67771626 279.59020901 C5.23635813 279.593085 5.23635813 279.593085 3.76588166 279.59601909 C-2.73821498 279.50799271 -8.68367316 278.77162479 -13.91020489 274.5137167 C-14.57922832 273.65906826 -14.57922832 273.65906826 -15.26176739 272.7871542 C-15.72325176 272.22254482 -16.18473614 271.65793545 -16.66020489 271.0762167 C-20.2174542 265.52509516 -20.17502478 260.53173432 -20.15419292 254.12374783 C-20.15872404 253.10423214 -20.16325515 252.08471645 -20.16792357 251.03430635 C-20.18059711 247.61357887 -20.17894527 244.19301 -20.17729473 240.77226162 C-20.18327813 238.3214793 -20.19008324 235.87069887 -20.19764996 233.41992092 C-20.21349873 227.45083432 -20.21975919 221.48181021 -20.22087471 215.51270839 C-20.22182555 210.6597247 -20.22593765 205.80675402 -20.23227596 200.95377445 C-20.24988672 187.18945179 -20.25911513 173.4251603 -20.25761501 159.66082629 C-20.2575351 158.9190062 -20.25745519 158.17718611 -20.25737286 157.41288662 C-20.25729109 156.67015892 -20.25720933 155.92743122 -20.25712509 155.16219661 C-20.25631232 143.12719295 -20.27544827 131.09231448 -20.30364959 119.05734702 C-20.33238951 106.69480551 -20.34618927 94.33232503 -20.34446204 81.96974927 C-20.3437985 75.03116208 -20.34927475 68.09270612 -20.37081814 61.15414906 C-20.39095142 54.62800279 -20.3903449 48.1020862 -20.37578487 41.57590961 C-20.37369202 39.18138887 -20.37842588 36.78685092 -20.39050579 34.39235973 C-20.40593616 31.12175059 -20.39666373 27.85209993 -20.38124371 24.5815115 C-20.39153083 23.63548775 -20.40181796 22.68946401 -20.41241682 21.71477288 C-20.34179578 14.92958706 -18.93317959 9.30877733 -14.10551739 4.32231045 C-13.25473614 3.7789706 -13.25473614 3.7789706 -12.38676739 3.2246542 C-11.81957989 2.84438076 -11.25239239 2.46410732 -10.66801739 2.07231045 C-7.18635841 0.29330487 -3.86845952 0.03268396 0 0 Z " fill="#D70A2C" transform="translate(24.886767387390137,7.837845802307129)"/>
<path d="M0 0 C7.97986759 -0.20890505 15.95858617 -0.36862274 23.94051552 -0.46630955 C27.64736384 -0.51320609 31.35233674 -0.5767559 35.05810547 -0.67895508 C38.63740687 -0.77704411 42.21491013 -0.83061434 45.79545212 -0.85389519 C47.15841363 -0.87047461 48.52128086 -0.90285642 49.88347244 -0.95157051 C60.50118445 -1.31603317 60.50118445 -1.31603317 64.05012512 1.80010986 C65.63232346 4.12944057 66.82742346 6.442744 68 9 C68.75599527 10.27084902 69.52650081 11.53322803 70.31420898 12.78466797 C71.04394361 14.01906879 71.77118953 15.25494383 72.49609375 16.4921875 C73.09104393 17.49936325 73.09104393 17.49936325 73.69801331 18.52688599 C74.94690415 20.64152241 76.19253531 22.7580501 77.4375 24.875 C84.12240565 36.24107628 84.12240565 36.24107628 90.97265625 47.5078125 C91.512854 48.38324707 92.05305176 49.25868164 92.60961914 50.16064453 C93.06844482 50.76763184 93.52727051 51.37461914 94 52 C94.66 52 95.32 52 96 52 C97.24427436 50.35745387 97.24427436 50.35745387 98.44140625 48.171875 C98.93479492 47.32206055 99.42818359 46.47224609 99.93652344 45.59667969 C100.4730957 44.65727539 101.00966797 43.71787109 101.5625 42.75 C102.72346616 40.74895793 103.88632577 38.74901356 105.05078125 36.75 C105.67936035 35.66976562 106.30793945 34.58953125 106.95556641 33.4765625 C110.63892267 27.18574519 114.45390876 20.97315321 118.25 14.75 C119.36943556 12.91462597 120.48871649 11.0791599 121.60713196 9.24316406 C122.58126257 7.64430752 123.55670223 6.04624875 124.53222656 4.44824219 C125.97886585 2.10588956 125.97886585 2.10588956 127 0 C147.46 0 167.92 0 189 0 C187.5743787 3.56405325 186.24422458 6.4931419 184.33984375 9.75390625 C183.80238525 10.6761499 183.26492676 11.59839355 182.71118164 12.54858398 C182.1258667 13.54317627 181.54055176 14.53776855 180.9375 15.5625 C180.01408813 17.13849976 180.01408813 17.13849976 179.07202148 18.74633789 C173.25003397 28.64597072 167.29173277 38.46126032 161.3142395 48.26745605 C160.95788422 48.85208618 160.60152893 49.43671631 160.234375 50.0390625 C159.87938934 50.62143677 159.52440369 51.20381104 159.15866089 51.80383301 C154.89610258 58.80311494 150.68166628 65.83139895 146.49072266 72.8737793 C143.35701526 78.12774518 140.16922994 83.33603174 136.8828125 88.49609375 C135.89027466 90.07136841 135.89027466 90.07136841 134.87768555 91.6784668 C133.61307732 93.68048469 132.33392064 95.67340892 131.03833008 97.65551758 C130.19757935 98.993927 130.19757935 98.993927 129.33984375 100.359375 C128.58755493 101.52678223 128.58755493 101.52678223 127.82006836 102.71777344 C126.74919478 105.0129389 126.74919478 105.0129389 127.67382812 107.47924805 C129.01303718 110.02478072 130.390377 112.51106599 131.87890625 114.97265625 C132.46140137 115.93985596 133.04389648 116.90705566 133.64404297 117.90356445 C134.27713379 118.94601318 134.91022461 119.98846191 135.5625 121.0625 C136.22652832 122.16231201 136.89055664 123.26212402 137.57470703 124.39526367 C139.35230409 127.33865376 141.13476628 130.27906475 142.91888428 133.21850586 C143.97869977 134.96490085 145.03760567 136.71184374 146.09619141 138.45898438 C149.96549518 144.84446538 153.8410753 151.22610853 157.72061157 157.6053772 C160.34119847 161.91495912 162.95845218 166.22655334 165.57421875 170.5390625 C166.33348991 171.79061248 167.09276719 173.04215874 167.85205078 174.29370117 C169.27392174 176.63741938 170.69542136 178.98136138 172.11669922 181.32543945 C172.77041504 182.40269287 173.42413086 183.47994629 174.09765625 184.58984375 C174.73203613 185.63640137 175.36641602 186.68295898 176.02001953 187.76123047 C177.4256319 190.06047261 178.84140426 192.35037009 180.27294922 194.63330078 C180.64471786 195.22873184 181.01648651 195.8241629 181.39952087 196.43763733 C182.43931564 198.10059999 183.48404358 199.76047513 184.52905273 201.42016602 C186 204 186 204 186 206 C259.59 206 333.18 206 409 206 C409 221.51 409 237.02 409 253 C404 258 404 258 401.78241223 258.62099248 C401.02790793 258.61909388 400.27340364 258.61719528 399.49603558 258.61523914 C398.61871484 258.62519439 397.74139409 258.63514963 396.83748788 258.64540654 C395.88320596 258.63084234 394.92892404 258.61627813 393.94572449 258.60127258 C392.92464783 258.60554471 391.90357116 258.60981683 390.85155278 258.61421841 C387.42557453 258.62246291 384.00081688 258.59493778 380.57495117 258.56762695 C378.12104318 258.56621681 375.66713308 258.5670078 373.21322632 258.56983948 C367.92784581 258.57097855 362.64284619 258.5567855 357.35756493 258.52865028 C349.71602394 258.48799846 342.07463216 258.47499139 334.43299476 258.46871033 C322.03475366 258.45776974 309.63667714 258.42450206 297.23852539 258.37719727 C285.19556501 258.3312955 273.15264935 258.29590665 261.10961914 258.2746582 C260.36717086 258.27334459 259.62472258 258.27203097 258.85977586 258.27067754 C255.13509557 258.26415231 251.41041497 258.25783378 247.68573415 258.25161803 C216.79036977 258.19979238 185.89520989 258.11136172 155 258 C154.4621991 257.05544952 153.92439819 256.11089905 153.37030029 255.13772583 C152.65152355 253.87711668 151.93271059 252.61652817 151.21386719 251.35595703 C150.86097626 250.73594315 150.50808533 250.11592926 150.14450073 249.47712708 C146.95028539 243.8786315 143.62376325 238.36704733 140.25 232.875 C139.02288407 230.868828 137.796331 228.86231161 136.5703125 226.85546875 C135.66587402 225.37506104 135.66587402 225.37506104 134.74316406 223.86474609 C132.18033587 219.65294973 129.65229069 215.4206795 127.125 211.1875 C122.41906068 203.31390175 117.62734781 195.49488131 112.8125 187.6875 C102.79879157 171.43622869 102.79879157 171.43622869 99.5 166 C99.13237549 165.40147217 98.76475098 164.80294434 98.38598633 164.1862793 C96 160.23183248 96 160.23183248 96 158 C93.1380977 160.55033962 91.4153406 163.44563783 89.48828125 166.7421875 C89.15636276 167.30640411 88.82444427 167.87062073 88.48246765 168.45193481 C87.42148848 170.25712829 86.36671104 172.06584719 85.3125 173.875 C83.9356303 176.22775971 82.55622754 178.57902476 81.17578125 180.9296875 C80.65732132 181.81331718 80.65732132 181.81331718 80.12838745 182.71479797 C77.15350261 187.77085571 74.08870019 192.76878699 71.00268555 197.7578125 C67.55425011 203.34055328 64.15436841 208.95282218 60.75 214.5625 C60.38482269 215.16373688 60.01964539 215.76497375 59.6434021 216.38442993 C55.89197882 222.56103221 52.1474671 228.74134332 48.44140625 234.9453125 C47.64041504 236.28613892 47.64041504 236.28613892 46.82324219 237.65405273 C45.85684939 239.27465035 44.89246086 240.89644591 43.93066406 242.51977539 C43.0938415 243.92404305 42.24564344 245.32164194 41.38237321 246.70980769 C40.46721469 248.22596049 39.60114667 249.77293738 38.78904879 251.34670085 C35.34530968 257.48833128 35.34530968 257.48833128 31.82088542 258.82879412 C29.1281957 259.1490467 26.56349315 259.17633059 23.85238647 259.10920715 C22.83327765 259.11971924 21.81416883 259.13023133 20.76417792 259.14106196 C17.34975068 259.16525153 13.93913717 259.1251273 10.52490234 259.08520508 C8.07732743 259.08921482 5.62975625 259.09712876 3.1822052 259.10865784 C-2.77460073 259.12629814 -8.72991461 259.10221629 -14.68647934 259.05881897 C-21.62258616 259.01008616 -28.55845663 259.00891881 -35.49470477 259.00972112 C-47.86910767 259.00953492 -60.24298519 258.96626245 -72.6171875 258.89868164 C-84.6260549 258.83313486 -96.63450566 258.79774396 -108.64355469 258.79614258 C-109.38347863 258.79603968 -110.12340258 258.79593678 -110.88574846 258.79583076 C-111.62439104 258.7957325 -112.36303363 258.79563424 -113.12405932 258.795533 C-126.79591176 258.79355313 -140.46759429 258.76531414 -154.13938028 258.72361616 C-158.97515035 258.70939541 -163.81089902 258.70262345 -168.64668655 258.69800758 C-175.15240961 258.69114695 -181.65777961 258.66164348 -188.16337013 258.61707115 C-190.55470157 258.60376324 -192.94608166 258.59725822 -195.33745003 258.59794617 C-198.59417599 258.59767087 -201.84979998 258.57288895 -205.10635376 258.5415802 C-206.0594558 258.54709249 -207.01255784 258.55260478 -207.99454176 258.5582841 C-214.36388675 258.45952837 -214.36388675 258.45952837 -217.55585289 256.15365124 C-226.87768469 242.252038 -220 222.73772382 -220 206 C-146.08 206 -72.16 206 4 206 C4.66 204.35 5.32 202.7 6 201 C7.15412548 198.89154144 8.34560714 196.8033351 9.5625 194.73046875 C9.90961533 194.13765106 10.25673065 193.54483337 10.61436462 192.93405151 C11.73909786 191.01626464 12.86923782 189.10173735 14 187.1875 C14.78461109 185.8540997 15.56919755 184.52068492 16.35375977 183.18725586 C20.48939463 176.17214671 24.67535898 169.19592439 29.04321289 162.32250977 C34.28636106 154.03692006 39.27654417 145.59368588 44.29394531 137.17016602 C47.67826778 131.49441035 51.07149754 125.83589655 54.640625 120.2734375 C55.42578491 119.03956299 55.42578491 119.03956299 56.22680664 117.78076172 C57.16736223 116.31215561 58.12132929 114.85200945 59.09155273 113.40283203 C60.91028251 110.54920215 61.98642881 108.48468524 62.08203125 105.0703125 C60.5792017 100.80596582 58.39410281 97.19697405 56 93.375 C55.2107312 92.08758911 55.2107312 92.08758911 54.40551758 90.77416992 C53.24093904 88.87472006 52.07252631 86.97761723 50.90087891 85.08251953 C47.83024544 80.1030926 44.80179145 75.09806838 41.76904297 70.09552002 C40.67784304 68.29657963 39.58522427 66.49850843 38.4921875 64.70068359 C33.19329593 55.9832803 27.93524602 47.24200768 22.69775391 38.48754883 C19.24858042 32.72832344 15.77851007 26.98249346 12.28515625 21.25 C11.69321976 20.27806702 11.69321976 20.27806702 11.08932495 19.28649902 C9.15622675 16.1130272 7.2206508 12.94110838 5.28125 9.77148438 C4.58455477 8.62895543 3.88793612 7.48637977 3.19140625 6.34375 C2.57467041 5.33505859 1.95793457 4.32636719 1.32250977 3.28710938 C0 1 0 1 0 0 Z " fill="#FEFDFD" transform="translate(235,18)"/>
<path d="M0 0 C1.11735535 -0.00852997 2.23471069 -0.01705994 3.38592529 -0.02584839 C4.60733719 -0.02494202 5.82874908 -0.02403564 7.08717346 -0.02310181 C8.37695099 -0.02981903 9.66672852 -0.03653625 10.99559021 -0.04345703 C14.53071929 -0.06111434 18.06575153 -0.06581224 21.60092044 -0.0670886 C23.81010936 -0.06851073 26.01927369 -0.07278144 28.2284565 -0.07808304 C35.93707466 -0.09658125 43.64562368 -0.10475377 51.35426331 -0.10317993 C58.53777152 -0.10197804 65.72097951 -0.12308998 72.90441173 -0.15466726 C79.07438521 -0.18082224 85.24426057 -0.19154759 91.41428906 -0.19026911 C95.09829552 -0.18975931 98.78203505 -0.19545213 102.46598625 -0.21662521 C106.57429909 -0.23959328 110.68193922 -0.23049159 114.79029846 -0.21841431 C116.00968613 -0.22965332 117.22907379 -0.24089233 118.4854126 -0.25247192 C126.72621874 -0.19075664 126.72621874 -0.19075664 130.73550415 2.17279053 C133.34820846 5.26831171 133.62735084 6.93089902 133.61695862 10.90072632 C133.61688309 11.86157135 133.61680756 12.82241638 133.61672974 13.81237793 C133.61156845 14.85199677 133.60640717 15.8916156 133.60108948 16.96273804 C133.59896706 18.55660843 133.59896706 18.55660843 133.59680176 20.18267822 C133.59119156 23.58595563 133.57863732 26.98916792 133.56593323 30.39242554 C133.56091954 32.69581001 133.55635641 34.9991955 133.55226135 37.30258179 C133.54121882 42.95755203 133.52447074 48.61248413 133.50343323 54.26742554 C132.36559891 54.277733 131.22776459 54.28804047 130.05545044 54.29866028 C119.35706912 54.39621691 108.65874828 54.49893368 97.96046543 54.60676479 C92.45975355 54.66204053 86.9590364 54.71546782 81.45826721 54.76473999 C76.1544204 54.81231512 70.85064047 54.86465517 65.54687309 54.92036629 C63.51859632 54.94082099 61.49030118 54.9595288 59.46199226 54.97649956 C56.63141839 55.00047486 53.80097218 55.03053841 50.97047424 55.06210327 C50.12315231 55.06785873 49.27583038 55.0736142 48.40283203 55.07954407 C44.64673578 54.76799651 44.64673578 54.76799651 41.50343323 56.26742554 C41.00301176 59.18280583 41.00301176 59.18280583 41.50343323 62.26742554 C44.96133745 64.78010384 48.61913737 66.14875909 52.64454651 67.51644897 C54.473983 68.14290314 54.473983 68.14290314 56.34037781 68.78201294 C57.66815159 69.23032145 58.99594133 69.6785827 60.32374573 70.12680054 C61.70617262 70.5984199 63.08840185 71.07061902 64.47044373 71.54336548 C68.11437775 72.78843002 71.76048793 74.02698604 75.40724182 75.26376343 C87.11572315 79.23651369 98.81571044 83.23401222 110.50343323 87.26742554 C111.56622498 87.63311646 112.62901672 87.99880737 113.72401428 88.37557983 C116.42371823 89.3104517 119.1170284 90.26122179 121.80812073 91.22055054 C122.55465912 91.47769836 123.30119751 91.73484619 124.07035828 91.99978638 C128.14927537 93.48051296 130.93180531 94.74290278 133.50343323 98.26742554 C134.08350218 101.38640926 134.00845216 104.46184362 133.95753479 107.62582397 C133.95801693 108.58778812 133.95849907 109.54975227 133.95899582 110.54086685 C133.95601137 113.65322176 133.92555695 116.76461717 133.89405823 119.87680054 C133.88817673 121.79883361 133.88409624 123.72087306 133.8818512 125.64291382 C133.86088384 132.76784879 133.8050389 139.8926466 133.75343323 147.01742554 C133.67093323 162.93992554 133.58843323 178.86242554 133.50343323 195.26742554 C84.99343323 195.26742554 36.48343323 195.26742554 -13.49656677 195.26742554 C-13.49656677 178.10742554 -13.49656677 160.94742554 -13.49656677 143.26742554 C-7.0228949 143.23004272 -0.54922302 143.19265991 6.12062073 143.15414429 C10.21309569 143.12388104 14.30552627 143.09274401 18.39796448 143.05844116 C24.89875612 143.00403528 31.39945998 142.95292908 37.90040588 142.92098999 C43.13952803 142.89504833 48.37835685 142.85471145 53.61729813 142.80423927 C55.61960842 142.78750849 57.62196953 142.77603306 59.62434006 142.76981163 C62.4214301 142.76023778 65.21775908 142.73226031 68.0146637 142.69979858 C68.84903961 142.70123367 69.68341553 142.70266876 70.54307556 142.70414734 C73.07760653 142.69764696 73.07760653 142.69764696 76.50343323 142.26742554 C78.76015684 139.51750523 78.76015684 139.51750523 78.40620422 136.74252319 C77.71515416 134.15190911 77.71515416 134.15190911 75.56599426 132.80404663 C74.73871826 132.42844604 73.91144226 132.05284546 73.05909729 131.66586304 C72.15099304 131.25304077 71.24288879 130.84021851 70.30726624 130.41488647 C66.13029475 128.7054724 61.91846808 127.2413373 57.61280823 125.89242554 C56.25219269 125.45470825 56.25219269 125.45470825 54.86408997 125.00814819 C51.99623924 124.08696613 49.12509082 123.17666261 46.25343323 122.26742554 C42.476284 121.06253998 38.7005418 119.85329877 34.92530823 118.64242554 C33.56139954 118.20575058 33.56139954 118.20575058 32.16993713 117.76025391 C24.88751026 115.41777865 17.68960144 112.89117381 10.50343323 110.26742554 C8.80595521 109.67502128 7.10807894 109.08375612 5.40968323 108.49398804 C3.94041228 107.9615693 2.47164239 107.42776534 1.00343323 106.89242554 C0.2583551 106.63976929 -0.48672302 106.38711304 -1.25437927 106.12680054 C-6.77970724 104.07676719 -10.38810865 101.3336039 -13.49656677 96.26742554 C-14.29626444 93.31622619 -14.30024156 90.53443444 -14.24119568 87.48983765 C-14.24849701 86.64013901 -14.25579834 85.79044037 -14.26332092 84.91499329 C-14.27944968 82.12408902 -14.25239107 79.33553794 -14.22312927 76.54476929 C-14.22209112 74.59616599 -14.22313019 72.64756058 -14.22615051 70.69895935 C-14.22597145 66.62274751 -14.20519097 62.54732993 -14.16893005 58.47128296 C-14.123525 53.25346855 -14.12247635 48.03681202 -14.13596535 42.81885433 C-14.14265611 38.79784399 -14.12936456 34.7770964 -14.10970688 30.75613594 C-14.10202406 28.83246804 -14.09969766 26.90877087 -14.10287857 24.98509026 C-14.10362252 22.29470234 -14.07831272 19.60578519 -14.04588318 16.9156189 C-14.05083801 16.12532288 -14.05579285 15.33502686 -14.06089783 14.52078247 C-13.96184673 9.35784105 -12.97073525 6.31990432 -9.49656677 2.26742554 C-6.29787826 0.2272998 -3.75646721 0.01297179 0 0 Z " fill="#FEFCFD" transform="translate(510.49656677246094,17.732574462890625)"/>
<path d="M0 0 C1.17647095 0.00151062 1.17647095 0.00151062 2.37670898 0.00305176 C5.31104999 0.00829014 8.24537019 0.02225138 11.1796875 0.03515625 C17.7384375 0.05578125 24.2971875 0.07640625 31.0546875 0.09765625 C31.0546875 23.85765625 31.0546875 47.61765625 31.0546875 72.09765625 C37.9846875 72.09765625 44.9146875 72.09765625 52.0546875 72.09765625 C52.0546875 48.33765625 52.0546875 24.57765625 52.0546875 0.09765625 C67.5646875 0.09765625 83.0746875 0.09765625 99.0546875 0.09765625 C99.0546875 64.44765625 99.0546875 128.79765625 99.0546875 195.09765625 C83.5446875 195.09765625 68.0346875 195.09765625 52.0546875 195.09765625 C52.0546875 171.33765625 52.0546875 147.57765625 52.0546875 123.09765625 C45.1246875 123.09765625 38.1946875 123.09765625 31.0546875 123.09765625 C31.0546875 146.85765625 31.0546875 170.61765625 31.0546875 195.09765625 C15.5446875 195.09765625 0.0346875 195.09765625 -15.9453125 195.09765625 C-16.05813234 170.54146448 -16.15025753 145.98548218 -16.20437336 121.42909718 C-16.2301669 110.02742555 -16.26533957 98.62592626 -16.32250977 87.22436523 C-16.37230932 77.28801809 -16.40459514 67.35179572 -16.41575497 57.41532725 C-16.42227954 52.15283971 -16.43763823 46.89070919 -16.47396278 41.62833595 C-16.50786765 36.67644663 -16.51837655 31.72506184 -16.51085091 26.77306747 C-16.51222792 24.9545626 -16.52219321 23.13604109 -16.54133987 21.31763649 C-16.5661927 18.8358359 -16.5602473 16.35594382 -16.54658508 13.87409973 C-16.56114929 13.15327471 -16.5757135 12.43244969 -16.59071904 11.68978149 C-16.53262281 7.78965554 -16.05058875 6.22522843 -13.53273296 3.17412853 C-9.08146744 -0.39812793 -5.51640987 -0.03306826 0 0 Z " fill="#FEFCFC" transform="translate(30.9453125,17.90234375)"/>
<path d="M0 0 C28.71 0 57.42 0 87 0 C87 17.82 87 35.64 87 54 C73.47 54 59.94 54 46 54 C46 59.94 46 65.88 46 72 C58.54 72 71.08 72 84 72 C84 88.83 84 105.66 84 123 C71.46 123 58.92 123 46 123 C46 129.27 46 135.54 46 142 C60.19 142 74.38 142 89 142 C89 159.49 89 176.98 89 195 C59.63 195 30.26 195 0 195 C0 130.65 0 66.3 0 0 Z " fill="#FEFDFE" transform="translate(141,18)"/>
<path d="M0 0 C17.16 0 34.32 0 52 0 C52 64.35 52 128.7 52 195 C34.84 195 17.68 195 0 195 C0 130.65 0 66.3 0 0 Z " fill="#FEFEFE" transform="translate(432,18)"/>
<path d="M0 0 C5.28 0 10.56 0 16 0 C19.86287794 4.17828127 21.79508341 6.89552549 24.25 11.8125 C24.90084775 13.00370659 25.55807527 14.19144822 26.22143555 15.37573242 C27.551001 17.76094133 28.85157067 20.15856952 30.13232422 22.5703125 C32.79942961 27.46802447 35.78040325 32.13527956 38.8125 36.8125 C39.7583439 38.29701048 40.70249799 39.78259971 41.64453125 41.26953125 C42.02971924 41.87385986 42.41490723 42.47818848 42.81176758 43.10083008 C44.23870856 45.38153151 45.61584772 47.69307953 47 50 C47.33 33.5 47.66 17 48 0 C53.61 0 59.22 0 65 0 C65 28.38 65 56.76 65 86 C49 86 49 86 45.0859375 82.1796875 C44.12233909 80.44340173 43.2210603 78.6714944 42.375 76.875 C41.33655136 74.9539861 40.29476482 73.0347736 39.25 71.1171875 C38.46689453 69.61430176 38.46689453 69.61430176 37.66796875 68.08105469 C34.85066311 62.87695674 31.59944577 57.9581804 28.375 53 C27.21414157 51.18878302 26.05515726 49.3763629 24.8984375 47.5625 C24.41036621 46.80066406 23.92229492 46.03882813 23.41943359 45.25390625 C21.91060133 42.85804463 20.45673435 40.42789059 19 38 C18.67 53.84 18.34 69.68 18 86 C12.06 86 6.12 86 0 86 C0 57.62 0 29.24 0 0 Z " fill="#5F5E5E" transform="translate(235,321)"/>
<path d="M0 0 C47.22848618 0 47.22848618 0 55.57421875 8.2421875 C63.59573682 18.13173033 64.37356692 28.87502341 64.37060547 41.20947266 C64.37496331 43.23296365 64.41134394 45.2542387 64.44921875 47.27734375 C64.48304027 58.7879353 63.1952706 69.90817477 54.79296875 78.41796875 C39.20026293 92.17623859 21.70823307 86 0 86 C0 57.62 0 29.24 0 0 Z M18 16 C18 34.15 18 52.3 18 71 C31.91261178 72.08551928 31.91261178 72.08551928 42.25 65.8125 C46.52689057 58.93892588 46.31104097 51.34376452 46.25 43.5 C46.25773438 42.50613281 46.26546875 41.51226562 46.2734375 40.48828125 C46.25123558 32.08485285 45.59289681 24.71147618 40 18 C33.26684351 14.94772642 33.26684351 14.94772642 18 16 Z " fill="#5F5E5E" transform="translate(471,321)"/>
<path d="M0 0 C5.94 0 11.88 0 18 0 C21.00616839 7.35071974 23.72044477 14.75975063 26.30078125 22.26953125 C26.7002446 23.4263591 27.09970795 24.58318695 27.51127625 25.77507019 C28.35364294 28.21610369 29.19483487 30.65754287 30.03491211 33.09936523 C31.29596597 36.76444609 32.56073645 40.42822684 33.82617188 44.09179688 C38.6360546 58.03369625 43.36247523 71.99980714 48 86 C41.4 86 34.8 86 28 86 C26.35 81.05 24.7 76.1 23 71 C14.09 71 5.18 71 -4 71 C-5.65 75.95 -7.3 80.9 -9 86 C-15.6 86 -22.2 86 -29 86 C-26.98488931 78.32585551 -24.67233679 70.84594524 -22.05078125 63.359375 C-21.67447067 62.27529358 -21.2981601 61.19121216 -20.91044617 60.07427979 C-19.71454395 56.63165495 -18.51363118 53.19080347 -17.3125 49.75 C-16.52635796 47.48969973 -15.7405483 45.22928383 -14.95507812 42.96875 C-13.02412324 37.41403494 -11.0891044 31.86074597 -9.15289307 26.30786133 C-7.23864174 20.81552372 -5.32833707 15.32181417 -3.41796875 9.828125 C-2.7528493 7.91568976 -2.08772896 6.00325483 -1.42260742 4.09082031 C-0.95314697 2.74084961 -0.48368652 1.39087891 0 0 Z M9 28 C7.65934762 31.93504649 6.32873929 35.87341646 5 39.8125 C4.42765625 41.49182617 4.42765625 41.49182617 3.84375 43.20507812 C3.4828125 44.27822266 3.121875 45.35136719 2.75 46.45703125 C2.41484375 47.44678955 2.0796875 48.43654785 1.734375 49.45629883 C0.86131245 52.03911618 0.86131245 52.03911618 1 55 C6.61 55 12.22 55 18 55 C15.83955554 45.78968412 13.08626964 36.92944418 10 28 C9.67 28 9.34 28 9 28 Z " fill="#5F5E5E" transform="translate(606,321)"/>
<path d="M0 0 C5.94 0 11.88 0 18 0 C18.59425781 1.72742432 19.18851562 3.45484863 19.80078125 5.23461914 C21.80009464 11.0460421 23.79977364 16.85733915 25.79968262 22.66855717 C27.00809421 26.17992951 28.21637453 29.6913469 29.42431641 33.20288086 C30.59273702 36.59950701 31.76155285 39.99599695 32.93060303 43.39240646 C33.3933465 44.73702716 33.85595241 46.08169521 34.31842041 47.42641068 C36.68581757 54.30976766 39.06155428 61.18989331 41.47265625 68.05810547 C41.84890137 69.13136581 42.22514648 70.20462616 42.61279297 71.31040955 C43.31087484 73.29849382 44.01157307 75.28566203 44.71533203 77.27174377 C45.01938965 78.13782761 45.32344727 79.00391144 45.63671875 79.89624023 C45.90186279 80.64606674 46.16700684 81.39589325 46.44018555 82.16844177 C47 84 47 84 47 86 C40.4 86 33.8 86 27 86 C23 73.375 23 73.375 23 70 C13.76 70 4.52 70 -5 70 C-5.99 73.63 -6.98 77.26 -8 81 C-8.66 82.65 -9.32 84.3 -10 86 C-16.6 86 -23.2 86 -30 86 C-23.46490706 66.17566779 -16.80357027 46.39988855 -9.9375 26.6875 C-9.61280731 25.7527182 -9.28811462 24.8179364 -8.95358276 23.85482788 C-8.02272655 21.17693954 -7.08820551 18.50036133 -6.15234375 15.82421875 C-5.87777344 15.03394287 -5.60320312 14.24366699 -5.3203125 13.42944336 C-5.05855225 12.68404297 -4.79679199 11.93864258 -4.52709961 11.1706543 C-4.30348251 10.53089157 -4.07986542 9.89112885 -3.84947205 9.23197937 C-2.6635194 6.11590055 -1.31337863 3.06455013 0 0 Z M8 28 C6.66197735 32.123494 5.33037699 36.24903352 4 40.375 C3.42765625 42.1384375 3.42765625 42.1384375 2.84375 43.9375 C2.4828125 45.05898438 2.121875 46.18046875 1.75 47.3359375 C1.41484375 48.37282715 1.0796875 49.4097168 0.734375 50.47802734 C-0.09319294 52.88225441 -0.09319294 52.88225441 0 55 C5.61 55 11.22 55 17 55 C16.10814273 48.75477712 16.10814273 48.75477712 14.37109375 42.94140625 C14.05849609 42.06162109 13.74589844 41.18183594 13.42382812 40.27539062 C13.09833984 39.38013672 12.77285156 38.48488281 12.4375 37.5625 C12.10814453 36.64017578 11.77878906 35.71785156 11.43945312 34.76757812 C10.63217353 32.5095352 9.81891273 30.25384435 9 28 C8.67 28 8.34 28 8 28 Z " fill="#5F5E5E" transform="translate(377,321)"/>
<path d="M0 0 C5.94 0 11.88 0 18 0 C18.48766846 1.41289307 18.97533691 2.82578613 19.4777832 4.28149414 C21.33964834 9.67449473 23.20295948 15.06699462 25.06695557 20.45925903 C25.89490465 22.85443659 26.72266456 25.24967954 27.55023193 27.64498901 C33.53470803 44.96946995 33.53470803 44.96946995 39.64453125 62.25 C39.9071022 62.98439804 40.16967316 63.71879608 40.44020081 64.47544861 C41.61967676 67.76969504 42.8058111 71.0613567 44.0012207 74.34985352 C44.4055835 75.47319092 44.80994629 76.59652832 45.2265625 77.75390625 C45.57283691 78.70595947 45.91911133 79.6580127 46.27587891 80.63891602 C47 83 47 83 47 86 C40.73 86 34.46 86 28 86 C25.65688382 80.40675492 24.00591189 76.03547136 23 70 C13.76 70 4.52 70 -5 70 C-5.99 73.96 -6.98 77.92 -8 82 C-8.66 83.32 -9.32 84.64 -10 86 C-16.6 86 -23.2 86 -30 86 C-29.45214844 84.41703125 -28.90429688 82.8340625 -28.33984375 81.203125 C-27.53884614 78.88549143 -26.73808789 76.56777513 -25.9375 74.25 C-25.72324371 73.62996094 -25.50898743 73.00992188 -25.28823853 72.37109375 C-22.22432921 63.50066678 -19.18763883 54.62128765 -16.171875 45.734375 C-15.5065953 43.77571495 -14.84131209 41.8170561 -14.17602539 39.85839844 C-13.18865691 36.9510982 -12.20220947 34.0435024 -11.21871948 31.1348877 C-7.67950013 20.66810768 -4.06294377 10.27731301 0 0 Z M8 28 C6.66197735 32.123494 5.33037699 36.24903352 4 40.375 C3.42765625 42.1384375 3.42765625 42.1384375 2.84375 43.9375 C2.4828125 45.05898438 2.121875 46.18046875 1.75 47.3359375 C1.41484375 48.37282715 1.0796875 49.4097168 0.734375 50.47802734 C-0.09319294 52.88225441 -0.09319294 52.88225441 0 55 C5.94 55 11.88 55 18 55 C16.71759087 50.68454415 15.42460332 46.37277607 14.125 42.0625 C13.57779297 40.21495117 13.57779297 40.21495117 13.01953125 38.33007812 C12.66503906 37.16025391 12.31054688 35.99042969 11.9453125 34.78515625 C11.62062988 33.70113525 11.29594727 32.61711426 10.96142578 31.50024414 C10.26556198 28.85181327 10.26556198 28.85181327 8 28 Z " fill="#5F5E5E" transform="translate(141,321)"/>
<path d="M0 0 C5.69302262 4.44136516 9.63512083 11.99351959 11.25 18.9375 C11.25 20.5875 11.25 22.2375 11.25 23.9375 C5.64 23.9375 0.03 23.9375 -5.75 23.9375 C-6.471875 22.514375 -7.19375 21.09125 -7.9375 19.625 C-10.07729403 15.83416711 -11.47738496 13.39407331 -15.75 11.9375 C-20.06267307 11.39448095 -23.58281463 11.45540169 -27.625 13.125 C-31.15644608 16.13711578 -32.88258144 19.43264487 -33.75 23.9375 C-33.99380423 28.28595861 -34.02059922 32.6351633 -34.04516602 36.98950195 C-34.05665017 38.40431752 -34.07704561 39.81909098 -34.10668945 41.23364258 C-34.42884162 53.17871703 -34.42884162 53.17871703 -29.75 63.9375 C-25.50536027 67.0502358 -21.93625974 67.49317069 -16.75 66.9375 C-13.11853654 65.61061912 -11.25002216 64.6099436 -8.9375 61.5 C-7.57523059 58.77066957 -7.57523059 58.77066957 -6.75 54.9375 C-0.81 54.9375 5.13 54.9375 11.25 54.9375 C9.97313179 65.15244565 7.46294069 72.06575317 -0.7265625 78.53515625 C-8.88387874 84.18858585 -18.26204534 84.58744473 -27.875 83.375 C-35.9318749 81.77206154 -42.37130469 78.39370692 -47.1875 71.625 C-53.26953853 61.40236462 -53.93025014 50.84527184 -53.9375 39.1875 C-53.94974609 38.1665625 -53.96199219 37.145625 -53.97460938 36.09375 C-53.99653866 24.57356466 -52.89392181 12.79132874 -44.890625 3.86328125 C-32.8834081 -7.23641344 -13.94916073 -8.58878456 0 0 Z " fill="#5F5E5E" transform="translate(58.75,325.0625)"/>
<path d="M0 0 C3.87433153 2.3408963 6.55767172 4.67301516 8 9 C8.39177998 13.15286777 8.25515206 15.48969587 6.375 19.25 C3.67226478 22.37948288 1.9310322 23.71485486 -2 25 C-6.29213444 25.20237962 -9.23180443 24.48429721 -12.875 22.1875 C-16.07075726 18.89774988 -16.89369183 17.16938985 -17.3125 12.5625 C-16.91203685 7.9972201 -15.42537779 5.66294075 -12.5 2.25 C-9.01744086 -0.65213261 -4.30004633 -0.84900366 0 0 Z M-10 5 C-10 5.33 -10 5.66 -10 6 C-6.7 6.33 -3.4 6.66 0 7 C0 10 0 13 0 16 C0.33 16.66 0.66 17.32 1 18 C1.66 18 2.32 18 3 18 C4.78353347 13.76714833 4.78353347 13.76714833 4.3125 9.3125 C2.25332503 5.68442981 1.17304262 4.3244586 -2.9375 3.1875 C-6.10024068 2.99386282 -7.39385869 3.29598453 -10 5 Z M-11 6 C-13.46324069 9.69486103 -13.38991688 11.63293092 -13 16 C-12.01 16.99 -11.02 17.98 -10 19 C-10 14.71 -10 10.42 -10 6 C-10.33 6 -10.66 6 -11 6 Z M-7 9 C-7 9.66 -7 10.32 -7 11 C-5.68 11 -4.36 11 -3 11 C-3 10.34 -3 9.68 -3 9 C-4.32 9 -5.64 9 -7 9 Z M-7 14 C-7 15.65 -7 17.3 -7 19 C-7.99 19.33 -8.98 19.66 -10 20 C-6.98675805 21.50662097 -4.31713623 21.17770373 -1 21 C-0.34 20.34 0.32 19.68 1 19 C-0.32 19 -1.64 19 -3 19 C-3.66 17.35 -4.32 15.7 -5 14 C-5.66 14 -6.32 14 -7 14 Z " fill="#D7072A" transform="translate(682,17)"/>
</svg>
