<?xml version="1.0" encoding="UTF-8"?>
<svg xmlns="http://www.w3.org/2000/svg" id="Layer_1" data-name="Layer 1" viewBox="0 0 99.66 100">
  <defs>
    <style>.cls-1{fill:#fff;}</style>
  </defs>
  <title>stek-emblem-white</title>
  <path class="cls-1" d="M998.48,506.76l-49.7-15.59c-9.27-3-19.65,3.36-23,14l-14,44.16C908.48,560,913.3,571.16,922.57,574l49.7,15.71c9.4,3,19.78-3.34,23.13-14.11l14-44C1012.69,520.85,1007.87,509.72,998.48,506.76Zm4.45,21.14L988,575a11.5,11.5,0,0,1-14.47,7.4l-47.59-15.07A11.39,11.39,0,0,1,918.24,553l14.84-47.1a11.5,11.5,0,0,1,14.6-7.42l47.59,15A11.71,11.71,0,0,1,1002.93,527.9Z" transform="translate(-910.76 -490.44)"></path>
  <path class="cls-1" d="M962.54,549.8c1.36-4.4-7-8.36-9.84-10.63a13.8,13.8,0,0,1-4.94-15.12c-.82,2.68-2,7.35-2.18,8.5a13.71,13.71,0,0,0,5.4,13c2,1.6,6.78,4.07,8.91,6.93A4.32,4.32,0,0,0,962.54,549.8Z" transform="translate(-910.76 -490.44)"></path>
  <path class="cls-1" d="M948,523.33c0-.16.1-.33.16-.48Z" transform="translate(-910.76 -490.44)"></path>
  <path class="cls-1" d="M961.4,564.17c-3.28.57-7.46-.33-10.4-1.46A33.72,33.72,0,0,1,940.37,556c-2.38-2.6-2.6-1.59-3.28-3.74l-1.72,6.38c.66,2.15.9,1.14,3.28,3.74a34,34,0,0,0,10.62,6.68c3,1.12,7.13,2,10.41,1.46s7.13-1.7,9.62-4.07a21.58,21.58,0,0,0,4.42-7.24,19,19,0,0,0,.85-4.26,23.77,23.77,0,0,1-3.54,5.13C968.53,562.48,964.8,563.5,961.4,564.17Z" transform="translate(-910.76 -490.44)"></path>
  <path class="cls-1" d="M948.35,522.35c0,.08-.08.19-.13.32,0-.14.11-.28.17-.41A.36.36,0,0,1,948.35,522.35Z" transform="translate(-910.76 -490.44)"></path>
  <path class="cls-1" d="M964.89,530.85a15.63,15.63,0,0,1,8.14,6l7.81-8c1.64-6,.37-.91,1.73-6.37l-7.81,8a15.65,15.65,0,0,0-8.14-6c-4.92-1.61-6.91,3.13-4.46,6.14A5.34,5.34,0,0,1,964.89,530.85Z" transform="translate(-910.76 -490.44)"></path>
  <path class="cls-1" d="M948.15,522.85l.07-.18A1.34,1.34,0,0,0,948.15,522.85Z" transform="translate(-910.76 -490.44)"></path>
  <path class="cls-1" d="M947.76,524.05l.23-.72C947.91,523.56,947.83,523.81,947.76,524.05Z" transform="translate(-910.76 -490.44)"></path>
</svg>
