<svg xmlns="http://www.w3.org/2000/svg" viewBox="0 0 120 80" fill="currentColor">
  <!-- Outer Ellipse -->
  <ellipse cx="60" cy="40" rx="55" ry="32" fill="none" stroke="currentColor" stroke-width="4"/>
  <!-- Stars constellation -->
  <path d="M36 40 C36 40, 46 38, 46 26 C46 38, 56 40, 56 40 C56 40, 46 42, 46 54 C46 42, 36 40, 36 40 Z" />
  <path d="M72 26 C72 26, 77 25, 77 19 C77 25, 82 26, 82 26 C82 26, 77 27, 77 33 C77 27, 72 26, 72 26 Z" />
  <path d="M85 36 C85 36, 89 35, 89 30 C89 35, 93 36, 93 36 C93 36, 89 37, 89 42 C89 37, 85 36, 85 36 Z" />
  <path d="M70 48 C70 48, 74 47, 74 42 C74 47, 78 48, 78 48 C78 48, 74 49, 74 54 C74 49, 70 48, 70 48 Z" />
  <path d="M83 50 C83 50, 87 49, 87 44 C87 49, 91 50, 91 50 C91 50, 87 51, 87 56 C87 51, 83 50, 83 50 Z" />
  <path d="M92 24 C92 24, 95 23, 95 19 C95 23, 98 24, 98 24 C98 24, 95 25, 95 29 C95 25, 92 24, 92 24 Z" />
</svg>
